<ttFont>
    <TTGlyph name=".notdef" xMin="180" yMin="-435" xMax="1421" yMax="1540">
      <contour>
        <pt x="180" y="1540" on="1"/>
        <pt x="1421" y="1540" on="1"/>
        <pt x="1421" y="-435" on="1"/>
        <pt x="180" y="-435" on="1"/>
      </contour>
      <contour>
        <pt x="877" y="552" on="1"/>
        <pt x="1275" y="-286" on="1"/>
        <pt x="1275" y="1391" on="1"/>
      </contour>
      <contour>
        <pt x="723" y="552" on="1"/>
        <pt x="326" y="1391" on="1"/>
        <pt x="326" y="-286" on="1"/>
      </contour>
      <contour>
        <pt x="800" y="390" on="1"/>
        <pt x="471" y="-306" on="1"/>
        <pt x="1130" y="-306" on="1"/>
      </contour>
      <contour>
        <pt x="800" y="715" on="1"/>
        <pt x="1130" y="1411" on="1"/>
        <pt x="471" y="1411" on="1"/>
      </contour>
    </TTGlyph>
    <TTGlyph name="A" xMin="-124" yMin="0" xMax="1131" yMax="1353">
      <contour>
        <pt x="1019" y="105" on="1"/>
        <pt x="1131" y="85" on="1"/>
        <pt x="1114" y="0" on="1"/>
        <pt x="697" y="0" on="1"/>
        <pt x="689" y="85" on="1"/>
        <pt x="830" y="105" on="1"/>
        <pt x="766" y="426" on="1"/>
        <pt x="290" y="426" on="1"/>
        <pt x="133" y="105" on="1"/>
        <pt x="275" y="85" on="1"/>
        <pt x="258" y="0" on="1"/>
        <pt x="-116" y="0" on="1"/>
        <pt x="-124" y="85" on="1"/>
        <pt x="-13" y="105" on="1"/>
        <pt x="609" y="1353" on="1"/>
        <pt x="758" y="1353" on="1"/>
      </contour>
      <contour>
        <pt x="621" y="1104" on="1"/>
        <pt x="338" y="525" on="1"/>
        <pt x="746" y="525" on="1"/>
        <pt x="631" y="1104" on="1"/>
      </contour>
    </TTGlyph>
    <TTGlyph name="AE" xMin="-172" yMin="0" xMax="1552" yMax="1353">
      <contour>
        <pt x="1240" y="757" on="1"/>
        <pt x="1280" y="894" on="1"/>
        <pt x="1363" y="874" on="1"/>
        <pt x="1311" y="519" on="1"/>
        <pt x="1224" y="514" on="1"/>
        <pt x="1224" y="658" on="1"/>
        <pt x="890" y="658" on="1"/>
        <pt x="811" y="99" on="1"/>
        <pt x="1272" y="99" on="1"/>
        <pt x="1377" y="302" on="1"/>
        <pt x="1457" y="289" on="1"/>
        <pt x="1391" y="0" on="1"/>
        <pt x="489" y="0" on="1"/>
        <pt x="481" y="85" on="1"/>
        <pt x="622" y="105" on="1"/>
        <pt x="667" y="426" on="1"/>
        <pt x="292" y="426" on="1"/>
        <pt x="96" y="103" on="1"/>
        <pt x="227" y="85" on="1"/>
        <pt x="210" y="0" on="1"/>
        <pt x="-164" y="0" on="1"/>
        <pt x="-172" y="85" on="1"/>
        <pt x="-59" y="105" on="1"/>
        <pt x="711" y="1353" on="1"/>
        <pt x="1552" y="1353" on="1"/>
        <pt x="1533" y="1053" on="1"/>
        <pt x="1447" y="1053" on="1"/>
        <pt x="1407" y="1254" on="1"/>
        <pt x="974" y="1254" on="1"/>
        <pt x="904" y="757" on="1"/>
      </contour>
      <contour>
        <pt x="681" y="525" on="1"/>
        <pt x="781" y="1232" on="1"/>
        <pt x="352" y="525" on="1"/>
      </contour>
    </TTGlyph>
    <TTGlyph name="AEacute" xMin="-172" yMin="0" xMax="1552" yMax="1784">
      <component glyphName="AE" x="0" y="0" flags="0x204"/>
      <component glyphName="acute.case" x="851" y="0" flags="0x4"/>
    </TTGlyph>
    <TTGlyph name="Aacute" xMin="-124" yMin="0" xMax="1131" yMax="1784">
      <component glyphName="A" x="0" y="0" flags="0x204"/>
      <component glyphName="acute.case" x="508" y="0" flags="0x4"/>
    </TTGlyph>
    <TTGlyph name="Abreve" xMin="-124" yMin="0" xMax="1131" yMax="1759">
      <component glyphName="A" x="0" y="0" flags="0x204"/>
      <component glyphName="breve.case" x="461" y="0" flags="0x4"/>
    </TTGlyph>
    <TTGlyph name="Acircumflex" xMin="-124" yMin="0" xMax="1131" yMax="1794">
      <component glyphName="A" x="0" y="0" flags="0x204"/>
      <component glyphName="circumflex.case" x="452" y="0" flags="0x4"/>
    </TTGlyph>
    <TTGlyph name="Adieresis" xMin="-124" yMin="0" xMax="1131" yMax="1701">
      <component glyphName="A" x="0" y="0" flags="0x204"/>
      <component glyphName="dieresis.case" x="429" y="0" flags="0x4"/>
    </TTGlyph>
    <TTGlyph name="Agrave" xMin="-124" yMin="0" xMax="1131" yMax="1784">
      <component glyphName="A" x="0" y="0" flags="0x204"/>
      <component glyphName="grave.case" x="253" y="0" flags="0x4"/>
    </TTGlyph>
    <TTGlyph name="Amacron" xMin="-124" yMin="0" xMax="1131" yMax="1660">
      <component glyphName="A" x="0" y="0" flags="0x204"/>
      <component glyphName="macron.case" x="447" y="0" flags="0x4"/>
    </TTGlyph>
    <TTGlyph name="Aogonek" xMin="-124" yMin="-457" xMax="1131" yMax="1353">
      <contour>
        <pt x="852" y="0" on="1"/>
        <pt x="807" y="-28" on="0"/>
        <pt x="712" y="-99" on="0"/>
        <pt x="631" y="-180" on="0"/>
        <pt x="574" y="-268" on="0"/>
        <pt x="569" y="-313" on="1"/>
        <pt x="565" y="-347" on="0"/>
        <pt x="599" y="-377" on="0"/>
        <pt x="630" y="-377" on="1"/>
        <pt x="659" y="-377" on="0"/>
        <pt x="717" y="-352" on="0"/>
        <pt x="741" y="-337" on="1"/>
        <pt x="769" y="-319" on="0"/>
        <pt x="796" y="-297" on="1"/>
        <pt x="788" y="-370" on="1"/>
        <pt x="760" y="-395" on="0"/>
        <pt x="725" y="-414" on="1"/>
        <pt x="695" y="-431" on="0"/>
        <pt x="614" y="-457" on="0"/>
        <pt x="566" y="-457" on="1"/>
        <pt x="529" y="-457" on="0"/>
        <pt x="472" y="-443" on="0"/>
        <pt x="436" y="-410" on="0"/>
        <pt x="422" y="-356" on="0"/>
        <pt x="428" y="-315" on="1"/>
        <pt x="440" y="-253" on="0"/>
        <pt x="516" y="-133" on="0"/>
        <pt x="627" y="-21" on="0"/>
        <pt x="699" y="29" on="1"/>
        <pt x="762" y="72" on="0"/>
        <pt x="830" y="110" on="1"/>
        <pt x="766" y="426" on="1"/>
        <pt x="290" y="426" on="1"/>
        <pt x="133" y="105" on="1"/>
        <pt x="275" y="85" on="1"/>
        <pt x="258" y="0" on="1"/>
        <pt x="-116" y="0" on="1"/>
        <pt x="-124" y="85" on="1"/>
        <pt x="-13" y="105" on="1"/>
        <pt x="609" y="1353" on="1"/>
        <pt x="758" y="1353" on="1"/>
        <pt x="1019" y="105" on="1"/>
        <pt x="1131" y="85" on="1"/>
        <pt x="1114" y="0" on="1"/>
      </contour>
      <contour>
        <pt x="621" y="1104" on="1"/>
        <pt x="338" y="525" on="1"/>
        <pt x="746" y="525" on="1"/>
        <pt x="631" y="1104" on="1"/>
      </contour>
    </TTGlyph>
    <TTGlyph name="Aring" xMin="-124" yMin="0" xMax="1131" yMax="1784">
      <component glyphName="A" x="0" y="0" flags="0x204"/>
      <component glyphName="ring.case" x="453" y="0" flags="0x4"/>
    </TTGlyph>
    <TTGlyph name="Aringacute" xMin="-124" yMin="0" xMax="1223" yMax="2163">
      <component glyphName="A" x="0" y="0" flags="0x204"/>
      <component glyphName="ring.case" x="446" y="0" flags="0x4"/>
      <component glyphName="acute.case" x="627" y="379" flags="0x4"/>
    </TTGlyph>
    <TTGlyph name="Atilde" xMin="-124" yMin="0" xMax="1132" yMax="1747">
      <component glyphName="A" x="0" y="0" flags="0x204"/>
      <component glyphName="tilde.case" x="444" y="0" flags="0x4"/>
    </TTGlyph>
    <TTGlyph name="B" xMin="8" yMin="0" xMax="1080" yMax="1353">
      <contour>
        <pt x="16" y="0" on="1"/>
        <pt x="8" y="85" on="1"/>
        <pt x="149" y="105" on="1"/>
        <pt x="310" y="1248" on="1"/>
        <pt x="169" y="1268" on="1"/>
        <pt x="186" y="1353" on="1"/>
        <pt x="669" y="1353" on="1"/>
        <pt x="886" y="1353" on="0"/>
        <pt x="1080" y="1196" on="0"/>
        <pt x="1057" y="1032" on="1"/>
        <pt x="1042" y="926" on="0"/>
        <pt x="912" y="766" on="0"/>
        <pt x="816" y="724" on="1"/>
        <pt x="816" y="708" on="1"/>
        <pt x="928" y="681" on="0"/>
        <pt x="1042" y="513" on="0"/>
        <pt x="1025" y="395" on="1"/>
        <pt x="999" y="211" on="0"/>
        <pt x="746" y="0" on="0"/>
        <pt x="553" y="0" on="1"/>
      </contour>
      <contour>
        <pt x="480" y="99" on="1"/>
        <pt x="567" y="99" on="0"/>
        <pt x="721" y="125" on="0"/>
        <pt x="775" y="148" on="1"/>
        <pt x="791" y="188" on="0"/>
        <pt x="822" y="301" on="0"/>
        <pt x="834" y="384" on="1"/>
        <pt x="851" y="512" on="0"/>
        <pt x="708" y="653" on="0"/>
        <pt x="568" y="653" on="1"/>
        <pt x="416" y="653" on="1"/>
        <pt x="338" y="99" on="1"/>
      </contour>
      <contour>
        <pt x="563" y="752" on="1"/>
        <pt x="618" y="752" on="0"/>
        <pt x="742" y="772" on="0"/>
        <pt x="796" y="791" on="1"/>
        <pt x="816" y="830" on="0"/>
        <pt x="856" y="952" on="0"/>
        <pt x="864" y="1013" on="1"/>
        <pt x="880" y="1128" on="0"/>
        <pt x="772" y="1254" on="0"/>
        <pt x="611" y="1254" on="1"/>
        <pt x="501" y="1254" on="1"/>
        <pt x="430" y="752" on="1"/>
      </contour>
    </TTGlyph>
    <TTGlyph name="C" xMin="33" yMin="-22" xMax="1149" yMax="1375">
      <contour>
        <pt x="81" y="604" on="1"/>
        <pt x="133" y="984" on="0"/>
        <pt x="495" y="1375" on="0"/>
        <pt x="795" y="1375" on="1"/>
        <pt x="896" y="1375" on="0"/>
        <pt x="1083" y="1344" on="0"/>
        <pt x="1149" y="1316" on="1"/>
        <pt x="1132" y="1046" on="1"/>
        <pt x="1044" y="1046" on="1"/>
        <pt x="999" y="1249" on="1"/>
        <pt x="957" y="1261" on="0"/>
        <pt x="827" y="1276" on="0"/>
        <pt x="750" y="1276" on="1"/>
        <pt x="671" y="1276" on="0"/>
        <pt x="513" y="1229" on="0"/>
        <pt x="448" y="1188" on="1"/>
        <pt x="390" y="1092" on="0"/>
        <pt x="303" y="832" on="0"/>
        <pt x="282" y="683" on="1"/>
        <pt x="264" y="550" on="1"/>
        <pt x="233" y="325" on="0"/>
        <pt x="434" y="77" on="0"/>
        <pt x="634" y="77" on="1"/>
        <pt x="724" y="77" on="0"/>
        <pt x="922" y="131" on="0"/>
        <pt x="1018" y="181" on="1"/>
        <pt x="1003" y="105" on="1"/>
        <pt x="908" y="48" on="0"/>
        <pt x="671" y="-22" on="0"/>
        <pt x="556" y="-22" on="1"/>
        <pt x="273" y="-22" on="0"/>
        <pt x="33" y="251" on="0"/>
        <pt x="69" y="515" on="1"/>
      </contour>
    </TTGlyph>
    <TTGlyph name="Cacute" xMin="33" yMin="-22" xMax="1224" yMax="1784">
      <component glyphName="C" x="0" y="0" flags="0x204"/>
      <component glyphName="acute.case" x="628" y="0" flags="0x4"/>
    </TTGlyph>
    <TTGlyph name="Ccaron" xMin="33" yMin="-22" xMax="1211" yMax="1794">
      <component glyphName="C" x="0" y="0" flags="0x204"/>
      <component glyphName="caron.case" x="563" y="0" flags="0x4"/>
    </TTGlyph>
    <TTGlyph name="Ccedilla" xMin="33" yMin="-457" xMax="1149" yMax="1375">
      <contour>
        <pt x="81" y="604" on="1"/>
        <pt x="133" y="984" on="0"/>
        <pt x="495" y="1375" on="0"/>
        <pt x="795" y="1375" on="1"/>
        <pt x="896" y="1375" on="0"/>
        <pt x="1083" y="1344" on="0"/>
        <pt x="1149" y="1316" on="1"/>
        <pt x="1132" y="1046" on="1"/>
        <pt x="1044" y="1046" on="1"/>
        <pt x="999" y="1249" on="1"/>
        <pt x="957" y="1261" on="0"/>
        <pt x="827" y="1276" on="0"/>
        <pt x="750" y="1276" on="1"/>
        <pt x="671" y="1276" on="0"/>
        <pt x="513" y="1229" on="0"/>
        <pt x="448" y="1188" on="1"/>
        <pt x="390" y="1092" on="0"/>
        <pt x="303" y="832" on="0"/>
        <pt x="282" y="683" on="1"/>
        <pt x="264" y="550" on="1"/>
        <pt x="233" y="325" on="0"/>
        <pt x="434" y="77" on="0"/>
        <pt x="634" y="77" on="1"/>
        <pt x="724" y="77" on="0"/>
        <pt x="922" y="131" on="0"/>
        <pt x="1018" y="181" on="1"/>
        <pt x="1003" y="105" on="1"/>
        <pt x="908" y="48" on="0"/>
        <pt x="789" y="13" on="1"/>
        <pt x="689" y="-16" on="0"/>
        <pt x="592" y="-21" on="1"/>
        <pt x="554" y="-98" on="1"/>
        <pt x="594" y="-109" on="0"/>
        <pt x="661" y="-137" on="0"/>
        <pt x="706" y="-179" on="0"/>
        <pt x="726" y="-239" on="0"/>
        <pt x="720" y="-281" on="1"/>
        <pt x="715" y="-319" on="0"/>
        <pt x="676" y="-383" on="0"/>
        <pt x="611" y="-430" on="0"/>
        <pt x="523" y="-457" on="0"/>
        <pt x="468" y="-457" on="1"/>
        <pt x="428" y="-457" on="0"/>
        <pt x="362" y="-443" on="0"/>
        <pt x="337" y="-434" on="1"/>
        <pt x="308" y="-423" on="0"/>
        <pt x="284" y="-410" on="1"/>
        <pt x="307" y="-347" on="1"/>
        <pt x="332" y="-358" on="0"/>
        <pt x="359" y="-367" on="1"/>
        <pt x="382" y="-375" on="0"/>
        <pt x="441" y="-387" on="0"/>
        <pt x="472" y="-387" on="1"/>
        <pt x="492" y="-387" on="0"/>
        <pt x="524" y="-383" on="0"/>
        <pt x="535" y="-381" on="1"/>
        <pt x="547" y="-378" on="0"/>
        <pt x="557" y="-374" on="1"/>
        <pt x="562" y="-362" on="0"/>
        <pt x="566" y="-348" on="1"/>
        <pt x="570" y="-336" on="0"/>
        <pt x="577" y="-306" on="0"/>
        <pt x="579" y="-289" on="1"/>
        <pt x="584" y="-235" on="0"/>
        <pt x="523" y="-173" on="0"/>
        <pt x="454" y="-153" on="1"/>
        <pt x="418" y="-101" on="1"/>
        <pt x="461" y="-18" on="1"/>
        <pt x="252" y="2" on="0"/>
        <pt x="153" y="114" on="1"/>
        <pt x="33" y="251" on="0"/>
        <pt x="69" y="515" on="1"/>
      </contour>
    </TTGlyph>
    <TTGlyph name="Ccircumflex" xMin="33" yMin="-22" xMax="1160" yMax="1794">
      <component glyphName="C" x="0" y="0" flags="0x204"/>
      <component glyphName="circumflex.case" x="572" y="0" flags="0x4"/>
    </TTGlyph>
    <TTGlyph name="Cdotaccent" xMin="33" yMin="-22" xMax="1149" yMax="1731">
      <component glyphName="C" x="0" y="0" flags="0x204"/>
      <component glyphName="dotaccent.case" x="592" y="0" flags="0x4"/>
    </TTGlyph>
    <TTGlyph name="D" xMin="8" yMin="0" xMax="1294" yMax="1353">
      <contour>
        <pt x="16" y="0" on="1"/>
        <pt x="8" y="85" on="1"/>
        <pt x="149" y="105" on="1"/>
        <pt x="310" y="1248" on="1"/>
        <pt x="169" y="1268" on="1"/>
        <pt x="186" y="1353" on="1"/>
        <pt x="732" y="1353" on="1"/>
        <pt x="1032" y="1353" on="0"/>
        <pt x="1294" y="1047" on="0"/>
        <pt x="1253" y="742" on="1"/>
        <pt x="1241" y="654" on="1"/>
        <pt x="1197" y="344" on="0"/>
        <pt x="848" y="0" on="0"/>
        <pt x="581" y="0" on="1"/>
      </contour>
      <contour>
        <pt x="554" y="99" on="1"/>
        <pt x="628" y="99" on="0"/>
        <pt x="777" y="131" on="0"/>
        <pt x="838" y="158" on="1"/>
        <pt x="906" y="227" on="0"/>
        <pt x="1024" y="464" on="0"/>
        <pt x="1047" y="622" on="1"/>
        <pt x="1060" y="716" on="1"/>
        <pt x="1095" y="975" on="0"/>
        <pt x="898" y="1254" on="0"/>
        <pt x="674" y="1254" on="1"/>
        <pt x="501" y="1254" on="1"/>
        <pt x="338" y="99" on="1"/>
      </contour>
    </TTGlyph>
    <TTGlyph name="Dcaron" xMin="8" yMin="0" xMax="1294" yMax="1794">
      <component glyphName="D" x="0" y="0" flags="0x204"/>
      <component glyphName="caron.case" x="447" y="0" flags="0x4"/>
    </TTGlyph>
    <TTGlyph name="Dcroat" xMin="-3" yMin="0" xMax="1294" yMax="1353">
      <contour>
        <pt x="12" y="750" on="1"/>
        <pt x="240" y="750" on="1"/>
        <pt x="310" y="1248" on="1"/>
        <pt x="169" y="1268" on="1"/>
        <pt x="186" y="1353" on="1"/>
        <pt x="732" y="1353" on="1"/>
        <pt x="1032" y="1353" on="0"/>
        <pt x="1294" y="1047" on="0"/>
        <pt x="1253" y="742" on="1"/>
        <pt x="1241" y="654" on="1"/>
        <pt x="1197" y="344" on="0"/>
        <pt x="848" y="0" on="0"/>
        <pt x="581" y="0" on="1"/>
        <pt x="16" y="0" on="1"/>
        <pt x="8" y="85" on="1"/>
        <pt x="149" y="105" on="1"/>
        <pt x="224" y="640" on="1"/>
        <pt x="-3" y="640" on="1"/>
      </contour>
      <contour>
        <pt x="554" y="99" on="1"/>
        <pt x="628" y="99" on="0"/>
        <pt x="777" y="131" on="0"/>
        <pt x="838" y="158" on="1"/>
        <pt x="906" y="227" on="0"/>
        <pt x="1024" y="464" on="0"/>
        <pt x="1047" y="622" on="1"/>
        <pt x="1060" y="716" on="1"/>
        <pt x="1095" y="975" on="0"/>
        <pt x="898" y="1254" on="0"/>
        <pt x="674" y="1254" on="1"/>
        <pt x="501" y="1254" on="1"/>
        <pt x="430" y="750" on="1"/>
        <pt x="668" y="750" on="1"/>
        <pt x="653" y="640" on="1"/>
        <pt x="414" y="640" on="1"/>
        <pt x="338" y="99" on="1"/>
      </contour>
    </TTGlyph>
    <TTGlyph name="Ddotaccent" xMin="8" yMin="0" xMax="1294" yMax="1731">
      <component glyphName="D" x="0" y="0" flags="0x204"/>
      <component glyphName="dotaccent.case" x="476" y="0" flags="0x4"/>
    </TTGlyph>
    <TTGlyph name="E" xMin="2" yMin="0" xMax="1123" yMax="1353">
      <contour>
        <pt x="411" y="658" on="1"/>
        <pt x="332" y="99" on="1"/>
        <pt x="843" y="99" on="1"/>
        <pt x="948" y="302" on="1"/>
        <pt x="1028" y="289" on="1"/>
        <pt x="962" y="0" on="1"/>
        <pt x="10" y="0" on="1"/>
        <pt x="2" y="85" on="1"/>
        <pt x="143" y="105" on="1"/>
        <pt x="304" y="1248" on="1"/>
        <pt x="163" y="1268" on="1"/>
        <pt x="180" y="1353" on="1"/>
        <pt x="1123" y="1353" on="1"/>
        <pt x="1104" y="1053" on="1"/>
        <pt x="1018" y="1053" on="1"/>
        <pt x="978" y="1254" on="1"/>
        <pt x="495" y="1254" on="1"/>
        <pt x="425" y="757" on="1"/>
        <pt x="811" y="757" on="1"/>
        <pt x="851" y="894" on="1"/>
        <pt x="934" y="874" on="1"/>
        <pt x="882" y="519" on="1"/>
        <pt x="795" y="514" on="1"/>
        <pt x="795" y="658" on="1"/>
      </contour>
    </TTGlyph>
    <TTGlyph name="Eacute" xMin="2" yMin="0" xMax="1123" yMax="1784">
      <component glyphName="E" x="0" y="0" flags="0x204"/>
      <component glyphName="acute.case" x="510" y="0" flags="0x4"/>
    </TTGlyph>
    <TTGlyph name="Ebreve" xMin="2" yMin="0" xMax="1123" yMax="1759">
      <component glyphName="E" x="0" y="0" flags="0x204"/>
      <component glyphName="breve.case" x="463" y="0" flags="0x4"/>
    </TTGlyph>
    <TTGlyph name="Ecaron" xMin="2" yMin="0" xMax="1123" yMax="1794">
      <component glyphName="E" x="0" y="0" flags="0x204"/>
      <component glyphName="caron.case" x="445" y="0" flags="0x4"/>
    </TTGlyph>
    <TTGlyph name="Ecircumflex" xMin="2" yMin="0" xMax="1123" yMax="1794">
      <component glyphName="E" x="0" y="0" flags="0x204"/>
      <component glyphName="circumflex.case" x="454" y="0" flags="0x4"/>
    </TTGlyph>
    <TTGlyph name="Edieresis" xMin="2" yMin="0" xMax="1123" yMax="1701">
      <component glyphName="E" x="0" y="0" flags="0x204"/>
      <component glyphName="dieresis.case" x="431" y="0" flags="0x4"/>
    </TTGlyph>
    <TTGlyph name="Edotaccent" xMin="2" yMin="0" xMax="1123" yMax="1731">
      <component glyphName="E" x="0" y="0" flags="0x204"/>
      <component glyphName="dotaccent.case" x="474" y="0" flags="0x4"/>
    </TTGlyph>
    <TTGlyph name="Egrave" xMin="2" yMin="0" xMax="1123" yMax="1784">
      <component glyphName="E" x="0" y="0" flags="0x204"/>
      <component glyphName="grave.case" x="255" y="0" flags="0x4"/>
    </TTGlyph>
    <TTGlyph name="Emacron" xMin="2" yMin="0" xMax="1123" yMax="1660">
      <component glyphName="E" x="0" y="0" flags="0x204"/>
      <component glyphName="macron.case" x="449" y="0" flags="0x4"/>
    </TTGlyph>
    <TTGlyph name="Eng" xMin="4" yMin="-457" xMax="1546" yMax="1353">
      <contour>
        <pt x="1140" y="1353" on="1"/>
        <pt x="1538" y="1353" on="1"/>
        <pt x="1546" y="1268" on="1"/>
        <pt x="1405" y="1248" on="1"/>
        <pt x="1229" y="0" on="1"/>
        <pt x="1211" y="-132" on="0"/>
        <pt x="1143" y="-308" on="0"/>
        <pt x="1051" y="-413" on="0"/>
        <pt x="937" y="-457" on="0"/>
        <pt x="872" y="-457" on="1"/>
        <pt x="813" y="-457" on="0"/>
        <pt x="716" y="-437" on="0"/>
        <pt x="680" y="-424" on="1"/>
        <pt x="638" y="-409" on="0"/>
        <pt x="604" y="-390" on="1"/>
        <pt x="649" y="-279" on="1"/>
        <pt x="697" y="-299" on="0"/>
        <pt x="749" y="-315" on="1"/>
        <pt x="794" y="-329" on="0"/>
        <pt x="900" y="-350" on="0"/>
        <pt x="953" y="-350" on="1"/>
        <pt x="981" y="-324" on="0"/>
        <pt x="1006" y="-285" on="1"/>
        <pt x="1027" y="-252" on="0"/>
        <pt x="1068" y="-154" on="0"/>
        <pt x="1078" y="-86" on="1"/>
        <pt x="1090" y="0" on="1"/>
        <pt x="942" y="0" on="1"/>
        <pt x="458" y="1218" on="1"/>
        <pt x="442" y="1218" on="1"/>
        <pt x="285" y="105" on="1"/>
        <pt x="426" y="85" on="1"/>
        <pt x="409" y="0" on="1"/>
        <pt x="12" y="0" on="1"/>
        <pt x="4" y="85" on="1"/>
        <pt x="145" y="105" on="1"/>
        <pt x="306" y="1248" on="1"/>
        <pt x="165" y="1268" on="1"/>
        <pt x="182" y="1353" on="1"/>
        <pt x="608" y="1353" on="1"/>
        <pt x="1092" y="136" on="1"/>
        <pt x="1108" y="136" on="1"/>
        <pt x="1264" y="1248" on="1"/>
        <pt x="1123" y="1268" on="1"/>
      </contour>
    </TTGlyph>
    <TTGlyph name="Eogonek" xMin="2" yMin="-457" xMax="1123" yMax="1353">
      <contour>
        <pt x="411" y="658" on="1"/>
        <pt x="332" y="99" on="1"/>
        <pt x="843" y="99" on="1"/>
        <pt x="948" y="302" on="1"/>
        <pt x="1028" y="289" on="1"/>
        <pt x="962" y="0" on="1"/>
        <pt x="917" y="-28" on="0"/>
        <pt x="822" y="-99" on="0"/>
        <pt x="741" y="-180" on="0"/>
        <pt x="684" y="-268" on="0"/>
        <pt x="679" y="-313" on="1"/>
        <pt x="675" y="-347" on="0"/>
        <pt x="709" y="-377" on="0"/>
        <pt x="740" y="-377" on="1"/>
        <pt x="769" y="-377" on="0"/>
        <pt x="827" y="-352" on="0"/>
        <pt x="851" y="-337" on="1"/>
        <pt x="879" y="-319" on="0"/>
        <pt x="906" y="-297" on="1"/>
        <pt x="898" y="-370" on="1"/>
        <pt x="870" y="-395" on="0"/>
        <pt x="835" y="-414" on="1"/>
        <pt x="805" y="-431" on="0"/>
        <pt x="724" y="-457" on="0"/>
        <pt x="676" y="-457" on="1"/>
        <pt x="639" y="-457" on="0"/>
        <pt x="582" y="-443" on="0"/>
        <pt x="545" y="-410" on="0"/>
        <pt x="531" y="-356" on="0"/>
        <pt x="538" y="-315" on="1"/>
        <pt x="547" y="-264" on="0"/>
        <pt x="621" y="-154" on="0"/>
        <pt x="678" y="-100" on="1"/>
        <pt x="733" y="-48" on="0"/>
        <pt x="802" y="0" on="1"/>
        <pt x="10" y="0" on="1"/>
        <pt x="2" y="85" on="1"/>
        <pt x="143" y="105" on="1"/>
        <pt x="304" y="1248" on="1"/>
        <pt x="163" y="1268" on="1"/>
        <pt x="180" y="1353" on="1"/>
        <pt x="1123" y="1353" on="1"/>
        <pt x="1104" y="1053" on="1"/>
        <pt x="1018" y="1053" on="1"/>
        <pt x="978" y="1254" on="1"/>
        <pt x="495" y="1254" on="1"/>
        <pt x="425" y="757" on="1"/>
        <pt x="811" y="757" on="1"/>
        <pt x="851" y="894" on="1"/>
        <pt x="934" y="874" on="1"/>
        <pt x="882" y="519" on="1"/>
        <pt x="795" y="514" on="1"/>
        <pt x="795" y="658" on="1"/>
      </contour>
    </TTGlyph>
    <TTGlyph name="Eth" xMin="-3" yMin="0" xMax="1294" yMax="1353">
      <contour>
        <pt x="12" y="750" on="1"/>
        <pt x="240" y="750" on="1"/>
        <pt x="310" y="1248" on="1"/>
        <pt x="169" y="1268" on="1"/>
        <pt x="186" y="1353" on="1"/>
        <pt x="732" y="1353" on="1"/>
        <pt x="1032" y="1353" on="0"/>
        <pt x="1294" y="1047" on="0"/>
        <pt x="1253" y="742" on="1"/>
        <pt x="1241" y="654" on="1"/>
        <pt x="1197" y="344" on="0"/>
        <pt x="848" y="0" on="0"/>
        <pt x="581" y="0" on="1"/>
        <pt x="16" y="0" on="1"/>
        <pt x="8" y="85" on="1"/>
        <pt x="149" y="105" on="1"/>
        <pt x="224" y="640" on="1"/>
        <pt x="-3" y="640" on="1"/>
      </contour>
      <contour>
        <pt x="554" y="99" on="1"/>
        <pt x="628" y="99" on="0"/>
        <pt x="777" y="131" on="0"/>
        <pt x="838" y="158" on="1"/>
        <pt x="906" y="227" on="0"/>
        <pt x="1024" y="464" on="0"/>
        <pt x="1047" y="622" on="1"/>
        <pt x="1060" y="716" on="1"/>
        <pt x="1095" y="975" on="0"/>
        <pt x="898" y="1254" on="0"/>
        <pt x="674" y="1254" on="1"/>
        <pt x="501" y="1254" on="1"/>
        <pt x="430" y="750" on="1"/>
        <pt x="668" y="750" on="1"/>
        <pt x="653" y="640" on="1"/>
        <pt x="414" y="640" on="1"/>
        <pt x="338" y="99" on="1"/>
      </contour>
    </TTGlyph>
    <TTGlyph name="Euro" xMin="6" yMin="-22" xMax="1233" yMax="1375">
      <contour>
        <pt x="63" y="813" on="1"/>
        <pt x="209" y="813" on="1"/>
        <pt x="286" y="1091" on="0"/>
        <pt x="623" y="1375" on="0"/>
        <pt x="881" y="1375" on="1"/>
        <pt x="964" y="1375" on="0"/>
        <pt x="1095" y="1353" on="0"/>
        <pt x="1140" y="1339" on="1"/>
        <pt x="1193" y="1323" on="0"/>
        <pt x="1233" y="1304" on="1"/>
        <pt x="1192" y="1008" on="1"/>
        <pt x="1102" y="1008" on="1"/>
        <pt x="1085" y="1249" on="1"/>
        <pt x="1058" y="1256" on="0"/>
        <pt x="1021" y="1262" on="1"/>
        <pt x="989" y="1267" on="0"/>
        <pt x="897" y="1276" on="0"/>
        <pt x="836" y="1276" on="1"/>
        <pt x="767" y="1276" on="0"/>
        <pt x="656" y="1249" on="0"/>
        <pt x="616" y="1232" on="1"/>
        <pt x="569" y="1213" on="0"/>
        <pt x="534" y="1188" on="1"/>
        <pt x="508" y="1143" on="0"/>
        <pt x="482" y="1086" on="1"/>
        <pt x="460" y="1037" on="0"/>
        <pt x="411" y="899" on="0"/>
        <pt x="391" y="813" on="1"/>
        <pt x="993" y="813" on="1"/>
        <pt x="963" y="733" on="1"/>
        <pt x="375" y="733" on="1"/>
        <pt x="373" y="720" on="0"/>
        <pt x="370" y="696" on="0"/>
        <pt x="368" y="683" on="1"/>
        <pt x="364" y="653" on="1"/>
        <pt x="935" y="653" on="1"/>
        <pt x="905" y="573" on="1"/>
        <pt x="353" y="573" on="1"/>
        <pt x="350" y="550" on="1"/>
        <pt x="332" y="421" on="0"/>
        <pt x="378" y="240" on="0"/>
        <pt x="480" y="128" on="0"/>
        <pt x="626" y="77" on="0"/>
        <pt x="710" y="77" on="1"/>
        <pt x="785" y="77" on="0"/>
        <pt x="923" y="109" on="0"/>
        <pt x="977" y="129" on="1"/>
        <pt x="1039" y="152" on="0"/>
        <pt x="1094" y="181" on="1"/>
        <pt x="1079" y="105" on="1"/>
        <pt x="1019" y="69" on="0"/>
        <pt x="946" y="41" on="1"/>
        <pt x="883" y="17" on="0"/>
        <pt x="714" y="-22" on="0"/>
        <pt x="614" y="-22" on="1"/>
        <pt x="507" y="-22" on="0"/>
        <pt x="322" y="29" on="0"/>
        <pt x="192" y="153" on="0"/>
        <pt x="134" y="359" on="0"/>
        <pt x="155" y="515" on="1"/>
        <pt x="163" y="573" on="1"/>
        <pt x="6" y="573" on="1"/>
        <pt x="35" y="653" on="1"/>
        <pt x="174" y="653" on="1"/>
        <pt x="189" y="733" on="1"/>
        <pt x="33" y="733" on="1"/>
      </contour>
    </TTGlyph>
    <TTGlyph name="F" xMin="8" yMin="0" xMax="1059" yMax="1353">
      <contour>
        <pt x="186" y="1353" on="1"/>
        <pt x="1059" y="1353" on="1"/>
        <pt x="1040" y="1053" on="1"/>
        <pt x="954" y="1053" on="1"/>
        <pt x="914" y="1254" on="1"/>
        <pt x="501" y="1254" on="1"/>
        <pt x="431" y="757" on="1"/>
        <pt x="747" y="757" on="1"/>
        <pt x="787" y="894" on="1"/>
        <pt x="870" y="874" on="1"/>
        <pt x="818" y="519" on="1"/>
        <pt x="731" y="514" on="1"/>
        <pt x="731" y="658" on="1"/>
        <pt x="417" y="658" on="1"/>
        <pt x="339" y="105" on="1"/>
        <pt x="530" y="85" on="1"/>
        <pt x="513" y="0" on="1"/>
        <pt x="16" y="0" on="1"/>
        <pt x="8" y="85" on="1"/>
        <pt x="149" y="105" on="1"/>
        <pt x="310" y="1248" on="1"/>
        <pt x="169" y="1268" on="1"/>
      </contour>
    </TTGlyph>
    <TTGlyph name="G" xMin="35" yMin="-22" xMax="1207" yMax="1375">
      <contour>
        <pt x="752" y="646" on="1"/>
        <pt x="1199" y="646" on="1"/>
        <pt x="1207" y="561" on="1"/>
        <pt x="1066" y="541" on="1"/>
        <pt x="1005" y="105" on="1"/>
        <pt x="901" y="46" on="0"/>
        <pt x="660" y="-22" on="0"/>
        <pt x="548" y="-22" on="1"/>
        <pt x="285" y="-22" on="0"/>
        <pt x="35" y="248" on="0"/>
        <pt x="71" y="505" on="1"/>
        <pt x="84" y="594" on="1"/>
        <pt x="139" y="972" on="0"/>
        <pt x="509" y="1375" on="0"/>
        <pt x="806" y="1375" on="1"/>
        <pt x="906" y="1375" on="0"/>
        <pt x="1089" y="1346" on="0"/>
        <pt x="1161" y="1318" on="1"/>
        <pt x="1144" y="1048" on="1"/>
        <pt x="1056" y="1048" on="1"/>
        <pt x="1011" y="1249" on="1"/>
        <pt x="958" y="1262" on="0"/>
        <pt x="829" y="1276" on="0"/>
        <pt x="765" y="1276" on="1"/>
        <pt x="684" y="1276" on="0"/>
        <pt x="519" y="1228" on="0"/>
        <pt x="452" y="1188" on="1"/>
        <pt x="393" y="1090" on="0"/>
        <pt x="308" y="840" on="0"/>
        <pt x="286" y="683" on="1"/>
        <pt x="268" y="550" on="1"/>
        <pt x="239" y="323" on="0"/>
        <pt x="454" y="77" on="0"/>
        <pt x="616" y="77" on="1"/>
        <pt x="664" y="77" on="0"/>
        <pt x="768" y="96" on="0"/>
        <pt x="816" y="112" on="1"/>
        <pt x="876" y="541" on="1"/>
        <pt x="735" y="561" on="1"/>
      </contour>
    </TTGlyph>
    <TTGlyph name="Gacute" xMin="35" yMin="-22" xMax="1216" yMax="1784">
      <component glyphName="G" x="0" y="0" flags="0x204"/>
      <component glyphName="acute.case" x="620" y="0" flags="0x4"/>
    </TTGlyph>
    <TTGlyph name="Gbreve" xMin="35" yMin="-22" xMax="1207" yMax="1759">
      <component glyphName="G" x="0" y="0" flags="0x204"/>
      <component glyphName="breve.case" x="573" y="0" flags="0x4"/>
    </TTGlyph>
    <TTGlyph name="Gcaron" xMin="35" yMin="-22" xMax="1207" yMax="1794">
      <component glyphName="G" x="0" y="0" flags="0x204"/>
      <component glyphName="caron.case" x="555" y="0" flags="0x4"/>
    </TTGlyph>
    <TTGlyph name="Gcircumflex" xMin="35" yMin="-22" xMax="1207" yMax="1794">
      <component glyphName="G" x="0" y="0" flags="0x204"/>
      <component glyphName="circumflex.case" x="564" y="0" flags="0x4"/>
    </TTGlyph>
    <TTGlyph name="Gcommaaccent" xMin="35" yMin="-534" xMax="1207" yMax="1375">
      <component glyphName="G" x="0" y="0" flags="0x204"/>
      <component glyphName="uni0326" x="868" y="0" flags="0x4"/>
    </TTGlyph>
    <TTGlyph name="Gdotaccent" xMin="35" yMin="-22" xMax="1207" yMax="1731">
      <component glyphName="G" x="0" y="0" flags="0x204"/>
      <component glyphName="dotaccent.case" x="584" y="0" flags="0x4"/>
    </TTGlyph>
    <TTGlyph name="H" xMin="4" yMin="0" xMax="1451" yMax="1353">
      <contour>
        <pt x="182" y="1353" on="1"/>
        <pt x="629" y="1353" on="1"/>
        <pt x="637" y="1268" on="1"/>
        <pt x="496" y="1248" on="1"/>
        <pt x="428" y="768" on="1"/>
        <pt x="1052" y="768" on="1"/>
        <pt x="1120" y="1248" on="1"/>
        <pt x="979" y="1268" on="1"/>
        <pt x="996" y="1353" on="1"/>
        <pt x="1443" y="1353" on="1"/>
        <pt x="1451" y="1268" on="1"/>
        <pt x="1310" y="1248" on="1"/>
        <pt x="1149" y="105" on="1"/>
        <pt x="1290" y="85" on="1"/>
        <pt x="1273" y="0" on="1"/>
        <pt x="826" y="0" on="1"/>
        <pt x="818" y="85" on="1"/>
        <pt x="959" y="105" on="1"/>
        <pt x="1038" y="669" on="1"/>
        <pt x="414" y="669" on="1"/>
        <pt x="335" y="105" on="1"/>
        <pt x="476" y="85" on="1"/>
        <pt x="459" y="0" on="1"/>
        <pt x="12" y="0" on="1"/>
        <pt x="4" y="85" on="1"/>
        <pt x="145" y="105" on="1"/>
        <pt x="306" y="1248" on="1"/>
        <pt x="165" y="1268" on="1"/>
      </contour>
    </TTGlyph>
    <TTGlyph name="Hbar" xMin="4" yMin="0" xMax="1451" yMax="1353">
      <contour>
        <pt x="125" y="1084" on="1"/>
        <pt x="283" y="1084" on="1"/>
        <pt x="306" y="1248" on="1"/>
        <pt x="165" y="1268" on="1"/>
        <pt x="182" y="1353" on="1"/>
        <pt x="629" y="1353" on="1"/>
        <pt x="637" y="1268" on="1"/>
        <pt x="496" y="1248" on="1"/>
        <pt x="472" y="1084" on="1"/>
        <pt x="1096" y="1084" on="1"/>
        <pt x="1120" y="1248" on="1"/>
        <pt x="979" y="1268" on="1"/>
        <pt x="996" y="1353" on="1"/>
        <pt x="1443" y="1353" on="1"/>
        <pt x="1451" y="1268" on="1"/>
        <pt x="1310" y="1248" on="1"/>
        <pt x="1287" y="1084" on="1"/>
        <pt x="1433" y="1084" on="1"/>
        <pt x="1418" y="974" on="1"/>
        <pt x="1271" y="974" on="1"/>
        <pt x="1149" y="105" on="1"/>
        <pt x="1290" y="85" on="1"/>
        <pt x="1273" y="0" on="1"/>
        <pt x="826" y="0" on="1"/>
        <pt x="818" y="85" on="1"/>
        <pt x="959" y="105" on="1"/>
        <pt x="1038" y="669" on="1"/>
        <pt x="414" y="669" on="1"/>
        <pt x="335" y="105" on="1"/>
        <pt x="476" y="85" on="1"/>
        <pt x="459" y="0" on="1"/>
        <pt x="12" y="0" on="1"/>
        <pt x="4" y="85" on="1"/>
        <pt x="145" y="105" on="1"/>
        <pt x="267" y="974" on="1"/>
        <pt x="110" y="974" on="1"/>
      </contour>
      <contour>
        <pt x="1052" y="768" on="1"/>
        <pt x="1081" y="974" on="1"/>
        <pt x="457" y="974" on="1"/>
        <pt x="428" y="768" on="1"/>
      </contour>
    </TTGlyph>
    <TTGlyph name="Hcircumflex" xMin="4" yMin="0" xMax="1451" yMax="1794">
      <component glyphName="H" x="0" y="0" flags="0x204"/>
      <component glyphName="circumflex.case" x="602" y="0" flags="0x4"/>
    </TTGlyph>
    <TTGlyph name="I" xMin="4" yMin="0" xMax="637" yMax="1353">
      <contour>
        <pt x="306" y="1248" on="1"/>
        <pt x="165" y="1268" on="1"/>
        <pt x="182" y="1353" on="1"/>
        <pt x="629" y="1353" on="1"/>
        <pt x="637" y="1268" on="1"/>
        <pt x="496" y="1248" on="1"/>
        <pt x="335" y="105" on="1"/>
        <pt x="476" y="85" on="1"/>
        <pt x="459" y="0" on="1"/>
        <pt x="12" y="0" on="1"/>
        <pt x="4" y="85" on="1"/>
        <pt x="145" y="105" on="1"/>
      </contour>
    </TTGlyph>
    <TTGlyph name="IJ" xMin="4" yMin="-22" xMax="1541" yMax="1353">
      <component glyphName="I" x="0" y="0" flags="0x4"/>
      <component glyphName="J" x="637" y="0" flags="0x4"/>
    </TTGlyph>
    <TTGlyph name="Iacute" xMin="4" yMin="0" xMax="826" yMax="1784">
      <component glyphName="I" x="0" y="0" flags="0x204"/>
      <component glyphName="acute.case" x="230" y="0" flags="0x4"/>
    </TTGlyph>
    <TTGlyph name="Ibreve" xMin="4" yMin="0" xMax="810" yMax="1759">
      <component glyphName="I" x="0" y="0" flags="0x204"/>
      <component glyphName="breve.case" x="183" y="0" flags="0x4"/>
    </TTGlyph>
    <TTGlyph name="Icircumflex" xMin="4" yMin="0" xMax="762" yMax="1794">
      <component glyphName="I" x="0" y="0" flags="0x204"/>
      <component glyphName="circumflex.case" x="174" y="0" flags="0x4"/>
    </TTGlyph>
    <TTGlyph name="Idieresis" xMin="4" yMin="0" xMax="744" yMax="1701">
      <component glyphName="I" x="0" y="0" flags="0x204"/>
      <component glyphName="dieresis.case" x="151" y="0" flags="0x4"/>
    </TTGlyph>
    <TTGlyph name="Idotaccent" xMin="4" yMin="0" xMax="637" yMax="1731">
      <component glyphName="I" x="0" y="0" flags="0x204"/>
      <component glyphName="dotaccent.case" x="194" y="0" flags="0x4"/>
    </TTGlyph>
    <TTGlyph name="Igrave" xMin="4" yMin="0" xMax="637" yMax="1784">
      <component glyphName="I" x="0" y="0" flags="0x204"/>
      <component glyphName="grave.case" x="-24" y="0" flags="0x4"/>
    </TTGlyph>
    <TTGlyph name="Imacron" xMin="4" yMin="0" xMax="839" yMax="1660">
      <component glyphName="I" x="0" y="0" flags="0x204"/>
      <component glyphName="macron.case" x="169" y="0" flags="0x4"/>
    </TTGlyph>
    <TTGlyph name="Iogonek" xMin="-128" yMin="-457" xMax="637" yMax="1353">
      <contour>
        <pt x="306" y="1248" on="1"/>
        <pt x="165" y="1268" on="1"/>
        <pt x="182" y="1353" on="1"/>
        <pt x="629" y="1353" on="1"/>
        <pt x="637" y="1268" on="1"/>
        <pt x="496" y="1248" on="1"/>
        <pt x="335" y="105" on="1"/>
        <pt x="476" y="85" on="1"/>
        <pt x="459" y="0" on="1"/>
        <pt x="302" y="0" on="1"/>
        <pt x="257" y="-28" on="0"/>
        <pt x="162" y="-99" on="0"/>
        <pt x="81" y="-180" on="0"/>
        <pt x="24" y="-268" on="0"/>
        <pt x="19" y="-313" on="1"/>
        <pt x="15" y="-347" on="0"/>
        <pt x="49" y="-377" on="0"/>
        <pt x="80" y="-377" on="1"/>
        <pt x="109" y="-377" on="0"/>
        <pt x="167" y="-352" on="0"/>
        <pt x="191" y="-337" on="1"/>
        <pt x="219" y="-319" on="0"/>
        <pt x="246" y="-297" on="1"/>
        <pt x="238" y="-370" on="1"/>
        <pt x="210" y="-395" on="0"/>
        <pt x="175" y="-414" on="1"/>
        <pt x="145" y="-431" on="0"/>
        <pt x="64" y="-457" on="0"/>
        <pt x="16" y="-457" on="1"/>
        <pt x="-21" y="-457" on="0"/>
        <pt x="-78" y="-443" on="0"/>
        <pt x="-114" y="-410" on="0"/>
        <pt x="-128" y="-356" on="0"/>
        <pt x="-122" y="-315" on="1"/>
        <pt x="-113" y="-261" on="0"/>
        <pt x="-39" y="-152" on="0"/>
        <pt x="18" y="-99" on="1"/>
        <pt x="72" y="-48" on="0"/>
        <pt x="141" y="0" on="1"/>
        <pt x="12" y="0" on="1"/>
        <pt x="4" y="85" on="1"/>
        <pt x="145" y="105" on="1"/>
      </contour>
    </TTGlyph>
    <TTGlyph name="Itilde" xMin="4" yMin="0" xMax="854" yMax="1747">
      <component glyphName="I" x="0" y="0" flags="0x204"/>
      <component glyphName="tilde.case" x="166" y="0" flags="0x4"/>
    </TTGlyph>
    <TTGlyph name="J" xMin="36" yMin="-22" xMax="904" yMax="1353">
      <contour>
        <pt x="399" y="1353" on="1"/>
        <pt x="896" y="1353" on="1"/>
        <pt x="904" y="1268" on="1"/>
        <pt x="763" y="1248" on="1"/>
        <pt x="635" y="336" on="1"/>
        <pt x="611" y="162" on="0"/>
        <pt x="419" y="-22" on="0"/>
        <pt x="259" y="-22" on="1"/>
        <pt x="201" y="-22" on="0"/>
        <pt x="83" y="6" on="0"/>
        <pt x="36" y="31" on="1"/>
        <pt x="52" y="291" on="1"/>
        <pt x="138" y="291" on="1"/>
        <pt x="184" y="87" on="1"/>
        <pt x="200" y="83" on="0"/>
        <pt x="251" y="76" on="0"/>
        <pt x="276" y="76" on="1"/>
        <pt x="300" y="76" on="0"/>
        <pt x="353" y="86" on="0"/>
        <pt x="379" y="97" on="1"/>
        <pt x="399" y="139" on="0"/>
        <pt x="437" y="278" on="0"/>
        <pt x="450" y="369" on="1"/>
        <pt x="573" y="1248" on="1"/>
        <pt x="382" y="1268" on="1"/>
      </contour>
    </TTGlyph>
    <TTGlyph name="Jcircumflex" xMin="36" yMin="-22" xMax="1017" yMax="1794">
      <component glyphName="J" x="0" y="0" flags="0x204"/>
      <component glyphName="circumflex.case" x="429" y="0" flags="0x4"/>
    </TTGlyph>
    <TTGlyph name="K" xMin="4" yMin="0" xMax="1322" yMax="1353">
      <contour>
        <pt x="459" y="0" on="1"/>
        <pt x="12" y="0" on="1"/>
        <pt x="4" y="85" on="1"/>
        <pt x="145" y="105" on="1"/>
        <pt x="306" y="1248" on="1"/>
        <pt x="165" y="1268" on="1"/>
        <pt x="182" y="1353" on="1"/>
        <pt x="629" y="1353" on="1"/>
        <pt x="637" y="1268" on="1"/>
        <pt x="496" y="1248" on="1"/>
        <pt x="412" y="654" on="1"/>
        <pt x="425" y="648" on="1"/>
        <pt x="1052" y="1248" on="1"/>
        <pt x="943" y="1268" on="1"/>
        <pt x="960" y="1353" on="1"/>
        <pt x="1314" y="1353" on="1"/>
        <pt x="1322" y="1268" on="1"/>
        <pt x="1231" y="1248" on="1"/>
        <pt x="723" y="767" on="1"/>
        <pt x="1106" y="105" on="1"/>
        <pt x="1218" y="85" on="1"/>
        <pt x="1201" y="0" on="1"/>
        <pt x="953" y="0" on="1"/>
        <pt x="585" y="637" on="1"/>
        <pt x="383" y="446" on="1"/>
        <pt x="335" y="105" on="1"/>
        <pt x="476" y="85" on="1"/>
      </contour>
    </TTGlyph>
    <TTGlyph name="Kcommaaccent" xMin="4" yMin="-534" xMax="1322" yMax="1353">
      <component glyphName="K" x="0" y="0" flags="0x204"/>
      <component glyphName="uni0326" x="898" y="0" flags="0x4"/>
    </TTGlyph>
    <TTGlyph name="L" xMin="6" yMin="0" xMax="888" yMax="1353">
      <contour>
        <pt x="820" y="0" on="1"/>
        <pt x="14" y="0" on="1"/>
        <pt x="6" y="85" on="1"/>
        <pt x="147" y="105" on="1"/>
        <pt x="308" y="1248" on="1"/>
        <pt x="167" y="1268" on="1"/>
        <pt x="184" y="1353" on="1"/>
        <pt x="661" y="1353" on="1"/>
        <pt x="669" y="1268" on="1"/>
        <pt x="498" y="1248" on="1"/>
        <pt x="336" y="99" on="1"/>
        <pt x="697" y="99" on="1"/>
        <pt x="807" y="312" on="1"/>
        <pt x="888" y="300" on="1"/>
      </contour>
    </TTGlyph>
    <TTGlyph name="Lacute" xMin="6" yMin="0" xMax="888" yMax="1784">
      <component glyphName="L" x="0" y="0" flags="0x204"/>
      <component glyphName="acute.case" x="239" y="0" flags="0x4"/>
    </TTGlyph>
    <TTGlyph name="Lcaron" xMin="6" yMin="0" xMax="923" yMax="1540">
      <component glyphName="L" x="0" y="0" flags="0x204"/>
      <component glyphName="caron.alt" x="611" y="0" flags="0x4"/>
    </TTGlyph>
    <TTGlyph name="Lcommaaccent" xMin="6" yMin="-534" xMax="888" yMax="1353">
      <component glyphName="L" x="0" y="0" flags="0x204"/>
      <component glyphName="uni0326" x="714" y="0" flags="0x4"/>
    </TTGlyph>
    <TTGlyph name="Ldot" xMin="6" yMin="0" xMax="1001" yMax="1353">
      <component glyphName="L" x="0" y="0" flags="0x204"/>
      <component glyphName="periodcentered" x="537" y="0" flags="0x4"/>
    </TTGlyph>
    <TTGlyph name="Lslash" xMin="190" yMin="0" xMax="1099" yMax="1353">
      <contour>
        <pt x="1031" y="0" on="1"/>
        <pt x="225" y="0" on="1"/>
        <pt x="217" y="85" on="1"/>
        <pt x="358" y="105" on="1"/>
        <pt x="418" y="532" on="1"/>
        <pt x="190" y="410" on="1"/>
        <pt x="209" y="549" on="1"/>
        <pt x="437" y="671" on="1"/>
        <pt x="519" y="1248" on="1"/>
        <pt x="378" y="1268" on="1"/>
        <pt x="395" y="1353" on="1"/>
        <pt x="872" y="1353" on="1"/>
        <pt x="880" y="1268" on="1"/>
        <pt x="709" y="1248" on="1"/>
        <pt x="643" y="781" on="1"/>
        <pt x="997" y="971" on="1"/>
        <pt x="978" y="833" on="1"/>
        <pt x="623" y="643" on="1"/>
        <pt x="547" y="99" on="1"/>
        <pt x="908" y="99" on="1"/>
        <pt x="1018" y="312" on="1"/>
        <pt x="1099" y="300" on="1"/>
      </contour>
    </TTGlyph>
    <TTGlyph name="M" xMin="4" yMin="0" xMax="1868" yMax="1353">
      <contour>
        <pt x="409" y="0" on="1"/>
        <pt x="12" y="0" on="1"/>
        <pt x="4" y="85" on="1"/>
        <pt x="145" y="105" on="1"/>
        <pt x="306" y="1248" on="1"/>
        <pt x="165" y="1268" on="1"/>
        <pt x="182" y="1353" on="1"/>
        <pt x="611" y="1353" on="1"/>
        <pt x="880" y="311" on="1"/>
        <pt x="896" y="311" on="1"/>
        <pt x="1441" y="1353" on="1"/>
        <pt x="1860" y="1353" on="1"/>
        <pt x="1868" y="1268" on="1"/>
        <pt x="1727" y="1248" on="1"/>
        <pt x="1566" y="105" on="1"/>
        <pt x="1707" y="85" on="1"/>
        <pt x="1690" y="0" on="1"/>
        <pt x="1243" y="0" on="1"/>
        <pt x="1235" y="85" on="1"/>
        <pt x="1376" y="105" on="1"/>
        <pt x="1530" y="1200" on="1"/>
        <pt x="1514" y="1200" on="1"/>
        <pt x="877" y="0" on="1"/>
        <pt x="772" y="0" on="1"/>
        <pt x="455" y="1200" on="1"/>
        <pt x="439" y="1200" on="1"/>
        <pt x="285" y="105" on="1"/>
        <pt x="426" y="85" on="1"/>
      </contour>
    </TTGlyph>
    <TTGlyph name="N" xMin="4" yMin="0" xMax="1546" yMax="1353">
      <contour>
        <pt x="1140" y="1353" on="1"/>
        <pt x="1538" y="1353" on="1"/>
        <pt x="1546" y="1268" on="1"/>
        <pt x="1405" y="1248" on="1"/>
        <pt x="1229" y="0" on="1"/>
        <pt x="942" y="0" on="1"/>
        <pt x="458" y="1218" on="1"/>
        <pt x="442" y="1218" on="1"/>
        <pt x="285" y="105" on="1"/>
        <pt x="426" y="85" on="1"/>
        <pt x="409" y="0" on="1"/>
        <pt x="12" y="0" on="1"/>
        <pt x="4" y="85" on="1"/>
        <pt x="145" y="105" on="1"/>
        <pt x="306" y="1248" on="1"/>
        <pt x="165" y="1268" on="1"/>
        <pt x="182" y="1353" on="1"/>
        <pt x="608" y="1353" on="1"/>
        <pt x="1092" y="136" on="1"/>
        <pt x="1108" y="136" on="1"/>
        <pt x="1264" y="1248" on="1"/>
        <pt x="1123" y="1268" on="1"/>
      </contour>
    </TTGlyph>
    <TTGlyph name="Nacute" xMin="4" yMin="0" xMax="1546" yMax="1784">
      <component glyphName="N" x="0" y="0" flags="0x204"/>
      <component glyphName="acute.case" x="708" y="0" flags="0x4"/>
    </TTGlyph>
    <TTGlyph name="Ncaron" xMin="4" yMin="0" xMax="1546" yMax="1794">
      <component glyphName="N" x="0" y="0" flags="0x204"/>
      <component glyphName="caron.case" x="643" y="0" flags="0x4"/>
    </TTGlyph>
    <TTGlyph name="Ncommaaccent" xMin="4" yMin="-534" xMax="1546" yMax="1353">
      <component glyphName="N" x="0" y="0" flags="0x204"/>
      <component glyphName="uni0326" x="950" y="0" flags="0x4"/>
    </TTGlyph>
    <TTGlyph name="Ntilde" xMin="4" yMin="0" xMax="1546" yMax="1747">
      <component glyphName="N" x="0" y="0" flags="0x204"/>
      <component glyphName="tilde.case" x="644" y="0" flags="0x4"/>
    </TTGlyph>
    <TTGlyph name="O" xMin="43" yMin="-22" xMax="1303" yMax="1375">
      <contour>
        <pt x="564" y="-22" on="1"/>
        <pt x="285" y="-22" on="0"/>
        <pt x="43" y="253" on="0"/>
        <pt x="80" y="525" on="1"/>
        <pt x="91" y="604" on="1"/>
        <pt x="146" y="992" on="0"/>
        <pt x="494" y="1375" on="0"/>
        <pt x="781" y="1375" on="1"/>
        <pt x="1057" y="1375" on="0"/>
        <pt x="1303" y="1101" on="0"/>
        <pt x="1264" y="827" on="1"/>
        <pt x="1253" y="749" on="1"/>
        <pt x="1200" y="371" on="0"/>
        <pt x="855" y="-22" on="0"/>
      </contour>
      <contour>
        <pt x="1067" y="783" on="1"/>
        <pt x="1100" y="1025" on="0"/>
        <pt x="932" y="1276" on="0"/>
        <pt x="733" y="1276" on="1"/>
        <pt x="660" y="1276" on="0"/>
        <pt x="510" y="1229" on="0"/>
        <pt x="448" y="1188" on="1"/>
        <pt x="392" y="1080" on="0"/>
        <pt x="312" y="826" on="0"/>
        <pt x="295" y="703" on="1"/>
        <pt x="277" y="570" on="1"/>
        <pt x="245" y="336" on="0"/>
        <pt x="435" y="77" on="0"/>
        <pt x="612" y="77" on="1"/>
        <pt x="688" y="77" on="0"/>
        <pt x="838" y="125" on="0"/>
        <pt x="897" y="166" on="1"/>
        <pt x="950" y="267" on="0"/>
        <pt x="1031" y="522" on="0"/>
        <pt x="1049" y="650" on="1"/>
      </contour>
    </TTGlyph>
    <TTGlyph name="OE" xMin="42" yMin="-22" xMax="1732" yMax="1375">
      <contour>
        <pt x="1420" y="757" on="1"/>
        <pt x="1460" y="894" on="1"/>
        <pt x="1543" y="874" on="1"/>
        <pt x="1491" y="519" on="1"/>
        <pt x="1404" y="514" on="1"/>
        <pt x="1404" y="658" on="1"/>
        <pt x="1070" y="658" on="1"/>
        <pt x="991" y="99" on="1"/>
        <pt x="1452" y="99" on="1"/>
        <pt x="1557" y="302" on="1"/>
        <pt x="1637" y="289" on="1"/>
        <pt x="1571" y="0" on="1"/>
        <pt x="787" y="0" on="1"/>
        <pt x="757" y="-5" on="0"/>
        <pt x="638" y="-22" on="0"/>
        <pt x="564" y="-22" on="1"/>
        <pt x="283" y="-22" on="0"/>
        <pt x="42" y="251" on="0"/>
        <pt x="80" y="525" on="1"/>
        <pt x="91" y="604" on="1"/>
        <pt x="117" y="792" on="0"/>
        <pt x="229" y="1080" on="0"/>
        <pt x="400" y="1275" on="0"/>
        <pt x="633" y="1375" on="0"/>
        <pt x="781" y="1375" on="1"/>
        <pt x="894" y="1375" on="0"/>
        <pt x="978" y="1353" on="1"/>
        <pt x="1732" y="1353" on="1"/>
        <pt x="1713" y="1053" on="1"/>
        <pt x="1627" y="1053" on="1"/>
        <pt x="1587" y="1254" on="1"/>
        <pt x="1154" y="1254" on="1"/>
        <pt x="1084" y="757" on="1"/>
      </contour>
      <contour>
        <pt x="733" y="1276" on="1"/>
        <pt x="671" y="1276" on="0"/>
        <pt x="567" y="1249" on="0"/>
        <pt x="529" y="1232" on="1"/>
        <pt x="484" y="1213" on="0"/>
        <pt x="448" y="1188" on="1"/>
        <pt x="415" y="1127" on="0"/>
        <pt x="386" y="1051" on="1"/>
        <pt x="360" y="986" on="0"/>
        <pt x="309" y="809" on="0"/>
        <pt x="295" y="703" on="1"/>
        <pt x="277" y="570" on="1"/>
        <pt x="260" y="442" on="0"/>
        <pt x="300" y="256" on="0"/>
        <pt x="395" y="135" on="0"/>
        <pt x="532" y="77" on="0"/>
        <pt x="612" y="77" on="1"/>
        <pt x="675" y="77" on="0"/>
        <pt x="766" y="101" on="0"/>
        <pt x="804" y="119" on="1"/>
        <pt x="958" y="1212" on="1"/>
        <pt x="913" y="1246" on="0"/>
        <pt x="798" y="1276" on="0"/>
      </contour>
    </TTGlyph>
    <TTGlyph name="Oacute" xMin="43" yMin="-22" xMax="1303" yMax="1784">
      <component glyphName="O" x="0" y="0" flags="0x204"/>
      <component glyphName="acute.case" x="629" y="0" flags="0x4"/>
    </TTGlyph>
    <TTGlyph name="Obreve" xMin="43" yMin="-22" xMax="1303" yMax="1759">
      <component glyphName="O" x="0" y="0" flags="0x204"/>
      <component glyphName="breve.case" x="582" y="0" flags="0x4"/>
    </TTGlyph>
    <TTGlyph name="Ocircumflex" xMin="43" yMin="-22" xMax="1303" yMax="1794">
      <component glyphName="O" x="0" y="0" flags="0x204"/>
      <component glyphName="circumflex.case" x="573" y="0" flags="0x4"/>
    </TTGlyph>
    <TTGlyph name="Odieresis" xMin="43" yMin="-22" xMax="1303" yMax="1701">
      <component glyphName="O" x="0" y="0" flags="0x204"/>
      <component glyphName="dieresis.case" x="550" y="0" flags="0x4"/>
    </TTGlyph>
    <TTGlyph name="Ograve" xMin="43" yMin="-22" xMax="1303" yMax="1784">
      <component glyphName="O" x="0" y="0" flags="0x204"/>
      <component glyphName="grave.case" x="374" y="0" flags="0x4"/>
    </TTGlyph>
    <TTGlyph name="Ohorn" xMin="23" yMin="-22" xMax="1564" yMax="1589">
      <contour>
        <pt x="1501" y="1589" on="1"/>
        <pt x="1541" y="1529" on="0"/>
        <pt x="1564" y="1421" on="0"/>
        <pt x="1558" y="1376" on="1"/>
        <pt x="1550" y="1317" on="0"/>
        <pt x="1494" y="1220" on="0"/>
        <pt x="1385" y="1133" on="0"/>
        <pt x="1298" y="1093" on="1"/>
        <pt x="1272" y="1081" on="0"/>
        <pt x="1242" y="1069" on="1"/>
        <pt x="1263" y="965" on="0"/>
        <pt x="1244" y="827" on="1"/>
        <pt x="1233" y="749" on="1"/>
        <pt x="1180" y="371" on="0"/>
        <pt x="835" y="-22" on="0"/>
        <pt x="544" y="-22" on="1"/>
        <pt x="265" y="-22" on="0"/>
        <pt x="23" y="253" on="0"/>
        <pt x="60" y="525" on="1"/>
        <pt x="71" y="604" on="1"/>
        <pt x="126" y="992" on="0"/>
        <pt x="474" y="1375" on="0"/>
        <pt x="761" y="1375" on="1"/>
        <pt x="1037" y="1375" on="0"/>
        <pt x="1160" y="1238" on="1"/>
        <pt x="1190" y="1204" on="0"/>
        <pt x="1210" y="1163" on="1"/>
        <pt x="1220" y="1167" on="0"/>
        <pt x="1229" y="1172" on="1"/>
        <pt x="1281" y="1197" on="0"/>
        <pt x="1346" y="1248" on="0"/>
        <pt x="1378" y="1304" on="0"/>
        <pt x="1383" y="1340" on="1"/>
        <pt x="1388" y="1375" on="0"/>
        <pt x="1376" y="1435" on="0"/>
        <pt x="1366" y="1457" on="1"/>
        <pt x="1355" y="1483" on="0"/>
        <pt x="1339" y="1502" on="1"/>
        <pt x="1343" y="1532" on="1"/>
      </contour>
      <contour>
        <pt x="1047" y="783" on="1"/>
        <pt x="1080" y="1025" on="0"/>
        <pt x="912" y="1276" on="0"/>
        <pt x="713" y="1276" on="1"/>
        <pt x="640" y="1276" on="0"/>
        <pt x="490" y="1229" on="0"/>
        <pt x="428" y="1188" on="1"/>
        <pt x="372" y="1080" on="0"/>
        <pt x="292" y="826" on="0"/>
        <pt x="275" y="703" on="1"/>
        <pt x="257" y="570" on="1"/>
        <pt x="225" y="336" on="0"/>
        <pt x="415" y="77" on="0"/>
        <pt x="592" y="77" on="1"/>
        <pt x="668" y="77" on="0"/>
        <pt x="818" y="125" on="0"/>
        <pt x="877" y="166" on="1"/>
        <pt x="930" y="267" on="0"/>
        <pt x="1011" y="522" on="0"/>
        <pt x="1029" y="650" on="1"/>
      </contour>
    </TTGlyph>
    <TTGlyph name="Ohungarumlaut" xMin="43" yMin="-22" xMax="1493" yMax="1784">
      <component glyphName="O" x="0" y="0" flags="0x204"/>
      <component glyphName="hungarumlaut.case" x="729" y="0" flags="0x4"/>
    </TTGlyph>
    <TTGlyph name="Omacron" xMin="43" yMin="-22" xMax="1303" yMax="1660">
      <component glyphName="O" x="0" y="0" flags="0x204"/>
      <component glyphName="macron.case" x="568" y="0" flags="0x4"/>
    </TTGlyph>
    <TTGlyph name="Oslash" xMin="23" yMin="-188" xMax="1292" yMax="1540">
      <contour>
        <pt x="564" y="-22" on="1"/>
        <pt x="531" y="-22" on="0"/>
        <pt x="470" y="-18" on="0"/>
        <pt x="441" y="-14" on="1"/>
        <pt x="363" y="-188" on="1"/>
        <pt x="229" y="-188" on="1"/>
        <pt x="231" y="-168" on="1"/>
        <pt x="314" y="16" on="1"/>
        <pt x="23" y="123" on="0"/>
        <pt x="80" y="525" on="1"/>
        <pt x="91" y="604" on="1"/>
        <pt x="117" y="792" on="0"/>
        <pt x="229" y="1080" on="0"/>
        <pt x="400" y="1275" on="0"/>
        <pt x="633" y="1375" on="0"/>
        <pt x="781" y="1375" on="1"/>
        <pt x="819" y="1375" on="0"/>
        <pt x="891" y="1369" on="0"/>
        <pt x="923" y="1364" on="1"/>
        <pt x="1003" y="1540" on="1"/>
        <pt x="1138" y="1540" on="1"/>
        <pt x="1136" y="1520" on="1"/>
        <pt x="1049" y="1329" on="1"/>
        <pt x="1183" y="1272" on="0"/>
        <pt x="1292" y="1023" on="0"/>
        <pt x="1264" y="827" on="1"/>
        <pt x="1253" y="749" on="1"/>
        <pt x="1200" y="372" on="0"/>
        <pt x="856" y="-22" on="0"/>
      </contour>
      <contour>
        <pt x="277" y="570" on="1"/>
        <pt x="257" y="421" on="0"/>
        <pt x="316" y="219" on="0"/>
        <pt x="379" y="160" on="1"/>
        <pt x="874" y="1255" on="1"/>
        <pt x="842" y="1266" on="0"/>
        <pt x="771" y="1276" on="0"/>
        <pt x="733" y="1276" on="1"/>
        <pt x="671" y="1276" on="0"/>
        <pt x="567" y="1249" on="0"/>
        <pt x="529" y="1232" on="1"/>
        <pt x="484" y="1213" on="0"/>
        <pt x="448" y="1188" on="1"/>
        <pt x="415" y="1127" on="0"/>
        <pt x="386" y="1051" on="1"/>
        <pt x="360" y="986" on="0"/>
        <pt x="309" y="809" on="0"/>
        <pt x="295" y="703" on="1"/>
      </contour>
      <contour>
        <pt x="1067" y="783" on="1"/>
        <pt x="1087" y="936" on="0"/>
        <pt x="1040" y="1131" on="0"/>
        <pt x="985" y="1187" on="1"/>
        <pt x="491" y="95" on="1"/>
        <pt x="548" y="77" on="0"/>
        <pt x="612" y="77" on="1"/>
        <pt x="674" y="77" on="0"/>
        <pt x="778" y="104" on="0"/>
        <pt x="816" y="121" on="1"/>
        <pt x="861" y="140" on="0"/>
        <pt x="897" y="166" on="1"/>
        <pt x="930" y="229" on="0"/>
        <pt x="959" y="306" on="1"/>
        <pt x="984" y="372" on="0"/>
        <pt x="1035" y="547" on="0"/>
        <pt x="1049" y="650" on="1"/>
      </contour>
    </TTGlyph>
    <TTGlyph name="Oslashacute" xMin="23" yMin="-188" xMax="1292" yMax="1784">
      <component glyphName="Oslash" x="0" y="0" flags="0x204"/>
      <component glyphName="acute.case" x="651" y="0" flags="0x4"/>
    </TTGlyph>
    <TTGlyph name="Otilde" xMin="43" yMin="-22" xMax="1303" yMax="1747">
      <component glyphName="O" x="0" y="0" flags="0x204"/>
      <component glyphName="tilde.case" x="565" y="0" flags="0x4"/>
    </TTGlyph>
    <TTGlyph name="P" xMin="8" yMin="0" xMax="1126" yMax="1353">
      <contour>
        <pt x="513" y="0" on="1"/>
        <pt x="16" y="0" on="1"/>
        <pt x="8" y="85" on="1"/>
        <pt x="149" y="105" on="1"/>
        <pt x="310" y="1248" on="1"/>
        <pt x="169" y="1268" on="1"/>
        <pt x="186" y="1353" on="1"/>
        <pt x="693" y="1353" on="1"/>
        <pt x="918" y="1353" on="0"/>
        <pt x="1126" y="1185" on="0"/>
        <pt x="1101" y="1008" on="1"/>
        <pt x="1075" y="829" on="0"/>
        <pt x="809" y="616" on="0"/>
        <pt x="623" y="616" on="1"/>
        <pt x="411" y="616" on="1"/>
        <pt x="339" y="105" on="1"/>
        <pt x="530" y="85" on="1"/>
      </contour>
      <contour>
        <pt x="587" y="715" on="1"/>
        <pt x="652" y="715" on="0"/>
        <pt x="778" y="734" on="0"/>
        <pt x="832" y="753" on="1"/>
        <pt x="852" y="792" on="0"/>
        <pt x="892" y="907" on="0"/>
        <pt x="901" y="968" on="1"/>
        <pt x="921" y="1110" on="0"/>
        <pt x="785" y="1254" on="0"/>
        <pt x="626" y="1254" on="1"/>
        <pt x="501" y="1254" on="1"/>
        <pt x="425" y="715" on="1"/>
      </contour>
    </TTGlyph>
    <TTGlyph name="Q" xMin="40" yMin="-194" xMax="1301" yMax="1375">
      <contour>
        <pt x="562" y="-22" on="1"/>
        <pt x="282" y="-22" on="0"/>
        <pt x="40" y="254" on="0"/>
        <pt x="78" y="525" on="1"/>
        <pt x="89" y="604" on="1"/>
        <pt x="142" y="981" on="0"/>
        <pt x="491" y="1375" on="0"/>
        <pt x="779" y="1375" on="1"/>
        <pt x="1055" y="1375" on="0"/>
        <pt x="1301" y="1101" on="0"/>
        <pt x="1262" y="827" on="1"/>
        <pt x="1251" y="749" on="1"/>
        <pt x="1219" y="524" on="0"/>
        <pt x="1071" y="204" on="0"/>
        <pt x="955" y="109" on="1"/>
        <pt x="956" y="108" on="1"/>
        <pt x="991" y="3" on="0"/>
        <pt x="1049" y="-95" on="0"/>
        <pt x="1099" y="-95" on="1"/>
        <pt x="1134" y="-95" on="0"/>
        <pt x="1205" y="-82" on="0"/>
        <pt x="1237" y="-70" on="1"/>
        <pt x="1223" y="-140" on="1"/>
        <pt x="1185" y="-164" on="0"/>
        <pt x="1088" y="-194" on="0"/>
        <pt x="1039" y="-194" on="1"/>
        <pt x="947" y="-194" on="0"/>
        <pt x="835" y="-113" on="0"/>
        <pt x="799" y="-11" on="1"/>
        <pt x="790" y="16" on="1"/>
        <pt x="685" y="-22" on="0"/>
      </contour>
      <contour>
        <pt x="1066" y="783" on="1"/>
        <pt x="1101" y="1035" on="0"/>
        <pt x="924" y="1276" on="0"/>
        <pt x="731" y="1276" on="1"/>
        <pt x="655" y="1276" on="0"/>
        <pt x="500" y="1229" on="0"/>
        <pt x="436" y="1188" on="1"/>
        <pt x="390" y="1092" on="0"/>
        <pt x="312" y="838" on="0"/>
        <pt x="293" y="703" on="1"/>
        <pt x="275" y="570" on="1"/>
        <pt x="271" y="542" on="0"/>
        <pt x="267" y="493" on="0"/>
        <pt x="267" y="474" on="1"/>
        <pt x="311" y="534" on="0"/>
        <pt x="441" y="595" on="0"/>
        <pt x="522" y="595" on="1"/>
        <pt x="682" y="595" on="0"/>
        <pt x="838" y="454" on="0"/>
        <pt x="881" y="323" on="1"/>
        <pt x="922" y="204" on="1"/>
        <pt x="958" y="286" on="0"/>
        <pt x="1030" y="531" on="0"/>
        <pt x="1047" y="650" on="1"/>
      </contour>
      <contour>
        <pt x="718" y="223" on="1"/>
        <pt x="673" y="359" on="0"/>
        <pt x="568" y="496" on="0"/>
        <pt x="467" y="496" on="1"/>
        <pt x="391" y="496" on="0"/>
        <pt x="297" y="420" on="0"/>
        <pt x="289" y="360" on="1"/>
        <pt x="285" y="334" on="0"/>
        <pt x="292" y="295" on="0"/>
        <pt x="299" y="276" on="1"/>
        <pt x="339" y="178" on="0"/>
        <pt x="507" y="77" on="0"/>
        <pt x="611" y="77" on="1"/>
        <pt x="654" y="77" on="0"/>
        <pt x="728" y="89" on="0"/>
        <pt x="761" y="99" on="1"/>
      </contour>
    </TTGlyph>
    <TTGlyph name="R" xMin="8" yMin="0" xMax="1123" yMax="1353">
      <contour>
        <pt x="463" y="0" on="1"/>
        <pt x="16" y="0" on="1"/>
        <pt x="8" y="85" on="1"/>
        <pt x="149" y="105" on="1"/>
        <pt x="310" y="1248" on="1"/>
        <pt x="169" y="1268" on="1"/>
        <pt x="186" y="1353" on="1"/>
        <pt x="684" y="1353" on="1"/>
        <pt x="888" y="1353" on="0"/>
        <pt x="1086" y="1177" on="0"/>
        <pt x="1062" y="1003" on="1"/>
        <pt x="1044" y="878" on="0"/>
        <pt x="897" y="690" on="0"/>
        <pt x="792" y="647" on="1"/>
        <pt x="784" y="628" on="1"/>
        <pt x="1001" y="105" on="1"/>
        <pt x="1123" y="85" on="1"/>
        <pt x="1106" y="0" on="1"/>
        <pt x="847" y="0" on="1"/>
        <pt x="592" y="616" on="1"/>
        <pt x="411" y="616" on="1"/>
        <pt x="339" y="105" on="1"/>
        <pt x="480" y="85" on="1"/>
      </contour>
      <contour>
        <pt x="550" y="715" on="1"/>
        <pt x="617" y="715" on="0"/>
        <pt x="750" y="742" on="0"/>
        <pt x="797" y="764" on="1"/>
        <pt x="821" y="806" on="0"/>
        <pt x="857" y="916" on="0"/>
        <pt x="864" y="969" on="1"/>
        <pt x="884" y="1115" on="0"/>
        <pt x="762" y="1254" on="0"/>
        <pt x="597" y="1254" on="1"/>
        <pt x="501" y="1254" on="1"/>
        <pt x="425" y="715" on="1"/>
      </contour>
    </TTGlyph>
    <TTGlyph name="Racute" xMin="8" yMin="0" xMax="1123" yMax="1784">
      <component glyphName="R" x="0" y="0" flags="0x204"/>
      <component glyphName="acute.case" x="437" y="0" flags="0x4"/>
    </TTGlyph>
    <TTGlyph name="Rcaron" xMin="8" yMin="0" xMax="1123" yMax="1794">
      <component glyphName="R" x="0" y="0" flags="0x204"/>
      <component glyphName="caron.case" x="372" y="0" flags="0x4"/>
    </TTGlyph>
    <TTGlyph name="Rcommaaccent" xMin="8" yMin="-534" xMax="1123" yMax="1353">
      <component glyphName="R" x="0" y="0" flags="0x204"/>
      <component glyphName="uni0326" x="841" y="0" flags="0x4"/>
    </TTGlyph>
    <TTGlyph name="S" xMin="32" yMin="-22" xMax="995" yMax="1375">
      <contour>
        <pt x="623" y="762" on="1"/>
        <pt x="796" y="650" on="0"/>
        <pt x="943" y="467" on="0"/>
        <pt x="925" y="345" on="1"/>
        <pt x="902" y="180" on="0"/>
        <pt x="617" y="-22" on="0"/>
        <pt x="401" y="-22" on="1"/>
        <pt x="292" y="-22" on="0"/>
        <pt x="98" y="11" on="0"/>
        <pt x="32" y="41" on="1"/>
        <pt x="48" y="300" on="1"/>
        <pt x="148" y="300" on="1"/>
        <pt x="193" y="101" on="1"/>
        <pt x="238" y="89" on="0"/>
        <pt x="344" y="77" on="0"/>
        <pt x="404" y="77" on="1"/>
        <pt x="472" y="77" on="0"/>
        <pt x="605" y="98" on="0"/>
        <pt x="657" y="115" on="1"/>
        <pt x="677" y="143" on="0"/>
        <pt x="718" y="237" on="0"/>
        <pt x="725" y="281" on="1"/>
        <pt x="738" y="364" on="0"/>
        <pt x="638" y="512" on="0"/>
        <pt x="461" y="628" on="1"/>
        <pt x="254" y="760" on="0"/>
        <pt x="136" y="923" on="0"/>
        <pt x="151" y="1034" on="1"/>
        <pt x="173" y="1189" on="0"/>
        <pt x="453" y="1375" on="0"/>
        <pt x="671" y="1375" on="1"/>
        <pt x="764" y="1375" on="0"/>
        <pt x="937" y="1347" on="0"/>
        <pt x="995" y="1323" on="1"/>
        <pt x="978" y="1053" on="1"/>
        <pt x="890" y="1053" on="1"/>
        <pt x="845" y="1254" on="1"/>
        <pt x="809" y="1263" on="0"/>
        <pt x="701" y="1276" on="0"/>
        <pt x="647" y="1276" on="1"/>
        <pt x="582" y="1276" on="0"/>
        <pt x="454" y="1255" on="0"/>
        <pt x="404" y="1238" on="1"/>
        <pt x="381" y="1198" on="0"/>
        <pt x="354" y="1123" on="0"/>
        <pt x="348" y="1086" on="1"/>
        <pt x="337" y="1010" on="0"/>
        <pt x="444" y="879" on="0"/>
      </contour>
    </TTGlyph>
    <TTGlyph name="Sacute" xMin="32" yMin="-22" xMax="1077" yMax="1784">
      <component glyphName="S" x="0" y="0" flags="0x204"/>
      <component glyphName="acute.case" x="481" y="0" flags="0x4"/>
    </TTGlyph>
    <TTGlyph name="Scaron" xMin="32" yMin="-22" xMax="1064" yMax="1794">
      <component glyphName="S" x="0" y="0" flags="0x204"/>
      <component glyphName="caron.case" x="416" y="0" flags="0x4"/>
    </TTGlyph>
    <TTGlyph name="Scedilla" xMin="32" yMin="-457" xMax="995" yMax="1375">
      <contour>
        <pt x="623" y="762" on="1"/>
        <pt x="796" y="650" on="0"/>
        <pt x="943" y="467" on="0"/>
        <pt x="925" y="345" on="1"/>
        <pt x="902" y="180" on="0"/>
        <pt x="759" y="79" on="1"/>
        <pt x="650" y="1" on="0"/>
        <pt x="498" y="-16" on="1"/>
        <pt x="457" y="-98" on="1"/>
        <pt x="497" y="-109" on="0"/>
        <pt x="564" y="-137" on="0"/>
        <pt x="609" y="-179" on="0"/>
        <pt x="629" y="-239" on="0"/>
        <pt x="623" y="-281" on="1"/>
        <pt x="618" y="-319" on="0"/>
        <pt x="579" y="-383" on="0"/>
        <pt x="514" y="-430" on="0"/>
        <pt x="426" y="-457" on="0"/>
        <pt x="371" y="-457" on="1"/>
        <pt x="331" y="-457" on="0"/>
        <pt x="265" y="-443" on="0"/>
        <pt x="240" y="-434" on="1"/>
        <pt x="211" y="-423" on="0"/>
        <pt x="187" y="-410" on="1"/>
        <pt x="210" y="-347" on="1"/>
        <pt x="235" y="-358" on="0"/>
        <pt x="262" y="-367" on="1"/>
        <pt x="285" y="-375" on="0"/>
        <pt x="344" y="-387" on="0"/>
        <pt x="375" y="-387" on="1"/>
        <pt x="395" y="-387" on="0"/>
        <pt x="427" y="-383" on="0"/>
        <pt x="438" y="-381" on="1"/>
        <pt x="450" y="-378" on="0"/>
        <pt x="460" y="-374" on="1"/>
        <pt x="465" y="-362" on="0"/>
        <pt x="469" y="-348" on="1"/>
        <pt x="473" y="-336" on="0"/>
        <pt x="480" y="-306" on="0"/>
        <pt x="482" y="-289" on="1"/>
        <pt x="487" y="-235" on="0"/>
        <pt x="426" y="-173" on="0"/>
        <pt x="357" y="-153" on="1"/>
        <pt x="321" y="-101" on="1"/>
        <pt x="362" y="-21" on="1"/>
        <pt x="275" y="-19" on="0"/>
        <pt x="195" y="-5" on="1"/>
        <pt x="98" y="11" on="0"/>
        <pt x="32" y="41" on="1"/>
        <pt x="48" y="300" on="1"/>
        <pt x="148" y="300" on="1"/>
        <pt x="193" y="101" on="1"/>
        <pt x="238" y="89" on="0"/>
        <pt x="344" y="77" on="0"/>
        <pt x="404" y="77" on="1"/>
        <pt x="472" y="77" on="0"/>
        <pt x="605" y="98" on="0"/>
        <pt x="657" y="115" on="1"/>
        <pt x="677" y="143" on="0"/>
        <pt x="718" y="237" on="0"/>
        <pt x="725" y="281" on="1"/>
        <pt x="738" y="364" on="0"/>
        <pt x="638" y="512" on="0"/>
        <pt x="461" y="628" on="1"/>
        <pt x="254" y="760" on="0"/>
        <pt x="136" y="923" on="0"/>
        <pt x="151" y="1034" on="1"/>
        <pt x="173" y="1189" on="0"/>
        <pt x="453" y="1375" on="0"/>
        <pt x="671" y="1375" on="1"/>
        <pt x="764" y="1375" on="0"/>
        <pt x="937" y="1347" on="0"/>
        <pt x="995" y="1323" on="1"/>
        <pt x="978" y="1053" on="1"/>
        <pt x="890" y="1053" on="1"/>
        <pt x="845" y="1254" on="1"/>
        <pt x="809" y="1263" on="0"/>
        <pt x="701" y="1276" on="0"/>
        <pt x="647" y="1276" on="1"/>
        <pt x="582" y="1276" on="0"/>
        <pt x="454" y="1255" on="0"/>
        <pt x="404" y="1238" on="1"/>
        <pt x="381" y="1198" on="0"/>
        <pt x="354" y="1123" on="0"/>
        <pt x="348" y="1086" on="1"/>
        <pt x="337" y="1010" on="0"/>
        <pt x="444" y="879" on="0"/>
      </contour>
    </TTGlyph>
    <TTGlyph name="Scircumflex" xMin="32" yMin="-22" xMax="1013" yMax="1794">
      <component glyphName="S" x="0" y="0" flags="0x204"/>
      <component glyphName="circumflex.case" x="425" y="0" flags="0x4"/>
    </TTGlyph>
    <TTGlyph name="Scommaaccent" xMin="32" yMin="-534" xMax="995" yMax="1375">
      <component glyphName="S" x="0" y="0" flags="0x204"/>
      <component glyphName="uni0326" x="728" y="0" flags="0x4"/>
    </TTGlyph>
    <TTGlyph name="T" xMin="38" yMin="0" xMax="1126" yMax="1353">
      <contour>
        <pt x="506" y="1254" on="1"/>
        <pt x="201" y="1254" on="1"/>
        <pt x="126" y="1063" on="1"/>
        <pt x="38" y="1063" on="1"/>
        <pt x="94" y="1353" on="1"/>
        <pt x="1126" y="1353" on="1"/>
        <pt x="1099" y="1063" on="1"/>
        <pt x="1020" y="1063" on="1"/>
        <pt x="990" y="1254" on="1"/>
        <pt x="696" y="1254" on="1"/>
        <pt x="534" y="105" on="1"/>
        <pt x="675" y="85" on="1"/>
        <pt x="658" y="0" on="1"/>
        <pt x="211" y="0" on="1"/>
        <pt x="203" y="85" on="1"/>
        <pt x="344" y="105" on="1"/>
      </contour>
    </TTGlyph>
    <TTGlyph name="Tbar" xMin="38" yMin="0" xMax="1126" yMax="1353">
      <contour>
        <pt x="189" y="694" on="1"/>
        <pt x="427" y="694" on="1"/>
        <pt x="506" y="1254" on="1"/>
        <pt x="201" y="1254" on="1"/>
        <pt x="126" y="1063" on="1"/>
        <pt x="38" y="1063" on="1"/>
        <pt x="94" y="1353" on="1"/>
        <pt x="1126" y="1353" on="1"/>
        <pt x="1099" y="1063" on="1"/>
        <pt x="1020" y="1063" on="1"/>
        <pt x="990" y="1254" on="1"/>
        <pt x="696" y="1254" on="1"/>
        <pt x="617" y="694" on="1"/>
        <pt x="842" y="694" on="1"/>
        <pt x="826" y="577" on="1"/>
        <pt x="600" y="577" on="1"/>
        <pt x="534" y="105" on="1"/>
        <pt x="675" y="85" on="1"/>
        <pt x="658" y="0" on="1"/>
        <pt x="211" y="0" on="1"/>
        <pt x="203" y="85" on="1"/>
        <pt x="344" y="105" on="1"/>
        <pt x="410" y="577" on="1"/>
        <pt x="173" y="577" on="1"/>
      </contour>
    </TTGlyph>
    <TTGlyph name="Tcaron" xMin="38" yMin="0" xMax="1126" yMax="1794">
      <component glyphName="T" x="0" y="0" flags="0x204"/>
      <component glyphName="caron.case" x="373" y="0" flags="0x4"/>
    </TTGlyph>
    <TTGlyph name="Tcommaaccent" xMin="38" yMin="-457" xMax="1126" yMax="1353">
      <contour>
        <pt x="506" y="1254" on="1"/>
        <pt x="201" y="1254" on="1"/>
        <pt x="126" y="1063" on="1"/>
        <pt x="38" y="1063" on="1"/>
        <pt x="94" y="1353" on="1"/>
        <pt x="1126" y="1353" on="1"/>
        <pt x="1099" y="1063" on="1"/>
        <pt x="1020" y="1063" on="1"/>
        <pt x="990" y="1254" on="1"/>
        <pt x="696" y="1254" on="1"/>
        <pt x="534" y="105" on="1"/>
        <pt x="675" y="85" on="1"/>
        <pt x="658" y="0" on="1"/>
        <pt x="487" y="0" on="1"/>
        <pt x="438" y="-98" on="1"/>
        <pt x="478" y="-109" on="0"/>
        <pt x="545" y="-137" on="0"/>
        <pt x="590" y="-179" on="0"/>
        <pt x="610" y="-239" on="0"/>
        <pt x="604" y="-281" on="1"/>
        <pt x="599" y="-319" on="0"/>
        <pt x="560" y="-383" on="0"/>
        <pt x="495" y="-430" on="0"/>
        <pt x="407" y="-457" on="0"/>
        <pt x="352" y="-457" on="1"/>
        <pt x="312" y="-457" on="0"/>
        <pt x="246" y="-443" on="0"/>
        <pt x="221" y="-434" on="1"/>
        <pt x="192" y="-423" on="0"/>
        <pt x="168" y="-410" on="1"/>
        <pt x="191" y="-347" on="1"/>
        <pt x="216" y="-358" on="0"/>
        <pt x="243" y="-367" on="1"/>
        <pt x="266" y="-375" on="0"/>
        <pt x="325" y="-387" on="0"/>
        <pt x="356" y="-387" on="1"/>
        <pt x="376" y="-387" on="0"/>
        <pt x="408" y="-383" on="0"/>
        <pt x="419" y="-381" on="1"/>
        <pt x="431" y="-378" on="0"/>
        <pt x="441" y="-374" on="1"/>
        <pt x="446" y="-362" on="0"/>
        <pt x="450" y="-348" on="1"/>
        <pt x="454" y="-336" on="0"/>
        <pt x="461" y="-306" on="0"/>
        <pt x="463" y="-289" on="1"/>
        <pt x="468" y="-235" on="0"/>
        <pt x="407" y="-173" on="0"/>
        <pt x="338" y="-153" on="1"/>
        <pt x="302" y="-101" on="1"/>
        <pt x="354" y="0" on="1"/>
        <pt x="211" y="0" on="1"/>
        <pt x="203" y="85" on="1"/>
        <pt x="344" y="105" on="1"/>
      </contour>
    </TTGlyph>
    <TTGlyph name="Thorn" xMin="3" yMin="0" xMax="1053" yMax="1353">
      <contour>
        <pt x="508" y="0" on="1"/>
        <pt x="11" y="0" on="1"/>
        <pt x="3" y="85" on="1"/>
        <pt x="144" y="105" on="1"/>
        <pt x="305" y="1248" on="1"/>
        <pt x="164" y="1268" on="1"/>
        <pt x="181" y="1353" on="1"/>
        <pt x="628" y="1353" on="1"/>
        <pt x="636" y="1268" on="1"/>
        <pt x="495" y="1248" on="1"/>
        <pt x="470" y="1072" on="1"/>
        <pt x="638" y="1072" on="1"/>
        <pt x="851" y="1072" on="0"/>
        <pt x="1053" y="915" on="0"/>
        <pt x="1029" y="747" on="1"/>
        <pt x="1016" y="657" on="0"/>
        <pt x="932" y="518" on="0"/>
        <pt x="808" y="424" on="0"/>
        <pt x="653" y="375" on="0"/>
        <pt x="569" y="375" on="1"/>
        <pt x="372" y="375" on="1"/>
        <pt x="334" y="105" on="1"/>
        <pt x="525" y="85" on="1"/>
      </contour>
      <contour>
        <pt x="538" y="474" on="1"/>
        <pt x="590" y="474" on="0"/>
        <pt x="672" y="485" on="0"/>
        <pt x="701" y="492" on="1"/>
        <pt x="734" y="500" on="0"/>
        <pt x="761" y="510" on="1"/>
        <pt x="776" y="537" on="0"/>
        <pt x="790" y="570" on="1"/>
        <pt x="802" y="598" on="0"/>
        <pt x="825" y="673" on="0"/>
        <pt x="831" y="718" on="1"/>
        <pt x="838" y="773" on="0"/>
        <pt x="819" y="866" on="0"/>
        <pt x="761" y="934" on="0"/>
        <pt x="660" y="973" on="0"/>
        <pt x="585" y="973" on="1"/>
        <pt x="456" y="973" on="1"/>
        <pt x="386" y="474" on="1"/>
      </contour>
    </TTGlyph>
    <TTGlyph name="U" xMin="131" yMin="-22" xMax="1434" yMax="1353">
      <contour>
        <pt x="604" y="1268" on="1"/>
        <pt x="463" y="1248" on="1"/>
        <pt x="365" y="546" on="1"/>
        <pt x="333" y="315" on="0"/>
        <pt x="485" y="77" on="0"/>
        <pt x="656" y="77" on="1"/>
        <pt x="734" y="77" on="0"/>
        <pt x="881" y="120" on="0"/>
        <pt x="931" y="153" on="1"/>
        <pt x="969" y="216" on="0"/>
        <pt x="1036" y="417" on="0"/>
        <pt x="1050" y="521" on="1"/>
        <pt x="1152" y="1248" on="1"/>
        <pt x="1011" y="1268" on="1"/>
        <pt x="1028" y="1353" on="1"/>
        <pt x="1426" y="1353" on="1"/>
        <pt x="1434" y="1268" on="1"/>
        <pt x="1293" y="1248" on="1"/>
        <pt x="1191" y="518" on="1"/>
        <pt x="1151" y="237" on="0"/>
        <pt x="862" y="-22" on="0"/>
        <pt x="598" y="-22" on="1"/>
        <pt x="345" y="-22" on="0"/>
        <pt x="131" y="229" on="0"/>
        <pt x="167" y="491" on="1"/>
        <pt x="273" y="1248" on="1"/>
        <pt x="132" y="1268" on="1"/>
        <pt x="149" y="1353" on="1"/>
        <pt x="596" y="1353" on="1"/>
      </contour>
    </TTGlyph>
    <TTGlyph name="Uacute" xMin="131" yMin="-22" xMax="1434" yMax="1784">
      <component glyphName="U" x="0" y="0" flags="0x204"/>
      <component glyphName="acute.case" x="641" y="0" flags="0x4"/>
    </TTGlyph>
    <TTGlyph name="Ubreve" xMin="131" yMin="-22" xMax="1434" yMax="1759">
      <component glyphName="U" x="0" y="0" flags="0x204"/>
      <component glyphName="breve.case" x="594" y="0" flags="0x4"/>
    </TTGlyph>
    <TTGlyph name="Ucircumflex" xMin="131" yMin="-22" xMax="1434" yMax="1794">
      <component glyphName="U" x="0" y="0" flags="0x204"/>
      <component glyphName="circumflex.case" x="585" y="0" flags="0x4"/>
    </TTGlyph>
    <TTGlyph name="Udieresis" xMin="131" yMin="-22" xMax="1434" yMax="1701">
      <component glyphName="U" x="0" y="0" flags="0x204"/>
      <component glyphName="dieresis.case" x="562" y="0" flags="0x4"/>
    </TTGlyph>
    <TTGlyph name="Ugrave" xMin="131" yMin="-22" xMax="1434" yMax="1784">
      <component glyphName="U" x="0" y="0" flags="0x204"/>
      <component glyphName="grave.case" x="386" y="0" flags="0x4"/>
    </TTGlyph>
    <TTGlyph name="Uhorn" xMin="131" yMin="-22" xMax="1657" yMax="1589">
      <contour>
        <pt x="1594" y="1589" on="1"/>
        <pt x="1634" y="1529" on="0"/>
        <pt x="1657" y="1421" on="0"/>
        <pt x="1651" y="1376" on="1"/>
        <pt x="1643" y="1317" on="0"/>
        <pt x="1587" y="1220" on="0"/>
        <pt x="1478" y="1133" on="0"/>
        <pt x="1391" y="1093" on="1"/>
        <pt x="1336" y="1068" on="0"/>
        <pt x="1264" y="1043" on="1"/>
        <pt x="1191" y="518" on="1"/>
        <pt x="1151" y="237" on="0"/>
        <pt x="862" y="-22" on="0"/>
        <pt x="598" y="-22" on="1"/>
        <pt x="345" y="-22" on="0"/>
        <pt x="131" y="229" on="0"/>
        <pt x="167" y="491" on="1"/>
        <pt x="273" y="1248" on="1"/>
        <pt x="132" y="1268" on="1"/>
        <pt x="149" y="1353" on="1"/>
        <pt x="596" y="1353" on="1"/>
        <pt x="604" y="1268" on="1"/>
        <pt x="463" y="1248" on="1"/>
        <pt x="365" y="546" on="1"/>
        <pt x="333" y="315" on="0"/>
        <pt x="485" y="77" on="0"/>
        <pt x="656" y="77" on="1"/>
        <pt x="734" y="77" on="0"/>
        <pt x="881" y="120" on="0"/>
        <pt x="931" y="153" on="1"/>
        <pt x="969" y="216" on="0"/>
        <pt x="1036" y="417" on="0"/>
        <pt x="1050" y="521" on="1"/>
        <pt x="1152" y="1248" on="1"/>
        <pt x="1011" y="1268" on="1"/>
        <pt x="1028" y="1353" on="1"/>
        <pt x="1426" y="1353" on="1"/>
        <pt x="1434" y="1268" on="1"/>
        <pt x="1293" y="1248" on="1"/>
        <pt x="1279" y="1152" on="1"/>
        <pt x="1302" y="1162" on="0"/>
        <pt x="1322" y="1172" on="1"/>
        <pt x="1374" y="1197" on="0"/>
        <pt x="1439" y="1248" on="0"/>
        <pt x="1471" y="1304" on="0"/>
        <pt x="1476" y="1340" on="1"/>
        <pt x="1481" y="1375" on="0"/>
        <pt x="1469" y="1435" on="0"/>
        <pt x="1459" y="1457" on="1"/>
        <pt x="1448" y="1483" on="0"/>
        <pt x="1432" y="1502" on="1"/>
        <pt x="1436" y="1532" on="1"/>
      </contour>
    </TTGlyph>
    <TTGlyph name="Uhungarumlaut" xMin="131" yMin="-22" xMax="1505" yMax="1784">
      <component glyphName="U" x="0" y="0" flags="0x204"/>
      <component glyphName="hungarumlaut.case" x="741" y="0" flags="0x4"/>
    </TTGlyph>
    <TTGlyph name="Umacron" xMin="131" yMin="-22" xMax="1434" yMax="1660">
      <component glyphName="U" x="0" y="0" flags="0x204"/>
      <component glyphName="macron.case" x="580" y="0" flags="0x4"/>
    </TTGlyph>
    <TTGlyph name="Uogonek" xMin="131" yMin="-457" xMax="1434" yMax="1353">
      <contour>
        <pt x="604" y="1268" on="1"/>
        <pt x="463" y="1248" on="1"/>
        <pt x="365" y="546" on="1"/>
        <pt x="333" y="315" on="0"/>
        <pt x="485" y="77" on="0"/>
        <pt x="656" y="77" on="1"/>
        <pt x="734" y="77" on="0"/>
        <pt x="881" y="120" on="0"/>
        <pt x="931" y="153" on="1"/>
        <pt x="969" y="216" on="0"/>
        <pt x="1036" y="417" on="0"/>
        <pt x="1050" y="521" on="1"/>
        <pt x="1152" y="1248" on="1"/>
        <pt x="1011" y="1268" on="1"/>
        <pt x="1028" y="1353" on="1"/>
        <pt x="1426" y="1353" on="1"/>
        <pt x="1434" y="1268" on="1"/>
        <pt x="1293" y="1248" on="1"/>
        <pt x="1191" y="518" on="1"/>
        <pt x="1151" y="237" on="0"/>
        <pt x="1006" y="107" on="1"/>
        <pt x="954" y="61" on="0"/>
        <pt x="887" y="31" on="1"/>
        <pt x="822" y="2" on="0"/>
        <pt x="713" y="-83" on="0"/>
        <pt x="633" y="-177" on="0"/>
        <pt x="585" y="-273" on="0"/>
        <pt x="581" y="-313" on="1"/>
        <pt x="577" y="-347" on="0"/>
        <pt x="611" y="-377" on="0"/>
        <pt x="642" y="-377" on="1"/>
        <pt x="671" y="-377" on="0"/>
        <pt x="729" y="-352" on="0"/>
        <pt x="753" y="-337" on="1"/>
        <pt x="781" y="-319" on="0"/>
        <pt x="808" y="-297" on="1"/>
        <pt x="800" y="-370" on="1"/>
        <pt x="772" y="-395" on="0"/>
        <pt x="737" y="-414" on="1"/>
        <pt x="707" y="-431" on="0"/>
        <pt x="626" y="-457" on="0"/>
        <pt x="578" y="-457" on="1"/>
        <pt x="541" y="-457" on="0"/>
        <pt x="484" y="-443" on="0"/>
        <pt x="448" y="-410" on="0"/>
        <pt x="434" y="-356" on="0"/>
        <pt x="440" y="-315" on="1"/>
        <pt x="448" y="-261" on="0"/>
        <pt x="505" y="-152" on="0"/>
        <pt x="556" y="-99" on="1"/>
        <pt x="595" y="-60" on="0"/>
        <pt x="649" y="-21" on="1"/>
        <pt x="624" y="-22" on="0"/>
        <pt x="598" y="-22" on="1"/>
        <pt x="345" y="-22" on="0"/>
        <pt x="131" y="229" on="0"/>
        <pt x="167" y="491" on="1"/>
        <pt x="273" y="1248" on="1"/>
        <pt x="132" y="1268" on="1"/>
        <pt x="149" y="1353" on="1"/>
        <pt x="596" y="1353" on="1"/>
      </contour>
    </TTGlyph>
    <TTGlyph name="Uring" xMin="131" yMin="-22" xMax="1434" yMax="1784">
      <component glyphName="U" x="0" y="0" flags="0x204"/>
      <component glyphName="ring.case" x="586" y="0" flags="0x4"/>
    </TTGlyph>
    <TTGlyph name="Utilde" xMin="131" yMin="-22" xMax="1434" yMax="1747">
      <component glyphName="U" x="0" y="0" flags="0x204"/>
      <component glyphName="tilde.case" x="577" y="0" flags="0x4"/>
    </TTGlyph>
    <TTGlyph name="V" xMin="58" yMin="0" xMax="1349" yMax="1353">
      <contour>
        <pt x="1092" y="1248" on="1"/>
        <pt x="950" y="1268" on="1"/>
        <pt x="967" y="1353" on="1"/>
        <pt x="1341" y="1353" on="1"/>
        <pt x="1349" y="1268" on="1"/>
        <pt x="1238" y="1248" on="1"/>
        <pt x="624" y="0" on="1"/>
        <pt x="433" y="0" on="1"/>
        <pt x="170" y="1248" on="1"/>
        <pt x="58" y="1268" on="1"/>
        <pt x="75" y="1353" on="1"/>
        <pt x="492" y="1353" on="1"/>
        <pt x="500" y="1268" on="1"/>
        <pt x="359" y="1248" on="1"/>
        <pt x="568" y="182" on="1"/>
        <pt x="584" y="182" on="1"/>
      </contour>
    </TTGlyph>
    <TTGlyph name="W" xMin="40" yMin="0" xMax="2152" yMax="1353">
      <contour>
        <pt x="57" y="1353" on="1"/>
        <pt x="474" y="1353" on="1"/>
        <pt x="482" y="1268" on="1"/>
        <pt x="341" y="1248" on="1"/>
        <pt x="541" y="232" on="1"/>
        <pt x="557" y="232" on="1"/>
        <pt x="1057" y="1353" on="1"/>
        <pt x="1248" y="1353" on="1"/>
        <pt x="1424" y="232" on="1"/>
        <pt x="1440" y="232" on="1"/>
        <pt x="1894" y="1248" on="1"/>
        <pt x="1753" y="1268" on="1"/>
        <pt x="1770" y="1353" on="1"/>
        <pt x="2144" y="1353" on="1"/>
        <pt x="2152" y="1268" on="1"/>
        <pt x="2041" y="1248" on="1"/>
        <pt x="1472" y="0" on="1"/>
        <pt x="1281" y="0" on="1"/>
        <pt x="1104" y="1107" on="1"/>
        <pt x="1088" y="1107" on="1"/>
        <pt x="595" y="0" on="1"/>
        <pt x="403" y="0" on="1"/>
        <pt x="150" y="1248" on="1"/>
        <pt x="40" y="1268" on="1"/>
      </contour>
    </TTGlyph>
    <TTGlyph name="Wacute" xMin="40" yMin="0" xMax="2152" yMax="1784">
      <component glyphName="W" x="0" y="0" flags="0x204"/>
      <component glyphName="acute.case" x="983" y="0" flags="0x4"/>
    </TTGlyph>
    <TTGlyph name="Wcircumflex" xMin="40" yMin="0" xMax="2152" yMax="1794">
      <component glyphName="W" x="0" y="0" flags="0x204"/>
      <component glyphName="circumflex.case" x="927" y="0" flags="0x4"/>
    </TTGlyph>
    <TTGlyph name="Wdieresis" xMin="40" yMin="0" xMax="2152" yMax="1701">
      <component glyphName="W" x="0" y="0" flags="0x204"/>
      <component glyphName="dieresis.case" x="904" y="0" flags="0x4"/>
    </TTGlyph>
    <TTGlyph name="Wdotaccent" xMin="40" yMin="0" xMax="2152" yMax="1731">
      <component glyphName="W" x="0" y="0" flags="0x204"/>
      <component glyphName="dotaccent.case" x="947" y="0" flags="0x4"/>
    </TTGlyph>
    <TTGlyph name="Wgrave" xMin="40" yMin="0" xMax="2152" yMax="1784">
      <component glyphName="W" x="0" y="0" flags="0x204"/>
      <component glyphName="grave.case" x="728" y="0" flags="0x4"/>
    </TTGlyph>
    <TTGlyph name="X" xMin="-60" yMin="0" xMax="1289" yMax="1353">
      <contour>
        <pt x="930" y="1353" on="1"/>
        <pt x="1281" y="1353" on="1"/>
        <pt x="1289" y="1268" on="1"/>
        <pt x="1180" y="1248" on="1"/>
        <pt x="736" y="700" on="1"/>
        <pt x="1045" y="105" on="1"/>
        <pt x="1157" y="85" on="1"/>
        <pt x="1140" y="0" on="1"/>
        <pt x="735" y="0" on="1"/>
        <pt x="727" y="85" on="1"/>
        <pt x="841" y="101" on="1"/>
        <pt x="593" y="580" on="1"/>
        <pt x="577" y="580" on="1"/>
        <pt x="204" y="101" on="1"/>
        <pt x="318" y="85" on="1"/>
        <pt x="301" y="0" on="1"/>
        <pt x="-52" y="0" on="1"/>
        <pt x="-60" y="85" on="1"/>
        <pt x="50" y="105" on="1"/>
        <pt x="529" y="702" on="1"/>
        <pt x="246" y="1248" on="1"/>
        <pt x="134" y="1268" on="1"/>
        <pt x="151" y="1353" on="1"/>
        <pt x="551" y="1353" on="1"/>
        <pt x="559" y="1268" on="1"/>
        <pt x="450" y="1252" on="1"/>
        <pt x="674" y="823" on="1"/>
        <pt x="690" y="823" on="1"/>
        <pt x="1026" y="1252" on="1"/>
        <pt x="913" y="1268" on="1"/>
      </contour>
    </TTGlyph>
    <TTGlyph name="Y" xMin="4" yMin="0" xMax="1256" yMax="1353">
      <contour>
        <pt x="21" y="1353" on="1"/>
        <pt x="422" y="1353" on="1"/>
        <pt x="430" y="1268" on="1"/>
        <pt x="319" y="1252" on="1"/>
        <pt x="581" y="722" on="1"/>
        <pt x="597" y="722" on="1"/>
        <pt x="991" y="1251" on="1"/>
        <pt x="875" y="1268" on="1"/>
        <pt x="892" y="1353" on="1"/>
        <pt x="1248" y="1353" on="1"/>
        <pt x="1256" y="1268" on="1"/>
        <pt x="1145" y="1248" on="1"/>
        <pt x="641" y="576" on="1"/>
        <pt x="575" y="105" on="1"/>
        <pt x="716" y="85" on="1"/>
        <pt x="699" y="0" on="1"/>
        <pt x="252" y="0" on="1"/>
        <pt x="244" y="85" on="1"/>
        <pt x="385" y="105" on="1"/>
        <pt x="451" y="578" on="1"/>
        <pt x="116" y="1248" on="1"/>
        <pt x="4" y="1268" on="1"/>
      </contour>
    </TTGlyph>
    <TTGlyph name="Yacute" xMin="4" yMin="0" xMax="1256" yMax="1784">
      <component glyphName="Y" x="0" y="0" flags="0x204"/>
      <component glyphName="acute.case" x="483" y="0" flags="0x4"/>
    </TTGlyph>
    <TTGlyph name="Ycircumflex" xMin="4" yMin="0" xMax="1256" yMax="1794">
      <component glyphName="Y" x="0" y="0" flags="0x204"/>
      <component glyphName="circumflex.case" x="427" y="0" flags="0x4"/>
    </TTGlyph>
    <TTGlyph name="Ydieresis" xMin="4" yMin="0" xMax="1256" yMax="1701">
      <component glyphName="Y" x="0" y="0" flags="0x204"/>
      <component glyphName="dieresis.case" x="404" y="0" flags="0x4"/>
    </TTGlyph>
    <TTGlyph name="Ygrave" xMin="4" yMin="0" xMax="1256" yMax="1784">
      <component glyphName="Y" x="0" y="0" flags="0x204"/>
      <component glyphName="grave.case" x="228" y="0" flags="0x4"/>
    </TTGlyph>
    <TTGlyph name="Z" xMin="14" yMin="0" xMax="1110" yMax="1353">
      <contour>
        <pt x="1110" y="1353" on="1"/>
        <pt x="1110" y="1259" on="1"/>
        <pt x="242" y="113" on="1"/>
        <pt x="245" y="99" on="1"/>
        <pt x="822" y="99" on="1"/>
        <pt x="921" y="312" on="1"/>
        <pt x="1011" y="300" on="1"/>
        <pt x="944" y="0" on="1"/>
        <pt x="14" y="0" on="1"/>
        <pt x="14" y="95" on="1"/>
        <pt x="881" y="1240" on="1"/>
        <pt x="878" y="1254" on="1"/>
        <pt x="342" y="1254" on="1"/>
        <pt x="243" y="1041" on="1"/>
        <pt x="152" y="1053" on="1"/>
        <pt x="220" y="1353" on="1"/>
      </contour>
    </TTGlyph>
    <TTGlyph name="Zacute" xMin="14" yMin="0" xMax="1110" yMax="1784">
      <component glyphName="Z" x="0" y="0" flags="0x204"/>
      <component glyphName="acute.case" x="489" y="0" flags="0x4"/>
    </TTGlyph>
    <TTGlyph name="Zcaron" xMin="14" yMin="0" xMax="1110" yMax="1794">
      <component glyphName="Z" x="0" y="0" flags="0x204"/>
      <component glyphName="caron.case" x="424" y="0" flags="0x4"/>
    </TTGlyph>
    <TTGlyph name="Zcircumflex" xMin="14" yMin="0" xMax="1110" yMax="1794">
      <component glyphName="Z" x="0" y="0" flags="0x204"/>
      <component glyphName="circumflex.case" x="433" y="0" flags="0x4"/>
    </TTGlyph>
    <TTGlyph name="Zdotaccent" xMin="14" yMin="0" xMax="1110" yMax="1731">
      <component glyphName="Z" x="0" y="0" flags="0x204"/>
      <component glyphName="dotaccent.case" x="453" y="0" flags="0x4"/>
    </TTGlyph>
    <TTGlyph name="a" xMin="64" yMin="-22" xMax="1030" yMax="1107">
      <contour>
        <pt x="1013" y="0" on="1"/>
        <pt x="783" y="-22" on="1"/>
        <pt x="702" y="56" on="1"/>
        <pt x="728" y="246" on="1"/>
        <pt x="650" y="124" on="0"/>
        <pt x="448" y="-22" on="0"/>
        <pt x="343" y="-22" on="1"/>
        <pt x="178" y="-22" on="0"/>
        <pt x="64" y="168" on="0"/>
        <pt x="92" y="373" on="1"/>
        <pt x="118" y="561" on="1"/>
        <pt x="155" y="813" on="0"/>
        <pt x="436" y="1107" on="0"/>
        <pt x="638" y="1107" on="1"/>
        <pt x="719" y="1107" on="0"/>
        <pt x="916" y="1066" on="0"/>
        <pt x="1017" y="1029" on="1"/>
        <pt x="888" y="105" on="1"/>
        <pt x="1030" y="85" on="1"/>
      </contour>
      <contour>
        <pt x="284" y="461" on="1"/>
        <pt x="257" y="269" on="0"/>
        <pt x="305" y="86" on="0"/>
        <pt x="404" y="86" on="1"/>
        <pt x="488" y="86" on="0"/>
        <pt x="670" y="248" on="0"/>
        <pt x="746" y="373" on="1"/>
        <pt x="831" y="990" on="1"/>
        <pt x="785" y="1006" on="0"/>
        <pt x="679" y="1023" on="0"/>
        <pt x="632" y="1023" on="1"/>
        <pt x="577" y="1023" on="0"/>
        <pt x="470" y="995" on="0"/>
        <pt x="429" y="973" on="1"/>
        <pt x="389" y="907" on="0"/>
        <pt x="324" y="720" on="0"/>
        <pt x="303" y="592" on="1"/>
      </contour>
    </TTGlyph>
    <TTGlyph name="aacute" xMin="64" yMin="-22" xMax="1090" yMax="1670">
      <component glyphName="a" x="0" y="0" flags="0x204"/>
      <component glyphName="acute" x="450" y="0" flags="0x4"/>
    </TTGlyph>
    <TTGlyph name="abreve" xMin="64" yMin="-22" xMax="1030" yMax="1602">
      <component glyphName="a" x="0" y="0" flags="0x204"/>
      <component glyphName="breve" x="257" y="0" flags="0x4"/>
    </TTGlyph>
    <TTGlyph name="acircumflex" xMin="64" yMin="-22" xMax="1030" yMax="1680">
      <component glyphName="a" x="0" y="0" flags="0x204"/>
      <component glyphName="circumflex" x="179" y="0" flags="0x4"/>
    </TTGlyph>
    <TTGlyph name="acute" xMin="200" yMin="1265" xMax="640" yMax="1670">
      <contour>
        <pt x="205" y="1307" on="1"/>
        <pt x="459" y="1670" on="1"/>
        <pt x="640" y="1660" on="1"/>
        <pt x="630" y="1594" on="1"/>
        <pt x="274" y="1265" on="1"/>
        <pt x="200" y="1275" on="1"/>
      </contour>
    </TTGlyph>
    <TTGlyph name="acute.case" xMin="63" yMin="1460" xMax="596" yMax="1784">
      <contour>
        <pt x="68" y="1503" on="1"/>
        <pt x="405" y="1784" on="1"/>
        <pt x="596" y="1774" on="1"/>
        <pt x="587" y="1708" on="1"/>
        <pt x="157" y="1460" on="1"/>
        <pt x="63" y="1471" on="1"/>
      </contour>
    </TTGlyph>
    <TTGlyph name="acutecomb" xMin="-655" yMin="1265" xMax="-215" yMax="1670">
      <contour>
        <pt x="-650" y="1307" on="1"/>
        <pt x="-396" y="1670" on="1"/>
        <pt x="-215" y="1660" on="1"/>
        <pt x="-225" y="1594" on="1"/>
        <pt x="-581" y="1265" on="1"/>
        <pt x="-655" y="1275" on="1"/>
      </contour>
    </TTGlyph>
    <TTGlyph name="adieresis" xMin="64" yMin="-22" xMax="1030" yMax="1495">
      <component glyphName="a" x="0" y="0" flags="0x204"/>
      <component glyphName="dieresis" x="240" y="0" flags="0x4"/>
    </TTGlyph>
    <TTGlyph name="ae" xMin="32" yMin="-22" xMax="1531" yMax="1107">
      <contour>
        <pt x="1512" y="817" on="1"/>
        <pt x="1503" y="745" on="0"/>
        <pt x="1432" y="625" on="0"/>
        <pt x="1321" y="540" on="0"/>
        <pt x="1172" y="492" on="0"/>
        <pt x="1085" y="492" on="1"/>
        <pt x="1024" y="492" on="0"/>
        <pt x="922" y="498" on="0"/>
        <pt x="890" y="502" on="1"/>
        <pt x="882" y="443" on="1"/>
        <pt x="867" y="339" on="0"/>
        <pt x="894" y="196" on="0"/>
        <pt x="955" y="108" on="0"/>
        <pt x="1038" y="68" on="0"/>
        <pt x="1079" y="68" on="1"/>
        <pt x="1129" y="68" on="0"/>
        <pt x="1221" y="96" on="0"/>
        <pt x="1256" y="113" on="1"/>
        <pt x="1297" y="132" on="0"/>
        <pt x="1334" y="158" on="1"/>
        <pt x="1334" y="72" on="1"/>
        <pt x="1299" y="45" on="0"/>
        <pt x="1252" y="25" on="1"/>
        <pt x="1212" y="7" on="0"/>
        <pt x="1099" y="-22" on="0"/>
        <pt x="1027" y="-22" on="1"/>
        <pt x="899" y="-22" on="0"/>
        <pt x="745" y="73" on="0"/>
        <pt x="713" y="164" on="1"/>
        <pt x="688" y="140" on="0"/>
        <pt x="609" y="76" on="0"/>
        <pt x="502" y="18" on="0"/>
        <pt x="369" y="-22" on="0"/>
        <pt x="290" y="-22" on="1"/>
        <pt x="230" y="-22" on="0"/>
        <pt x="130" y="12" on="0"/>
        <pt x="63" y="76" on="0"/>
        <pt x="32" y="169" on="0"/>
        <pt x="41" y="228" on="1"/>
        <pt x="53" y="313" on="0"/>
        <pt x="144" y="447" on="0"/>
        <pt x="309" y="541" on="0"/>
        <pt x="554" y="592" on="0"/>
        <pt x="722" y="592" on="1"/>
        <pt x="738" y="702" on="1"/>
        <pt x="749" y="781" on="0"/>
        <pt x="742" y="899" on="0"/>
        <pt x="695" y="978" on="0"/>
        <pt x="605" y="1017" on="0"/>
        <pt x="532" y="1017" on="1"/>
        <pt x="500" y="1017" on="0"/>
        <pt x="443" y="1012" on="0"/>
        <pt x="420" y="1009" on="1"/>
        <pt x="394" y="1005" on="0"/>
        <pt x="371" y="1002" on="1"/>
        <pt x="281" y="770" on="1"/>
        <pt x="194" y="770" on="1"/>
        <pt x="234" y="1053" on="1"/>
        <pt x="275" y="1068" on="0"/>
        <pt x="325" y="1080" on="1"/>
        <pt x="368" y="1090" on="0"/>
        <pt x="486" y="1107" on="0"/>
        <pt x="555" y="1107" on="1"/>
        <pt x="686" y="1107" on="0"/>
        <pt x="861" y="1040" on="0"/>
        <pt x="900" y="964" on="1"/>
        <pt x="967" y="1036" on="0"/>
        <pt x="1132" y="1107" on="0"/>
        <pt x="1225" y="1107" on="1"/>
        <pt x="1383" y="1107" on="0"/>
        <pt x="1531" y="964" on="0"/>
      </contour>
      <contour>
        <pt x="371" y="68" on="1"/>
        <pt x="429" y="68" on="0"/>
        <pt x="540" y="108" on="0"/>
        <pt x="630" y="159" on="0"/>
        <pt x="691" y="206" on="0"/>
        <pt x="700" y="214" on="1"/>
        <pt x="682" y="306" on="0"/>
        <pt x="700" y="429" on="1"/>
        <pt x="710" y="502" on="1"/>
        <pt x="594" y="501" on="0"/>
        <pt x="431" y="479" on="0"/>
        <pt x="380" y="465" on="1"/>
        <pt x="319" y="449" on="0"/>
        <pt x="282" y="428" on="1"/>
        <pt x="269" y="407" on="0"/>
        <pt x="258" y="381" on="1"/>
        <pt x="248" y="358" on="0"/>
        <pt x="230" y="295" on="0"/>
        <pt x="225" y="255" on="1"/>
        <pt x="219" y="207" on="0"/>
        <pt x="241" y="137" on="0"/>
        <pt x="284" y="90" on="0"/>
        <pt x="341" y="68" on="0"/>
      </contour>
      <contour>
        <pt x="1044" y="968" on="1"/>
        <pt x="1014" y="925" on="0"/>
        <pt x="988" y="867" on="1"/>
        <pt x="965" y="817" on="0"/>
        <pt x="917" y="675" on="0"/>
        <pt x="902" y="583" on="1"/>
        <pt x="920" y="582" on="0"/>
        <pt x="970" y="579" on="0"/>
        <pt x="1028" y="577" on="0"/>
        <pt x="1089" y="576" on="0"/>
        <pt x="1119" y="576" on="1"/>
        <pt x="1154" y="576" on="0"/>
        <pt x="1213" y="588" on="0"/>
        <pt x="1233" y="596" on="1"/>
        <pt x="1257" y="605" on="0"/>
        <pt x="1275" y="616" on="1"/>
        <pt x="1286" y="638" on="0"/>
        <pt x="1296" y="665" on="1"/>
        <pt x="1304" y="688" on="0"/>
        <pt x="1322" y="752" on="0"/>
        <pt x="1327" y="791" on="1"/>
        <pt x="1335" y="857" on="0"/>
        <pt x="1320" y="945" on="0"/>
        <pt x="1282" y="996" on="0"/>
        <pt x="1226" y="1017" on="0"/>
        <pt x="1193" y="1017" on="1"/>
        <pt x="1162" y="1017" on="0"/>
        <pt x="1108" y="1001" on="0"/>
        <pt x="1088" y="992" on="1"/>
        <pt x="1064" y="981" on="0"/>
      </contour>
    </TTGlyph>
    <TTGlyph name="aeacute" xMin="35" yMin="-22" xMax="1534" yMax="1670">
      <component glyphName="ae" x="3" y="0" flags="0x4"/>
      <component glyphName="acute" x="665" y="0" flags="0x4"/>
    </TTGlyph>
    <TTGlyph name="agrave" xMin="64" yMin="-22" xMax="1030" yMax="1670">
      <component glyphName="a" x="0" y="0" flags="0x204"/>
      <component glyphName="grave" x="219" y="0" flags="0x4"/>
    </TTGlyph>
    <TTGlyph name="amacron" xMin="64" yMin="-22" xMax="1079" yMax="1463">
      <component glyphName="a" x="0" y="0" flags="0x204"/>
      <component glyphName="macron" x="201" y="0" flags="0x4"/>
    </TTGlyph>
    <TTGlyph name="ampersand" xMin="13" yMin="-22" xMax="1464" yMax="1375">
      <contour>
        <pt x="1196" y="519" on="1"/>
        <pt x="1183" y="426" on="0"/>
        <pt x="1088" y="256" on="0"/>
        <pt x="1010" y="186" on="1"/>
        <pt x="1073" y="134" on="0"/>
        <pt x="1196" y="77" on="0"/>
        <pt x="1256" y="77" on="1"/>
        <pt x="1301" y="77" on="0"/>
        <pt x="1377" y="87" on="0"/>
        <pt x="1405" y="94" on="1"/>
        <pt x="1438" y="101" on="0"/>
        <pt x="1464" y="111" on="1"/>
        <pt x="1461" y="45" on="1"/>
        <pt x="1431" y="26" on="0"/>
        <pt x="1393" y="11" on="1"/>
        <pt x="1360" y="-2" on="0"/>
        <pt x="1268" y="-22" on="0"/>
        <pt x="1211" y="-22" on="1"/>
        <pt x="1130" y="-22" on="0"/>
        <pt x="971" y="42" on="0"/>
        <pt x="893" y="99" on="1"/>
        <pt x="798" y="42" on="0"/>
        <pt x="565" y="-22" on="0"/>
        <pt x="431" y="-22" on="1"/>
        <pt x="327" y="-22" on="0"/>
        <pt x="166" y="13" on="0"/>
        <pt x="60" y="85" on="0"/>
        <pt x="13" y="196" on="0"/>
        <pt x="24" y="272" on="1"/>
        <pt x="26" y="286" on="1"/>
        <pt x="36" y="355" on="0"/>
        <pt x="105" y="471" on="0"/>
        <pt x="203" y="569" on="0"/>
        <pt x="322" y="649" on="0"/>
        <pt x="381" y="682" on="1"/>
        <pt x="354" y="730" on="0"/>
        <pt x="311" y="825" on="0"/>
        <pt x="282" y="913" on="0"/>
        <pt x="271" y="994" on="0"/>
        <pt x="276" y="1029" on="1"/>
        <pt x="279" y="1050" on="1"/>
        <pt x="288" y="1111" on="0"/>
        <pt x="358" y="1228" on="0"/>
        <pt x="477" y="1319" on="0"/>
        <pt x="643" y="1375" on="0"/>
        <pt x="747" y="1375" on="1"/>
        <pt x="833" y="1375" on="0"/>
        <pt x="956" y="1333" on="0"/>
        <pt x="1031" y="1263" on="0"/>
        <pt x="1061" y="1172" on="0"/>
        <pt x="1054" y="1123" on="1"/>
        <pt x="1052" y="1107" on="1"/>
        <pt x="1043" y="1044" on="0"/>
        <pt x="969" y="937" on="0"/>
        <pt x="850" y="838" on="0"/>
        <pt x="690" y="741" on="0"/>
        <pt x="595" y="688" on="1"/>
        <pt x="676" y="567" on="0"/>
        <pt x="838" y="353" on="0"/>
        <pt x="919" y="270" on="1"/>
        <pt x="962" y="322" on="0"/>
        <pt x="1017" y="450" on="0"/>
        <pt x="1027" y="526" on="1"/>
        <pt x="1035" y="583" on="1"/>
        <pt x="903" y="616" on="1"/>
        <pt x="917" y="684" on="1"/>
        <pt x="1223" y="706" on="1"/>
      </contour>
      <contour>
        <pt x="469" y="77" on="1"/>
        <pt x="566" y="77" on="0"/>
        <pt x="737" y="124" on="0"/>
        <pt x="807" y="169" on="1"/>
        <pt x="710" y="256" on="0"/>
        <pt x="526" y="482" on="0"/>
        <pt x="436" y="612" on="1"/>
        <pt x="395" y="588" on="0"/>
        <pt x="323" y="527" on="0"/>
        <pt x="266" y="452" on="0"/>
        <pt x="227" y="364" on="0"/>
        <pt x="220" y="313" on="1"/>
        <pt x="218" y="295" on="1"/>
        <pt x="212" y="247" on="0"/>
        <pt x="240" y="166" on="0"/>
        <pt x="305" y="109" on="0"/>
        <pt x="404" y="77" on="0"/>
      </contour>
      <contour>
        <pt x="860" y="1100" on="1"/>
        <pt x="864" y="1137" on="0"/>
        <pt x="849" y="1201" on="0"/>
        <pt x="809" y="1249" on="0"/>
        <pt x="747" y="1276" on="0"/>
        <pt x="705" y="1276" on="1"/>
        <pt x="673" y="1276" on="0"/>
        <pt x="622" y="1270" on="0"/>
        <pt x="603" y="1266" on="1"/>
        <pt x="581" y="1262" on="0"/>
        <pt x="564" y="1256" on="1"/>
        <pt x="541" y="1235" on="0"/>
        <pt x="523" y="1206" on="1"/>
        <pt x="506" y="1181" on="0"/>
        <pt x="476" y="1110" on="0"/>
        <pt x="471" y="1064" on="1"/>
        <pt x="469" y="1047" on="1"/>
        <pt x="464" y="1012" on="0"/>
        <pt x="469" y="945" on="0"/>
        <pt x="490" y="876" on="0"/>
        <pt x="526" y="803" on="0"/>
        <pt x="550" y="762" on="1"/>
        <pt x="611" y="796" on="0"/>
        <pt x="718" y="870" on="0"/>
        <pt x="800" y="950" on="0"/>
        <pt x="851" y="1034" on="0"/>
        <pt x="857" y="1078" on="1"/>
      </contour>
    </TTGlyph>
    <TTGlyph name="aogonek" xMin="64" yMin="-457" xMax="1030" yMax="1107">
      <contour>
        <pt x="1013" y="0" on="1"/>
        <pt x="965" y="-32" on="0"/>
        <pt x="871" y="-107" on="0"/>
        <pt x="794" y="-188" on="0"/>
        <pt x="742" y="-272" on="0"/>
        <pt x="737" y="-313" on="1"/>
        <pt x="733" y="-347" on="0"/>
        <pt x="767" y="-377" on="0"/>
        <pt x="798" y="-377" on="1"/>
        <pt x="827" y="-377" on="0"/>
        <pt x="885" y="-352" on="0"/>
        <pt x="909" y="-337" on="1"/>
        <pt x="937" y="-319" on="0"/>
        <pt x="964" y="-297" on="1"/>
        <pt x="956" y="-370" on="1"/>
        <pt x="928" y="-395" on="0"/>
        <pt x="893" y="-414" on="1"/>
        <pt x="863" y="-431" on="0"/>
        <pt x="782" y="-457" on="0"/>
        <pt x="734" y="-457" on="1"/>
        <pt x="697" y="-457" on="0"/>
        <pt x="640" y="-443" on="0"/>
        <pt x="604" y="-410" on="0"/>
        <pt x="590" y="-356" on="0"/>
        <pt x="596" y="-315" on="1"/>
        <pt x="605" y="-260" on="0"/>
        <pt x="674" y="-155" on="0"/>
        <pt x="730" y="-104" on="1"/>
        <pt x="780" y="-59" on="0"/>
        <pt x="847" y="-16" on="1"/>
        <pt x="783" y="-22" on="1"/>
        <pt x="702" y="56" on="1"/>
        <pt x="728" y="246" on="1"/>
        <pt x="650" y="124" on="0"/>
        <pt x="448" y="-22" on="0"/>
        <pt x="343" y="-22" on="1"/>
        <pt x="178" y="-22" on="0"/>
        <pt x="64" y="168" on="0"/>
        <pt x="92" y="373" on="1"/>
        <pt x="118" y="561" on="1"/>
        <pt x="155" y="813" on="0"/>
        <pt x="436" y="1107" on="0"/>
        <pt x="638" y="1107" on="1"/>
        <pt x="719" y="1107" on="0"/>
        <pt x="916" y="1066" on="0"/>
        <pt x="1017" y="1029" on="1"/>
        <pt x="888" y="105" on="1"/>
        <pt x="1030" y="85" on="1"/>
      </contour>
      <contour>
        <pt x="284" y="461" on="1"/>
        <pt x="257" y="269" on="0"/>
        <pt x="305" y="86" on="0"/>
        <pt x="404" y="86" on="1"/>
        <pt x="488" y="86" on="0"/>
        <pt x="670" y="248" on="0"/>
        <pt x="746" y="373" on="1"/>
        <pt x="831" y="990" on="1"/>
        <pt x="785" y="1006" on="0"/>
        <pt x="679" y="1023" on="0"/>
        <pt x="632" y="1023" on="1"/>
        <pt x="577" y="1023" on="0"/>
        <pt x="470" y="995" on="0"/>
        <pt x="429" y="973" on="1"/>
        <pt x="389" y="907" on="0"/>
        <pt x="324" y="720" on="0"/>
        <pt x="303" y="592" on="1"/>
      </contour>
    </TTGlyph>
    <TTGlyph name="approxequal" xMin="160" yMin="260" xMax="1101" yMax="938">
      <contour>
        <pt x="160" y="709" on="1"/>
        <pt x="160" y="765" on="0"/>
        <pt x="197" y="851" on="0"/>
        <pt x="261" y="909" on="0"/>
        <pt x="349" y="938" on="0"/>
        <pt x="400" y="938" on="1"/>
        <pt x="436" y="938" on="0"/>
        <pt x="525" y="918" on="0"/>
        <pt x="619" y="889" on="0"/>
        <pt x="713" y="855" on="0"/>
        <pt x="796" y="826" on="0"/>
        <pt x="862" y="806" on="0"/>
        <pt x="881" y="806" on="1"/>
        <pt x="900" y="806" on="0"/>
        <pt x="937" y="821" on="0"/>
        <pt x="966" y="851" on="0"/>
        <pt x="984" y="896" on="0"/>
        <pt x="984" y="926" on="1"/>
        <pt x="1101" y="936" on="1"/>
        <pt x="1101" y="889" on="1"/>
        <pt x="1101" y="836" on="0"/>
        <pt x="1067" y="751" on="0"/>
        <pt x="1007" y="692" on="0"/>
        <pt x="923" y="660" on="0"/>
        <pt x="873" y="660" on="1"/>
        <pt x="841" y="660" on="0"/>
        <pt x="752" y="680" on="0"/>
        <pt x="654" y="709" on="0"/>
        <pt x="553" y="743" on="0"/>
        <pt x="464" y="772" on="0"/>
        <pt x="394" y="792" on="0"/>
        <pt x="376" y="792" on="1"/>
        <pt x="356" y="792" on="0"/>
        <pt x="317" y="784" on="0"/>
        <pt x="287" y="762" on="0"/>
        <pt x="269" y="724" on="0"/>
        <pt x="269" y="694" on="1"/>
        <pt x="160" y="684" on="1"/>
      </contour>
      <contour>
        <pt x="160" y="309" on="1"/>
        <pt x="160" y="365" on="0"/>
        <pt x="197" y="451" on="0"/>
        <pt x="261" y="509" on="0"/>
        <pt x="349" y="538" on="0"/>
        <pt x="400" y="538" on="1"/>
        <pt x="436" y="538" on="0"/>
        <pt x="525" y="518" on="0"/>
        <pt x="619" y="489" on="0"/>
        <pt x="713" y="455" on="0"/>
        <pt x="796" y="426" on="0"/>
        <pt x="862" y="406" on="0"/>
        <pt x="881" y="406" on="1"/>
        <pt x="900" y="406" on="0"/>
        <pt x="937" y="421" on="0"/>
        <pt x="966" y="451" on="0"/>
        <pt x="984" y="496" on="0"/>
        <pt x="984" y="526" on="1"/>
        <pt x="1101" y="536" on="1"/>
        <pt x="1101" y="489" on="1"/>
        <pt x="1101" y="436" on="0"/>
        <pt x="1067" y="351" on="0"/>
        <pt x="1007" y="292" on="0"/>
        <pt x="923" y="260" on="0"/>
        <pt x="873" y="260" on="1"/>
        <pt x="841" y="260" on="0"/>
        <pt x="752" y="280" on="0"/>
        <pt x="654" y="309" on="0"/>
        <pt x="553" y="343" on="0"/>
        <pt x="464" y="372" on="0"/>
        <pt x="394" y="392" on="0"/>
        <pt x="376" y="392" on="1"/>
        <pt x="356" y="392" on="0"/>
        <pt x="317" y="384" on="0"/>
        <pt x="287" y="362" on="0"/>
        <pt x="269" y="324" on="0"/>
        <pt x="269" y="294" on="1"/>
        <pt x="160" y="284" on="1"/>
      </contour>
    </TTGlyph>
    <TTGlyph name="aring" xMin="64" yMin="-22" xMax="1030" yMax="1670">
      <component glyphName="a" x="0" y="0" flags="0x204"/>
      <component glyphName="ring" x="310" y="0" flags="0x4"/>
    </TTGlyph>
    <TTGlyph name="aringacute" xMin="64" yMin="-22" xMax="1152" yMax="2166">
      <component glyphName="a" x="0" y="0" flags="0x204"/>
      <component glyphName="ring" x="297" y="0" flags="0x4"/>
      <component glyphName="acute" x="512" y="496" flags="0x4"/>
    </TTGlyph>
    <TTGlyph name="arrowdown" xMin="40" yMin="-413" xMax="583" yMax="1562">
      <contour>
        <pt x="583" y="1562" on="1"/>
        <pt x="350" y="-95" on="1"/>
        <pt x="481" y="32" on="1"/>
        <pt x="543" y="-28" on="1"/>
        <pt x="260" y="-413" on="1"/>
        <pt x="216" y="-413" on="1"/>
        <pt x="40" y="-28" on="1"/>
        <pt x="118" y="32" on="1"/>
        <pt x="214" y="-95" on="1"/>
        <pt x="447" y="1562" on="1"/>
      </contour>
    </TTGlyph>
    <TTGlyph name="arrowup" xMin="150" yMin="-413" xMax="693" yMax="1562">
      <contour>
        <pt x="150" y="-413" on="1"/>
        <pt x="382" y="1243" on="1"/>
        <pt x="252" y="1117" on="1"/>
        <pt x="190" y="1177" on="1"/>
        <pt x="473" y="1562" on="1"/>
        <pt x="517" y="1562" on="1"/>
        <pt x="693" y="1177" on="1"/>
        <pt x="615" y="1117" on="1"/>
        <pt x="519" y="1244" on="1"/>
        <pt x="286" y="-413" on="1"/>
      </contour>
    </TTGlyph>
    <TTGlyph name="asciicircum" xMin="70" yMin="1049" xMax="894" yMax="1540">
      <contour>
        <pt x="434" y="1540" on="1"/>
        <pt x="530" y="1540" on="1"/>
        <pt x="894" y="1079" on="1"/>
        <pt x="894" y="1049" on="1"/>
        <pt x="755" y="1049" on="1"/>
        <pt x="487" y="1384" on="1"/>
        <pt x="477" y="1384" on="1"/>
        <pt x="210" y="1049" on="1"/>
        <pt x="70" y="1049" on="1"/>
        <pt x="70" y="1079" on="1"/>
      </contour>
    </TTGlyph>
    <TTGlyph name="asciitilde" xMin="120" yMin="500" xMax="1061" yMax="778">
      <contour>
        <pt x="120" y="549" on="1"/>
        <pt x="120" y="605" on="0"/>
        <pt x="157" y="691" on="0"/>
        <pt x="221" y="749" on="0"/>
        <pt x="309" y="778" on="0"/>
        <pt x="360" y="778" on="1"/>
        <pt x="396" y="778" on="0"/>
        <pt x="485" y="758" on="0"/>
        <pt x="579" y="729" on="0"/>
        <pt x="673" y="695" on="0"/>
        <pt x="756" y="666" on="0"/>
        <pt x="822" y="646" on="0"/>
        <pt x="841" y="646" on="1"/>
        <pt x="860" y="646" on="0"/>
        <pt x="897" y="661" on="0"/>
        <pt x="926" y="691" on="0"/>
        <pt x="944" y="736" on="0"/>
        <pt x="944" y="766" on="1"/>
        <pt x="1061" y="776" on="1"/>
        <pt x="1061" y="729" on="1"/>
        <pt x="1061" y="676" on="0"/>
        <pt x="1027" y="591" on="0"/>
        <pt x="967" y="532" on="0"/>
        <pt x="883" y="500" on="0"/>
        <pt x="833" y="500" on="1"/>
        <pt x="801" y="500" on="0"/>
        <pt x="712" y="520" on="0"/>
        <pt x="614" y="549" on="0"/>
        <pt x="513" y="583" on="0"/>
        <pt x="424" y="612" on="0"/>
        <pt x="354" y="632" on="0"/>
        <pt x="336" y="632" on="1"/>
        <pt x="316" y="632" on="0"/>
        <pt x="277" y="624" on="0"/>
        <pt x="247" y="602" on="0"/>
        <pt x="229" y="564" on="0"/>
        <pt x="229" y="534" on="1"/>
        <pt x="120" y="524" on="1"/>
      </contour>
    </TTGlyph>
    <TTGlyph name="asterisk" xMin="160" yMin="802" xMax="927" yMax="1562">
      <contour>
        <pt x="577" y="1103" on="1"/>
        <pt x="569" y="826" on="1"/>
        <pt x="566" y="802" on="1"/>
        <pt x="413" y="802" on="1"/>
        <pt x="416" y="826" on="1"/>
        <pt x="486" y="1103" on="1"/>
        <pt x="238" y="938" on="1"/>
        <pt x="216" y="926" on="1"/>
        <pt x="160" y="1058" on="1"/>
        <pt x="181" y="1070" on="1"/>
        <pt x="451" y="1182" on="1"/>
        <pt x="211" y="1294" on="1"/>
        <pt x="193" y="1306" on="1"/>
        <pt x="287" y="1438" on="1"/>
        <pt x="307" y="1426" on="1"/>
        <pt x="509" y="1261" on="1"/>
        <pt x="517" y="1538" on="1"/>
        <pt x="520" y="1562" on="1"/>
        <pt x="673" y="1562" on="1"/>
        <pt x="670" y="1538" on="1"/>
        <pt x="600" y="1261" on="1"/>
        <pt x="848" y="1426" on="1"/>
        <pt x="870" y="1438" on="1"/>
        <pt x="927" y="1306" on="1"/>
        <pt x="905" y="1294" on="1"/>
        <pt x="635" y="1182" on="1"/>
        <pt x="875" y="1070" on="1"/>
        <pt x="893" y="1058" on="1"/>
        <pt x="799" y="926" on="1"/>
        <pt x="779" y="938" on="1"/>
      </contour>
    </TTGlyph>
    <TTGlyph name="at" xMin="103" yMin="-310" xMax="1833" yMax="1375">
      <contour>
        <pt x="749" y="523" on="1"/>
        <pt x="727" y="366" on="0"/>
        <pt x="764" y="196" on="0"/>
        <pt x="835" y="196" on="1"/>
        <pt x="872" y="196" on="0"/>
        <pt x="943" y="234" on="0"/>
        <pt x="1007" y="292" on="0"/>
        <pt x="1063" y="362" on="0"/>
        <pt x="1106" y="426" on="0"/>
        <pt x="1133" y="475" on="0"/>
        <pt x="1137" y="483" on="1"/>
        <pt x="1201" y="946" on="1"/>
        <pt x="1180" y="955" on="0"/>
        <pt x="1154" y="962" on="1"/>
        <pt x="1132" y="968" on="0"/>
        <pt x="1074" y="979" on="0"/>
        <pt x="1042" y="979" on="1"/>
        <pt x="1007" y="979" on="0"/>
        <pt x="945" y="963" on="0"/>
        <pt x="921" y="954" on="1"/>
        <pt x="893" y="943" on="0"/>
        <pt x="869" y="929" on="1"/>
        <pt x="845" y="891" on="0"/>
        <pt x="824" y="836" on="1"/>
        <pt x="805" y="789" on="0"/>
        <pt x="767" y="652" on="0"/>
        <pt x="754" y="559" on="1"/>
      </contour>
      <contour>
        <pt x="1358" y="-165" on="1"/>
        <pt x="1282" y="-206" on="0"/>
        <pt x="1194" y="-238" on="1"/>
        <pt x="1118" y="-265" on="0"/>
        <pt x="919" y="-310" on="0"/>
        <pt x="807" y="-310" on="1"/>
        <pt x="698" y="-310" on="0"/>
        <pt x="504" y="-282" on="0"/>
        <pt x="341" y="-219" on="0"/>
        <pt x="216" y="-117" on="0"/>
        <pt x="135" y="30" on="0"/>
        <pt x="103" y="225" on="0"/>
        <pt x="116" y="350" on="1"/>
        <pt x="132" y="501" on="0"/>
        <pt x="225" y="770" on="0"/>
        <pt x="370" y="998" on="0"/>
        <pt x="559" y="1180" on="0"/>
        <pt x="784" y="1307" on="0"/>
        <pt x="1038" y="1375" on="0"/>
        <pt x="1174" y="1375" on="1"/>
        <pt x="1342" y="1375" on="0"/>
        <pt x="1596" y="1285" on="0"/>
        <pt x="1761" y="1121" on="0"/>
        <pt x="1833" y="890" on="0"/>
        <pt x="1818" y="750" on="1"/>
        <pt x="1805" y="627" on="0"/>
        <pt x="1740" y="438" on="0"/>
        <pt x="1650" y="296" on="0"/>
        <pt x="1541" y="198" on="0"/>
        <pt x="1429" y="136" on="0"/>
        <pt x="1320" y="105" on="0"/>
        <pt x="1274" y="102" on="1"/>
        <pt x="1127" y="88" on="1"/>
        <pt x="1093" y="166" on="1"/>
        <pt x="1119" y="356" on="1"/>
        <pt x="1113" y="345" on="0"/>
        <pt x="1083" y="297" on="0"/>
        <pt x="1037" y="237" on="0"/>
        <pt x="975" y="174" on="0"/>
        <pt x="899" y="122" on="0"/>
        <pt x="810" y="88" on="0"/>
        <pt x="760" y="88" on="1"/>
        <pt x="702" y="88" on="0"/>
        <pt x="615" y="126" on="0"/>
        <pt x="562" y="209" on="0"/>
        <pt x="545" y="341" on="0"/>
        <pt x="557" y="435" on="1"/>
        <pt x="569" y="528" on="1"/>
        <pt x="584" y="640" on="0"/>
        <pt x="660" y="835" on="0"/>
        <pt x="780" y="980" on="0"/>
        <pt x="945" y="1063" on="0"/>
        <pt x="1048" y="1063" on="1"/>
        <pt x="1109" y="1063" on="0"/>
        <pt x="1229" y="1038" on="0"/>
        <pt x="1278" y="1024" on="1"/>
        <pt x="1334" y="1006" on="0"/>
        <pt x="1387" y="985" on="1"/>
        <pt x="1275" y="189" on="1"/>
        <pt x="1327" y="193" on="0"/>
        <pt x="1439" y="239" on="0"/>
        <pt x="1540" y="354" on="0"/>
        <pt x="1617" y="553" on="0"/>
        <pt x="1634" y="710" on="1"/>
        <pt x="1664" y="991" on="0"/>
        <pt x="1410" y="1255" on="0"/>
        <pt x="1131" y="1255" on="1"/>
        <pt x="1024" y="1255" on="0"/>
        <pt x="825" y="1192" on="0"/>
        <pt x="649" y="1077" on="0"/>
        <pt x="500" y="917" on="0"/>
        <pt x="386" y="722" on="0"/>
        <pt x="312" y="499" on="0"/>
        <pt x="299" y="380" on="1"/>
        <pt x="288" y="272" on="0"/>
        <pt x="316" y="103" on="0"/>
        <pt x="384" y="-24" on="0"/>
        <pt x="490" y="-112" on="0"/>
        <pt x="622" y="-166" on="0"/>
        <pt x="776" y="-190" on="0"/>
        <pt x="860" y="-190" on="1"/>
        <pt x="965" y="-190" on="0"/>
        <pt x="1149" y="-156" on="0"/>
        <pt x="1218" y="-135" on="1"/>
        <pt x="1299" y="-110" on="0"/>
        <pt x="1367" y="-79" on="1"/>
      </contour>
    </TTGlyph>
    <TTGlyph name="atilde" xMin="64" yMin="-22" xMax="1123" yMax="1534">
      <component glyphName="a" x="0" y="0" flags="0x204"/>
      <component glyphName="tilde" x="136" y="0" flags="0x4"/>
    </TTGlyph>
    <TTGlyph name="b" xMin="100" yMin="-22" xMax="1054" yMax="1562">
      <contour>
        <pt x="168" y="1540" on="1"/>
        <pt x="398" y="1562" on="1"/>
        <pt x="479" y="1484" on="1"/>
        <pt x="389" y="839" on="1"/>
        <pt x="471" y="963" on="0"/>
        <pt x="672" y="1107" on="0"/>
        <pt x="772" y="1107" on="1"/>
        <pt x="936" y="1107" on="0"/>
        <pt x="1054" y="923" on="0"/>
        <pt x="1025" y="712" on="1"/>
        <pt x="999" y="524" on="1"/>
        <pt x="963" y="274" on="0"/>
        <pt x="686" y="-22" on="0"/>
        <pt x="480" y="-22" on="1"/>
        <pt x="398" y="-22" on="0"/>
        <pt x="196" y="20" on="0"/>
        <pt x="100" y="56" on="1"/>
        <pt x="292" y="1435" on="1"/>
        <pt x="151" y="1455" on="1"/>
      </contour>
      <contour>
        <pt x="833" y="624" on="1"/>
        <pt x="861" y="825" on="0"/>
        <pt x="810" y="999" on="0"/>
        <pt x="714" y="999" on="1"/>
        <pt x="633" y="999" on="0"/>
        <pt x="449" y="840" on="0"/>
        <pt x="371" y="712" on="1"/>
        <pt x="285" y="95" on="1"/>
        <pt x="322" y="81" on="0"/>
        <pt x="430" y="62" on="0"/>
        <pt x="485" y="62" on="1"/>
        <pt x="537" y="62" on="0"/>
        <pt x="651" y="90" on="0"/>
        <pt x="698" y="112" on="1"/>
        <pt x="741" y="189" on="0"/>
        <pt x="798" y="376" on="0"/>
        <pt x="815" y="493" on="1"/>
      </contour>
    </TTGlyph>
    <TTGlyph name="backslash" xMin="170" yMin="-295" xMax="650" yMax="1540">
      <contour>
        <pt x="650" y="-275" on="1"/>
        <pt x="648" y="-295" on="1"/>
        <pt x="483" y="-295" on="1"/>
        <pt x="170" y="1520" on="1"/>
        <pt x="172" y="1540" on="1"/>
        <pt x="337" y="1540" on="1"/>
      </contour>
    </TTGlyph>
    <TTGlyph name="bar" xMin="270" yMin="-537" xMax="388" yMax="1670">
      <contour>
        <pt x="270" y="1670" on="1"/>
        <pt x="388" y="1670" on="1"/>
        <pt x="388" y="-537" on="1"/>
        <pt x="270" y="-537" on="1"/>
      </contour>
    </TTGlyph>
    <TTGlyph name="braceleft" xMin="130" yMin="-457" xMax="850" yMax="1677">
      <contour>
        <pt x="143" y="658" on="1"/>
        <pt x="239" y="658" on="1"/>
        <pt x="300" y="658" on="0"/>
        <pt x="356" y="707" on="0"/>
        <pt x="365" y="768" on="1"/>
        <pt x="453" y="1397" on="1"/>
        <pt x="462" y="1457" on="0"/>
        <pt x="518" y="1560" on="0"/>
        <pt x="603" y="1635" on="0"/>
        <pt x="712" y="1677" on="0"/>
        <pt x="772" y="1677" on="1"/>
        <pt x="850" y="1677" on="1"/>
        <pt x="837" y="1581" on="1"/>
        <pt x="816" y="1581" on="1"/>
        <pt x="725" y="1581" on="0"/>
        <pt x="635" y="1502" on="0"/>
        <pt x="622" y="1411" on="1"/>
        <pt x="540" y="828" on="1"/>
        <pt x="531" y="766" on="0"/>
        <pt x="499" y="684" on="0"/>
        <pt x="459" y="635" on="0"/>
        <pt x="412" y="615" on="0"/>
        <pt x="390" y="615" on="1"/>
        <pt x="389" y="605" on="1"/>
        <pt x="411" y="605" on="0"/>
        <pt x="452" y="585" on="0"/>
        <pt x="479" y="536" on="0"/>
        <pt x="488" y="454" on="0"/>
        <pt x="479" y="392" on="1"/>
        <pt x="397" y="-191" on="1"/>
        <pt x="384" y="-282" on="0"/>
        <pt x="452" y="-361" on="0"/>
        <pt x="543" y="-361" on="1"/>
        <pt x="564" y="-361" on="1"/>
        <pt x="551" y="-457" on="1"/>
        <pt x="473" y="-457" on="1"/>
        <pt x="413" y="-457" on="0"/>
        <pt x="316" y="-415" on="0"/>
        <pt x="251" y="-340" on="0"/>
        <pt x="223" y="-237" on="0"/>
        <pt x="232" y="-177" on="1"/>
        <pt x="320" y="452" on="1"/>
        <pt x="329" y="513" on="0"/>
        <pt x="287" y="562" on="0"/>
        <pt x="226" y="562" on="1"/>
        <pt x="130" y="562" on="1"/>
      </contour>
    </TTGlyph>
    <TTGlyph name="braceright" xMin="-30" yMin="-457" xMax="689" yMax="1677">
      <contour>
        <pt x="676" y="562" on="1"/>
        <pt x="580" y="562" on="1"/>
        <pt x="519" y="562" on="0"/>
        <pt x="463" y="513" on="0"/>
        <pt x="454" y="452" on="1"/>
        <pt x="366" y="-177" on="1"/>
        <pt x="357" y="-237" on="0"/>
        <pt x="301" y="-340" on="0"/>
        <pt x="216" y="-415" on="0"/>
        <pt x="107" y="-457" on="0"/>
        <pt x="47" y="-457" on="1"/>
        <pt x="-30" y="-457" on="1"/>
        <pt x="-17" y="-361" on="1"/>
        <pt x="4" y="-361" on="1"/>
        <pt x="94" y="-361" on="0"/>
        <pt x="184" y="-282" on="0"/>
        <pt x="197" y="-191" on="1"/>
        <pt x="279" y="392" on="1"/>
        <pt x="288" y="454" on="0"/>
        <pt x="320" y="536" on="0"/>
        <pt x="360" y="585" on="0"/>
        <pt x="406" y="605" on="0"/>
        <pt x="429" y="605" on="1"/>
        <pt x="430" y="615" on="1"/>
        <pt x="407" y="615" on="0"/>
        <pt x="367" y="635" on="0"/>
        <pt x="340" y="684" on="0"/>
        <pt x="331" y="766" on="0"/>
        <pt x="340" y="828" on="1"/>
        <pt x="422" y="1411" on="1"/>
        <pt x="435" y="1502" on="0"/>
        <pt x="367" y="1581" on="0"/>
        <pt x="276" y="1581" on="1"/>
        <pt x="255" y="1581" on="1"/>
        <pt x="268" y="1677" on="1"/>
        <pt x="346" y="1677" on="1"/>
        <pt x="406" y="1677" on="0"/>
        <pt x="503" y="1635" on="0"/>
        <pt x="568" y="1560" on="0"/>
        <pt x="596" y="1457" on="0"/>
        <pt x="587" y="1397" on="1"/>
        <pt x="499" y="768" on="1"/>
        <pt x="490" y="707" on="0"/>
        <pt x="532" y="658" on="0"/>
        <pt x="593" y="658" on="1"/>
        <pt x="689" y="658" on="1"/>
      </contour>
    </TTGlyph>
    <TTGlyph name="bracketleft" xMin="80" yMin="-457" xMax="736" yMax="1677">
      <contour>
        <pt x="378" y="1677" on="1"/>
        <pt x="736" y="1677" on="1"/>
        <pt x="723" y="1581" on="1"/>
        <pt x="531" y="1581" on="1"/>
        <pt x="259" y="-361" on="1"/>
        <pt x="450" y="-361" on="1"/>
        <pt x="437" y="-457" on="1"/>
        <pt x="80" y="-457" on="1"/>
      </contour>
    </TTGlyph>
    <TTGlyph name="bracketright" xMin="-40" yMin="-457" xMax="616" yMax="1677">
      <contour>
        <pt x="317" y="-457" on="1"/>
        <pt x="-40" y="-457" on="1"/>
        <pt x="-27" y="-361" on="1"/>
        <pt x="163" y="-361" on="1"/>
        <pt x="435" y="1581" on="1"/>
        <pt x="245" y="1581" on="1"/>
        <pt x="258" y="1677" on="1"/>
        <pt x="616" y="1677" on="1"/>
      </contour>
    </TTGlyph>
    <TTGlyph name="breve" xMin="150" yMin="1295" xMax="770" yMax="1602">
      <contour>
        <pt x="770" y="1592" on="1"/>
        <pt x="762" y="1538" on="0"/>
        <pt x="704" y="1432" on="0"/>
        <pt x="612" y="1348" on="0"/>
        <pt x="492" y="1295" on="0"/>
        <pt x="422" y="1295" on="1"/>
        <pt x="352" y="1295" on="0"/>
        <pt x="247" y="1348" on="0"/>
        <pt x="179" y="1432" on="0"/>
        <pt x="150" y="1538" on="0"/>
        <pt x="158" y="1592" on="1"/>
        <pt x="226" y="1602" on="1"/>
        <pt x="224" y="1586" on="0"/>
        <pt x="242" y="1527" on="0"/>
        <pt x="292" y="1468" on="0"/>
        <pt x="376" y="1425" on="0"/>
        <pt x="440" y="1425" on="1"/>
        <pt x="501" y="1425" on="0"/>
        <pt x="598" y="1468" on="0"/>
        <pt x="665" y="1527" on="0"/>
        <pt x="702" y="1586" on="0"/>
        <pt x="704" y="1602" on="1"/>
      </contour>
    </TTGlyph>
    <TTGlyph name="breve.case" xMin="-51" yMin="1472" xMax="627" yMax="1759">
      <contour>
        <pt x="627" y="1749" on="1"/>
        <pt x="620" y="1699" on="0"/>
        <pt x="561" y="1600" on="0"/>
        <pt x="463" y="1521" on="0"/>
        <pt x="331" y="1472" on="0"/>
        <pt x="252" y="1472" on="1"/>
        <pt x="173" y="1472" on="0"/>
        <pt x="56" y="1521" on="0"/>
        <pt x="-19" y="1600" on="0"/>
        <pt x="-51" y="1699" on="0"/>
        <pt x="-44" y="1749" on="1"/>
        <pt x="34" y="1759" on="1"/>
        <pt x="32" y="1745" on="0"/>
        <pt x="50" y="1692" on="0"/>
        <pt x="103" y="1640" on="0"/>
        <pt x="197" y="1602" on="0"/>
        <pt x="271" y="1602" on="1"/>
        <pt x="344" y="1602" on="0"/>
        <pt x="449" y="1640" on="0"/>
        <pt x="516" y="1692" on="0"/>
        <pt x="550" y="1745" on="0"/>
        <pt x="552" y="1759" on="1"/>
      </contour>
    </TTGlyph>
    <TTGlyph name="breveacute" xMin="132" yMin="1295" xMax="811" yMax="1994">
      <contour>
        <pt x="752" y="1592" on="1"/>
        <pt x="744" y="1538" on="0"/>
        <pt x="686" y="1432" on="0"/>
        <pt x="594" y="1348" on="0"/>
        <pt x="474" y="1295" on="0"/>
        <pt x="404" y="1295" on="1"/>
        <pt x="334" y="1295" on="0"/>
        <pt x="229" y="1348" on="0"/>
        <pt x="161" y="1432" on="0"/>
        <pt x="132" y="1538" on="0"/>
        <pt x="140" y="1592" on="1"/>
        <pt x="208" y="1602" on="1"/>
        <pt x="206" y="1586" on="0"/>
        <pt x="224" y="1527" on="0"/>
        <pt x="274" y="1468" on="0"/>
        <pt x="358" y="1425" on="0"/>
        <pt x="422" y="1425" on="1"/>
        <pt x="483" y="1425" on="0"/>
        <pt x="580" y="1468" on="0"/>
        <pt x="647" y="1527" on="0"/>
        <pt x="684" y="1586" on="0"/>
        <pt x="686" y="1602" on="1"/>
      </contour>
      <contour>
        <pt x="376" y="1631" on="1"/>
        <pt x="630" y="1994" on="1"/>
        <pt x="811" y="1984" on="1"/>
        <pt x="801" y="1918" on="1"/>
        <pt x="445" y="1589" on="1"/>
        <pt x="371" y="1599" on="1"/>
      </contour>
    </TTGlyph>
    <TTGlyph name="breveacute.case" xMin="-51" yMin="1472" xMax="717" yMax="2063">
      <contour>
        <pt x="627" y="1749" on="1"/>
        <pt x="620" y="1699" on="0"/>
        <pt x="561" y="1600" on="0"/>
        <pt x="463" y="1521" on="0"/>
        <pt x="331" y="1472" on="0"/>
        <pt x="252" y="1472" on="1"/>
        <pt x="173" y="1472" on="0"/>
        <pt x="56" y="1521" on="0"/>
        <pt x="-19" y="1600" on="0"/>
        <pt x="-51" y="1699" on="0"/>
        <pt x="-44" y="1749" on="1"/>
        <pt x="34" y="1759" on="1"/>
        <pt x="32" y="1745" on="0"/>
        <pt x="50" y="1692" on="0"/>
        <pt x="103" y="1640" on="0"/>
        <pt x="197" y="1602" on="0"/>
        <pt x="271" y="1602" on="1"/>
        <pt x="344" y="1602" on="0"/>
        <pt x="449" y="1640" on="0"/>
        <pt x="516" y="1692" on="0"/>
        <pt x="550" y="1745" on="0"/>
        <pt x="552" y="1759" on="1"/>
      </contour>
      <contour>
        <pt x="189" y="1782" on="1"/>
        <pt x="526" y="2063" on="1"/>
        <pt x="717" y="2053" on="1"/>
        <pt x="708" y="1987" on="1"/>
        <pt x="278" y="1739" on="1"/>
        <pt x="184" y="1750" on="1"/>
      </contour>
    </TTGlyph>
    <TTGlyph name="brevegrave" xMin="132" yMin="1295" xMax="752" yMax="1995">
      <contour>
        <pt x="752" y="1592" on="1"/>
        <pt x="744" y="1538" on="0"/>
        <pt x="686" y="1432" on="0"/>
        <pt x="594" y="1348" on="0"/>
        <pt x="474" y="1295" on="0"/>
        <pt x="404" y="1295" on="1"/>
        <pt x="334" y="1295" on="0"/>
        <pt x="229" y="1348" on="0"/>
        <pt x="161" y="1432" on="0"/>
        <pt x="132" y="1538" on="0"/>
        <pt x="140" y="1592" on="1"/>
        <pt x="208" y="1602" on="1"/>
        <pt x="206" y="1586" on="0"/>
        <pt x="224" y="1527" on="0"/>
        <pt x="274" y="1468" on="0"/>
        <pt x="358" y="1425" on="0"/>
        <pt x="422" y="1425" on="1"/>
        <pt x="483" y="1425" on="0"/>
        <pt x="580" y="1468" on="0"/>
        <pt x="647" y="1527" on="0"/>
        <pt x="684" y="1586" on="0"/>
        <pt x="686" y="1602" on="1"/>
      </contour>
      <contour>
        <pt x="537" y="1600" on="1"/>
        <pt x="448" y="1590" on="1"/>
        <pt x="204" y="1919" on="1"/>
        <pt x="214" y="1985" on="1"/>
        <pt x="390" y="1995" on="1"/>
        <pt x="542" y="1632" on="1"/>
      </contour>
    </TTGlyph>
    <TTGlyph name="brevegrave.case" xMin="-51" yMin="1472" xMax="627" yMax="2063">
      <contour>
        <pt x="627" y="1749" on="1"/>
        <pt x="620" y="1699" on="0"/>
        <pt x="561" y="1600" on="0"/>
        <pt x="463" y="1521" on="0"/>
        <pt x="331" y="1472" on="0"/>
        <pt x="252" y="1472" on="1"/>
        <pt x="173" y="1472" on="0"/>
        <pt x="56" y="1521" on="0"/>
        <pt x="-19" y="1600" on="0"/>
        <pt x="-51" y="1699" on="0"/>
        <pt x="-44" y="1749" on="1"/>
        <pt x="34" y="1759" on="1"/>
        <pt x="32" y="1745" on="0"/>
        <pt x="50" y="1692" on="0"/>
        <pt x="103" y="1640" on="0"/>
        <pt x="197" y="1602" on="0"/>
        <pt x="271" y="1602" on="1"/>
        <pt x="344" y="1602" on="0"/>
        <pt x="449" y="1640" on="0"/>
        <pt x="516" y="1692" on="0"/>
        <pt x="550" y="1745" on="0"/>
        <pt x="552" y="1759" on="1"/>
      </contour>
      <contour>
        <pt x="399" y="1750" on="1"/>
        <pt x="303" y="1739" on="1"/>
        <pt x="-37" y="1987" on="1"/>
        <pt x="-28" y="2053" on="1"/>
        <pt x="165" y="2063" on="1"/>
        <pt x="404" y="1782" on="1"/>
      </contour>
    </TTGlyph>
    <TTGlyph name="brevehookabove" xMin="132" yMin="1295" xMax="752" yMax="1995">
      <contour>
        <pt x="752" y="1592" on="1"/>
        <pt x="744" y="1538" on="0"/>
        <pt x="686" y="1432" on="0"/>
        <pt x="594" y="1348" on="0"/>
        <pt x="474" y="1295" on="0"/>
        <pt x="404" y="1295" on="1"/>
        <pt x="334" y="1295" on="0"/>
        <pt x="229" y="1348" on="0"/>
        <pt x="161" y="1432" on="0"/>
        <pt x="132" y="1538" on="0"/>
        <pt x="140" y="1592" on="1"/>
        <pt x="208" y="1602" on="1"/>
        <pt x="206" y="1586" on="0"/>
        <pt x="224" y="1527" on="0"/>
        <pt x="274" y="1468" on="0"/>
        <pt x="358" y="1425" on="0"/>
        <pt x="422" y="1425" on="1"/>
        <pt x="483" y="1425" on="0"/>
        <pt x="580" y="1468" on="0"/>
        <pt x="647" y="1527" on="0"/>
        <pt x="684" y="1586" on="0"/>
        <pt x="686" y="1602" on="1"/>
      </contour>
      <contour>
        <pt x="568" y="1703" on="1"/>
        <pt x="547" y="1690" on="0"/>
        <pt x="520" y="1672" on="0"/>
        <pt x="504" y="1658" on="0"/>
        <pt x="498" y="1646" on="0"/>
        <pt x="497" y="1640" on="1"/>
        <pt x="495" y="1632" on="0"/>
        <pt x="496" y="1616" on="0"/>
        <pt x="497" y="1610" on="1"/>
        <pt x="498" y="1602" on="0"/>
        <pt x="500" y="1596" on="1"/>
        <pt x="419" y="1569" on="1"/>
        <pt x="410" y="1584" on="0"/>
        <pt x="404" y="1600" on="1"/>
        <pt x="399" y="1614" on="0"/>
        <pt x="390" y="1644" on="0"/>
        <pt x="392" y="1658" on="1"/>
        <pt x="396" y="1683" on="0"/>
        <pt x="431" y="1729" on="0"/>
        <pt x="476" y="1759" on="1"/>
        <pt x="504" y="1777" on="0"/>
        <pt x="542" y="1805" on="0"/>
        <pt x="566" y="1829" on="0"/>
        <pt x="577" y="1852" on="0"/>
        <pt x="579" y="1867" on="1"/>
        <pt x="582" y="1889" on="0"/>
        <pt x="554" y="1921" on="0"/>
        <pt x="519" y="1921" on="1"/>
        <pt x="500" y="1921" on="0"/>
        <pt x="467" y="1915" on="0"/>
        <pt x="454" y="1912" on="1"/>
        <pt x="439" y="1908" on="0"/>
        <pt x="426" y="1903" on="1"/>
        <pt x="391" y="1812" on="1"/>
        <pt x="318" y="1817" on="1"/>
        <pt x="336" y="1940" on="1"/>
        <pt x="361" y="1955" on="0"/>
        <pt x="394" y="1967" on="1"/>
        <pt x="422" y="1978" on="0"/>
        <pt x="498" y="1995" on="0"/>
        <pt x="545" y="1995" on="1"/>
        <pt x="627" y="1995" on="0"/>
        <pt x="713" y="1927" on="0"/>
        <pt x="704" y="1865" on="1"/>
        <pt x="696" y="1810" on="0"/>
        <pt x="625" y="1738" on="0"/>
      </contour>
    </TTGlyph>
    <TTGlyph name="brevehookabove.case" xMin="-51" yMin="1472" xMax="627" yMax="2142">
      <contour>
        <pt x="627" y="1749" on="1"/>
        <pt x="620" y="1699" on="0"/>
        <pt x="561" y="1600" on="0"/>
        <pt x="463" y="1521" on="0"/>
        <pt x="331" y="1472" on="0"/>
        <pt x="252" y="1472" on="1"/>
        <pt x="173" y="1472" on="0"/>
        <pt x="56" y="1521" on="0"/>
        <pt x="-19" y="1600" on="0"/>
        <pt x="-51" y="1699" on="0"/>
        <pt x="-44" y="1749" on="1"/>
        <pt x="34" y="1759" on="1"/>
        <pt x="32" y="1745" on="0"/>
        <pt x="50" y="1692" on="0"/>
        <pt x="103" y="1640" on="0"/>
        <pt x="197" y="1602" on="0"/>
        <pt x="271" y="1602" on="1"/>
        <pt x="344" y="1602" on="0"/>
        <pt x="449" y="1640" on="0"/>
        <pt x="516" y="1692" on="0"/>
        <pt x="550" y="1745" on="0"/>
        <pt x="552" y="1759" on="1"/>
      </contour>
      <contour>
        <pt x="422" y="1850" on="1"/>
        <pt x="401" y="1837" on="0"/>
        <pt x="374" y="1819" on="0"/>
        <pt x="358" y="1805" on="0"/>
        <pt x="352" y="1793" on="0"/>
        <pt x="351" y="1787" on="1"/>
        <pt x="349" y="1779" on="0"/>
        <pt x="350" y="1763" on="0"/>
        <pt x="351" y="1757" on="1"/>
        <pt x="352" y="1749" on="0"/>
        <pt x="354" y="1743" on="1"/>
        <pt x="273" y="1716" on="1"/>
        <pt x="264" y="1731" on="0"/>
        <pt x="258" y="1747" on="1"/>
        <pt x="253" y="1761" on="0"/>
        <pt x="244" y="1791" on="0"/>
        <pt x="246" y="1805" on="1"/>
        <pt x="250" y="1830" on="0"/>
        <pt x="285" y="1876" on="0"/>
        <pt x="330" y="1906" on="1"/>
        <pt x="358" y="1924" on="0"/>
        <pt x="396" y="1952" on="0"/>
        <pt x="420" y="1976" on="0"/>
        <pt x="431" y="1999" on="0"/>
        <pt x="433" y="2014" on="1"/>
        <pt x="436" y="2036" on="0"/>
        <pt x="408" y="2068" on="0"/>
        <pt x="373" y="2068" on="1"/>
        <pt x="354" y="2068" on="0"/>
        <pt x="321" y="2062" on="0"/>
        <pt x="308" y="2059" on="1"/>
        <pt x="293" y="2055" on="0"/>
        <pt x="280" y="2050" on="1"/>
        <pt x="245" y="1959" on="1"/>
        <pt x="172" y="1964" on="1"/>
        <pt x="190" y="2087" on="1"/>
        <pt x="215" y="2102" on="0"/>
        <pt x="248" y="2114" on="1"/>
        <pt x="276" y="2125" on="0"/>
        <pt x="352" y="2142" on="0"/>
        <pt x="399" y="2142" on="1"/>
        <pt x="481" y="2142" on="0"/>
        <pt x="567" y="2074" on="0"/>
        <pt x="558" y="2012" on="1"/>
        <pt x="550" y="1957" on="0"/>
        <pt x="479" y="1885" on="0"/>
      </contour>
    </TTGlyph>
    <TTGlyph name="brevetilde" xMin="71" yMin="1295" xMax="908" yMax="1939">
      <contour>
        <pt x="752" y="1592" on="1"/>
        <pt x="744" y="1538" on="0"/>
        <pt x="686" y="1432" on="0"/>
        <pt x="594" y="1348" on="0"/>
        <pt x="474" y="1295" on="0"/>
        <pt x="404" y="1295" on="1"/>
        <pt x="334" y="1295" on="0"/>
        <pt x="229" y="1348" on="0"/>
        <pt x="161" y="1432" on="0"/>
        <pt x="132" y="1538" on="0"/>
        <pt x="140" y="1592" on="1"/>
        <pt x="208" y="1602" on="1"/>
        <pt x="206" y="1586" on="0"/>
        <pt x="224" y="1527" on="0"/>
        <pt x="274" y="1468" on="0"/>
        <pt x="358" y="1425" on="0"/>
        <pt x="422" y="1425" on="1"/>
        <pt x="483" y="1425" on="0"/>
        <pt x="580" y="1468" on="0"/>
        <pt x="647" y="1527" on="0"/>
        <pt x="684" y="1586" on="0"/>
        <pt x="686" y="1602" on="1"/>
      </contour>
      <contour>
        <pt x="75" y="1712" on="1"/>
        <pt x="91" y="1820" on="0"/>
        <pt x="224" y="1931" on="0"/>
        <pt x="327" y="1931" on="1"/>
        <pt x="381" y="1931" on="0"/>
        <pt x="486" y="1890" on="0"/>
        <pt x="584" y="1840" on="0"/>
        <pt x="671" y="1799" on="0"/>
        <pt x="706" y="1799" on="1"/>
        <pt x="747" y="1799" on="0"/>
        <pt x="808" y="1863" on="0"/>
        <pt x="819" y="1929" on="1"/>
        <pt x="908" y="1939" on="1"/>
        <pt x="901" y="1892" on="1"/>
        <pt x="886" y="1790" on="0"/>
        <pt x="762" y="1673" on="0"/>
        <pt x="661" y="1673" on="1"/>
        <pt x="612" y="1673" on="0"/>
        <pt x="502" y="1714" on="0"/>
        <pt x="394" y="1764" on="0"/>
        <pt x="296" y="1805" on="0"/>
        <pt x="260" y="1805" on="1"/>
        <pt x="242" y="1805" on="0"/>
        <pt x="207" y="1796" on="0"/>
        <pt x="179" y="1772" on="0"/>
        <pt x="157" y="1730" on="0"/>
        <pt x="152" y="1697" on="1"/>
        <pt x="71" y="1687" on="1"/>
      </contour>
    </TTGlyph>
    <TTGlyph name="brevetilde.case" xMin="-100" yMin="1472" xMax="736" yMax="2086">
      <contour>
        <pt x="627" y="1749" on="1"/>
        <pt x="620" y="1699" on="0"/>
        <pt x="561" y="1600" on="0"/>
        <pt x="463" y="1521" on="0"/>
        <pt x="331" y="1472" on="0"/>
        <pt x="252" y="1472" on="1"/>
        <pt x="173" y="1472" on="0"/>
        <pt x="56" y="1521" on="0"/>
        <pt x="-19" y="1600" on="0"/>
        <pt x="-51" y="1699" on="0"/>
        <pt x="-44" y="1749" on="1"/>
        <pt x="34" y="1759" on="1"/>
        <pt x="32" y="1745" on="0"/>
        <pt x="50" y="1692" on="0"/>
        <pt x="103" y="1640" on="0"/>
        <pt x="197" y="1602" on="0"/>
        <pt x="271" y="1602" on="1"/>
        <pt x="344" y="1602" on="0"/>
        <pt x="449" y="1640" on="0"/>
        <pt x="516" y="1692" on="0"/>
        <pt x="550" y="1745" on="0"/>
        <pt x="552" y="1759" on="1"/>
      </contour>
      <contour>
        <pt x="-96" y="1859" on="1"/>
        <pt x="-88" y="1913" on="0"/>
        <pt x="-47" y="1994" on="0"/>
        <pt x="13" y="2050" on="0"/>
        <pt x="86" y="2078" on="0"/>
        <pt x="126" y="2078" on="1"/>
        <pt x="191" y="2078" on="0"/>
        <pt x="308" y="2037" on="0"/>
        <pt x="410" y="1987" on="0"/>
        <pt x="496" y="1946" on="0"/>
        <pt x="530" y="1946" on="1"/>
        <pt x="566" y="1946" on="0"/>
        <pt x="627" y="2010" on="0"/>
        <pt x="637" y="2076" on="1"/>
        <pt x="736" y="2086" on="1"/>
        <pt x="729" y="2039" on="1"/>
        <pt x="721" y="1988" on="0"/>
        <pt x="683" y="1907" on="0"/>
        <pt x="626" y="1850" on="0"/>
        <pt x="554" y="1820" on="0"/>
        <pt x="512" y="1820" on="1"/>
        <pt x="455" y="1820" on="0"/>
        <pt x="335" y="1861" on="0"/>
        <pt x="224" y="1911" on="0"/>
        <pt x="127" y="1952" on="0"/>
        <pt x="92" y="1952" on="1"/>
        <pt x="75" y="1952" on="0"/>
        <pt x="43" y="1943" on="0"/>
        <pt x="16" y="1919" on="0"/>
        <pt x="-4" y="1877" on="0"/>
        <pt x="-9" y="1844" on="1"/>
        <pt x="-100" y="1834" on="1"/>
      </contour>
    </TTGlyph>
    <TTGlyph name="brokenbar" xMin="270" yMin="-537" xMax="388" yMax="1670">
      <contour>
        <pt x="270" y="320" on="1"/>
        <pt x="388" y="320" on="1"/>
        <pt x="388" y="-537" on="1"/>
        <pt x="270" y="-537" on="1"/>
      </contour>
      <contour>
        <pt x="270" y="1670" on="1"/>
        <pt x="388" y="1670" on="1"/>
        <pt x="388" y="813" on="1"/>
        <pt x="270" y="813" on="1"/>
      </contour>
    </TTGlyph>
    <TTGlyph name="bullet" xMin="220" yMin="409" xMax="690" yMax="880">
      <contour>
        <pt x="220" y="583" on="1"/>
        <pt x="220" y="642" on="0"/>
        <pt x="248" y="750" on="0"/>
        <pt x="295" y="832" on="0"/>
        <pt x="359" y="880" on="0"/>
        <pt x="395" y="880" on="1"/>
        <pt x="457" y="880" on="0"/>
        <pt x="565" y="852" on="0"/>
        <pt x="644" y="804" on="0"/>
        <pt x="690" y="740" on="0"/>
        <pt x="690" y="703" on="1"/>
        <pt x="690" y="644" on="0"/>
        <pt x="662" y="538" on="0"/>
        <pt x="614" y="457" on="0"/>
        <pt x="550" y="409" on="0"/>
        <pt x="514" y="409" on="1"/>
        <pt x="452" y="409" on="0"/>
        <pt x="345" y="437" on="0"/>
        <pt x="265" y="484" on="0"/>
        <pt x="220" y="547" on="0"/>
      </contour>
    </TTGlyph>
    <TTGlyph name="c" xMin="59" yMin="-22" xMax="924" yMax="1107">
      <contour>
        <pt x="868" y="818" on="1"/>
        <pt x="782" y="808" on="1"/>
        <pt x="782" y="989" on="1"/>
        <pt x="750" y="1003" on="0"/>
        <pt x="668" y="1017" on="0"/>
        <pt x="623" y="1017" on="1"/>
        <pt x="572" y="1017" on="0"/>
        <pt x="474" y="989" on="0"/>
        <pt x="438" y="968" on="1"/>
        <pt x="384" y="890" on="0"/>
        <pt x="309" y="689" on="0"/>
        <pt x="289" y="562" on="1"/>
        <pt x="272" y="443" on="1"/>
        <pt x="247" y="261" on="0"/>
        <pt x="372" y="68" on="0"/>
        <pt x="481" y="68" on="1"/>
        <pt x="545" y="68" on="0"/>
        <pt x="698" y="117" on="0"/>
        <pt x="764" y="158" on="1"/>
        <pt x="764" y="72" on="1"/>
        <pt x="700" y="29" on="0"/>
        <pt x="522" y="-22" on="0"/>
        <pt x="427" y="-22" on="1"/>
        <pt x="232" y="-22" on="0"/>
        <pt x="59" y="200" on="0"/>
        <pt x="90" y="429" on="1"/>
        <pt x="104" y="522" on="1"/>
        <pt x="145" y="799" on="0"/>
        <pt x="439" y="1107" on="0"/>
        <pt x="645" y="1107" on="1"/>
        <pt x="725" y="1107" on="0"/>
        <pt x="871" y="1081" on="0"/>
        <pt x="924" y="1055" on="1"/>
      </contour>
    </TTGlyph>
    <TTGlyph name="cacute" xMin="59" yMin="-22" xMax="1063" yMax="1670">
      <component glyphName="c" x="0" y="0" flags="0x204"/>
      <component glyphName="acute" x="423" y="0" flags="0x4"/>
    </TTGlyph>
    <TTGlyph name="caron" xMin="200" yMin="1255" xMax="773" yMax="1670">
      <contour>
        <pt x="204" y="1660" on="1"/>
        <pt x="301" y="1670" on="1"/>
        <pt x="442" y="1408" on="1"/>
        <pt x="680" y="1670" on="1"/>
        <pt x="773" y="1660" on="1"/>
        <pt x="769" y="1628" on="1"/>
        <pt x="483" y="1255" on="1"/>
        <pt x="352" y="1265" on="1"/>
        <pt x="200" y="1628" on="1"/>
      </contour>
    </TTGlyph>
    <TTGlyph name="caron.alt" xMin="93" yMin="1157" xMax="312" yMax="1540">
      <contour>
        <pt x="146" y="1540" on="1"/>
        <pt x="312" y="1540" on="1"/>
        <pt x="307" y="1498" on="1"/>
        <pt x="196" y="1157" on="1"/>
        <pt x="93" y="1157" on="1"/>
      </contour>
    </TTGlyph>
    <TTGlyph name="caron.case" xMin="-25" yMin="1460" xMax="648" yMax="1794">
      <contour>
        <pt x="-20" y="1784" on="1"/>
        <pt x="85" y="1794" on="1"/>
        <pt x="283" y="1592" on="1"/>
        <pt x="554" y="1794" on="1"/>
        <pt x="648" y="1784" on="1"/>
        <pt x="643" y="1752" on="1"/>
        <pt x="319" y="1460" on="1"/>
        <pt x="187" y="1470" on="1"/>
        <pt x="-25" y="1752" on="1"/>
      </contour>
    </TTGlyph>
    <TTGlyph name="ccaron" xMin="59" yMin="-22" xMax="1009" yMax="1670">
      <component glyphName="c" x="0" y="0" flags="0x204"/>
      <component glyphName="caron" x="236" y="0" flags="0x4"/>
    </TTGlyph>
    <TTGlyph name="ccedilla" xMin="59" yMin="-457" xMax="924" yMax="1107">
      <contour>
        <pt x="868" y="818" on="1"/>
        <pt x="782" y="808" on="1"/>
        <pt x="782" y="989" on="1"/>
        <pt x="750" y="1003" on="0"/>
        <pt x="668" y="1017" on="0"/>
        <pt x="623" y="1017" on="1"/>
        <pt x="572" y="1017" on="0"/>
        <pt x="474" y="989" on="0"/>
        <pt x="438" y="968" on="1"/>
        <pt x="384" y="890" on="0"/>
        <pt x="309" y="689" on="0"/>
        <pt x="289" y="562" on="1"/>
        <pt x="272" y="443" on="1"/>
        <pt x="247" y="261" on="0"/>
        <pt x="372" y="68" on="0"/>
        <pt x="481" y="68" on="1"/>
        <pt x="545" y="68" on="0"/>
        <pt x="698" y="117" on="0"/>
        <pt x="764" y="158" on="1"/>
        <pt x="764" y="72" on="1"/>
        <pt x="700" y="29" on="0"/>
        <pt x="611" y="3" on="1"/>
        <pt x="559" y="-11" on="0"/>
        <pt x="504" y="-17" on="1"/>
        <pt x="464" y="-98" on="1"/>
        <pt x="504" y="-109" on="0"/>
        <pt x="571" y="-137" on="0"/>
        <pt x="616" y="-179" on="0"/>
        <pt x="636" y="-239" on="0"/>
        <pt x="630" y="-281" on="1"/>
        <pt x="625" y="-319" on="0"/>
        <pt x="586" y="-383" on="0"/>
        <pt x="521" y="-430" on="0"/>
        <pt x="433" y="-457" on="0"/>
        <pt x="378" y="-457" on="1"/>
        <pt x="338" y="-457" on="0"/>
        <pt x="272" y="-443" on="0"/>
        <pt x="247" y="-434" on="1"/>
        <pt x="218" y="-423" on="0"/>
        <pt x="194" y="-410" on="1"/>
        <pt x="217" y="-347" on="1"/>
        <pt x="242" y="-358" on="0"/>
        <pt x="269" y="-367" on="1"/>
        <pt x="292" y="-375" on="0"/>
        <pt x="351" y="-387" on="0"/>
        <pt x="382" y="-387" on="1"/>
        <pt x="402" y="-387" on="0"/>
        <pt x="434" y="-383" on="0"/>
        <pt x="445" y="-381" on="1"/>
        <pt x="457" y="-378" on="0"/>
        <pt x="467" y="-374" on="1"/>
        <pt x="472" y="-362" on="0"/>
        <pt x="476" y="-348" on="1"/>
        <pt x="480" y="-336" on="0"/>
        <pt x="487" y="-306" on="0"/>
        <pt x="489" y="-289" on="1"/>
        <pt x="494" y="-235" on="0"/>
        <pt x="433" y="-173" on="0"/>
        <pt x="364" y="-153" on="1"/>
        <pt x="328" y="-101" on="1"/>
        <pt x="370" y="-19" on="1"/>
        <pt x="219" y="-5" on="0"/>
        <pt x="145" y="89" on="1"/>
        <pt x="59" y="200" on="0"/>
        <pt x="90" y="429" on="1"/>
        <pt x="104" y="522" on="1"/>
        <pt x="145" y="799" on="0"/>
        <pt x="439" y="1107" on="0"/>
        <pt x="645" y="1107" on="1"/>
        <pt x="725" y="1107" on="0"/>
        <pt x="871" y="1081" on="0"/>
        <pt x="924" y="1055" on="1"/>
      </contour>
    </TTGlyph>
    <TTGlyph name="ccircumflex" xMin="59" yMin="-22" xMax="925" yMax="1680">
      <component glyphName="c" x="0" y="0" flags="0x204"/>
      <component glyphName="circumflex" x="152" y="0" flags="0x4"/>
    </TTGlyph>
    <TTGlyph name="cdotaccent" xMin="59" yMin="-22" xMax="924" yMax="1540">
      <component glyphName="c" x="0" y="0" flags="0x204"/>
      <component glyphName="dotaccent" x="343" y="0" flags="0x4"/>
    </TTGlyph>
    <TTGlyph name="cedilla" xMin="200" yMin="-457" xMax="642" yMax="37">
      <contour>
        <pt x="538" y="37" on="1"/>
        <pt x="470" y="-98" on="1"/>
        <pt x="510" y="-109" on="0"/>
        <pt x="577" y="-137" on="0"/>
        <pt x="622" y="-179" on="0"/>
        <pt x="642" y="-239" on="0"/>
        <pt x="636" y="-281" on="1"/>
        <pt x="631" y="-319" on="0"/>
        <pt x="592" y="-383" on="0"/>
        <pt x="527" y="-430" on="0"/>
        <pt x="439" y="-457" on="0"/>
        <pt x="384" y="-457" on="1"/>
        <pt x="344" y="-457" on="0"/>
        <pt x="278" y="-443" on="0"/>
        <pt x="253" y="-434" on="1"/>
        <pt x="224" y="-423" on="0"/>
        <pt x="200" y="-410" on="1"/>
        <pt x="223" y="-347" on="1"/>
        <pt x="248" y="-358" on="0"/>
        <pt x="275" y="-367" on="1"/>
        <pt x="298" y="-375" on="0"/>
        <pt x="357" y="-387" on="0"/>
        <pt x="388" y="-387" on="1"/>
        <pt x="408" y="-387" on="0"/>
        <pt x="440" y="-383" on="0"/>
        <pt x="451" y="-381" on="1"/>
        <pt x="463" y="-378" on="0"/>
        <pt x="473" y="-374" on="1"/>
        <pt x="478" y="-362" on="0"/>
        <pt x="482" y="-348" on="1"/>
        <pt x="486" y="-336" on="0"/>
        <pt x="493" y="-306" on="0"/>
        <pt x="495" y="-289" on="1"/>
        <pt x="500" y="-235" on="0"/>
        <pt x="439" y="-173" on="0"/>
        <pt x="370" y="-153" on="1"/>
        <pt x="334" y="-101" on="1"/>
        <pt x="406" y="37" on="1"/>
      </contour>
    </TTGlyph>
    <TTGlyph name="cent" xMin="74" yMin="-245" xMax="964" yMax="1353">
      <contour>
        <pt x="429" y="-21" on="1"/>
        <pt x="324" y="-19" on="0"/>
        <pt x="180" y="45" on="0"/>
        <pt x="97" y="160" on="0"/>
        <pt x="74" y="325" on="0"/>
        <pt x="90" y="429" on="1"/>
        <pt x="104" y="522" on="1"/>
        <pt x="124" y="653" on="0"/>
        <pt x="213" y="857" on="0"/>
        <pt x="339" y="1003" on="0"/>
        <pt x="497" y="1088" on="0"/>
        <pt x="587" y="1101" on="1"/>
        <pt x="623" y="1353" on="1"/>
        <pt x="721" y="1353" on="1"/>
        <pt x="686" y="1107" on="1"/>
        <pt x="756" y="1105" on="0"/>
        <pt x="860" y="1088" on="0"/>
        <pt x="895" y="1079" on="1"/>
        <pt x="935" y="1068" on="0"/>
        <pt x="964" y="1055" on="1"/>
        <pt x="908" y="818" on="1"/>
        <pt x="822" y="808" on="1"/>
        <pt x="822" y="989" on="1"/>
        <pt x="807" y="996" on="0"/>
        <pt x="785" y="1001" on="1"/>
        <pt x="766" y="1006" on="0"/>
        <pt x="711" y="1014" on="0"/>
        <pt x="673" y="1016" on="1"/>
        <pt x="540" y="70" on="1"/>
        <pt x="593" y="75" on="0"/>
        <pt x="689" y="104" on="0"/>
        <pt x="725" y="119" on="1"/>
        <pt x="767" y="137" on="0"/>
        <pt x="804" y="158" on="1"/>
        <pt x="804" y="72" on="1"/>
        <pt x="772" y="52" on="0"/>
        <pt x="731" y="34" on="1"/>
        <pt x="696" y="19" on="0"/>
        <pt x="593" y="-11" on="0"/>
        <pt x="528" y="-18" on="1"/>
        <pt x="496" y="-245" on="1"/>
        <pt x="398" y="-245" on="1"/>
      </contour>
      <contour>
        <pt x="272" y="443" on="1"/>
        <pt x="258" y="354" on="0"/>
        <pt x="277" y="224" on="0"/>
        <pt x="328" y="135" on="0"/>
        <pt x="402" y="84" on="0"/>
        <pt x="443" y="74" on="1"/>
        <pt x="575" y="1011" on="1"/>
        <pt x="546" y="1006" on="0"/>
        <pt x="498" y="992" on="0"/>
        <pt x="481" y="985" on="1"/>
        <pt x="461" y="977" on="0"/>
        <pt x="444" y="968" on="1"/>
        <pt x="410" y="922" on="0"/>
        <pt x="380" y="861" on="1"/>
        <pt x="354" y="809" on="0"/>
        <pt x="303" y="659" on="0"/>
        <pt x="289" y="562" on="1"/>
      </contour>
    </TTGlyph>
    <TTGlyph name="circumflex" xMin="200" yMin="1265" xMax="773" yMax="1680">
      <contour>
        <pt x="769" y="1275" on="1"/>
        <pt x="672" y="1265" on="1"/>
        <pt x="523" y="1527" on="1"/>
        <pt x="293" y="1265" on="1"/>
        <pt x="200" y="1275" on="1"/>
        <pt x="204" y="1307" on="1"/>
        <pt x="490" y="1680" on="1"/>
        <pt x="621" y="1670" on="1"/>
        <pt x="773" y="1307" on="1"/>
      </contour>
    </TTGlyph>
    <TTGlyph name="circumflex.case" xMin="-85" yMin="1460" xMax="588" yMax="1794">
      <contour>
        <pt x="583" y="1470" on="1"/>
        <pt x="477" y="1460" on="1"/>
        <pt x="281" y="1658" on="1"/>
        <pt x="8" y="1460" on="1"/>
        <pt x="-85" y="1470" on="1"/>
        <pt x="-80" y="1502" on="1"/>
        <pt x="243" y="1794" on="1"/>
        <pt x="375" y="1784" on="1"/>
        <pt x="588" y="1502" on="1"/>
      </contour>
    </TTGlyph>
    <TTGlyph name="circumflexacute" xMin="138" yMin="1265" xMax="996" yMax="1809">
      <contour>
        <pt x="707" y="1275" on="1"/>
        <pt x="610" y="1265" on="1"/>
        <pt x="461" y="1527" on="1"/>
        <pt x="231" y="1265" on="1"/>
        <pt x="138" y="1275" on="1"/>
        <pt x="142" y="1307" on="1"/>
        <pt x="428" y="1680" on="1"/>
        <pt x="559" y="1670" on="1"/>
        <pt x="711" y="1307" on="1"/>
      </contour>
      <contour>
        <pt x="679" y="1572" on="1"/>
        <pt x="855" y="1809" on="1"/>
        <pt x="996" y="1799" on="1"/>
        <pt x="986" y="1733" on="1"/>
        <pt x="738" y="1530" on="1"/>
        <pt x="674" y="1540" on="1"/>
      </contour>
    </TTGlyph>
    <TTGlyph name="circumflexacute.case" xMin="-85" yMin="1460" xMax="881" yMax="1916">
      <contour>
        <pt x="583" y="1470" on="1"/>
        <pt x="477" y="1460" on="1"/>
        <pt x="281" y="1658" on="1"/>
        <pt x="8" y="1460" on="1"/>
        <pt x="-85" y="1470" on="1"/>
        <pt x="-80" y="1502" on="1"/>
        <pt x="243" y="1794" on="1"/>
        <pt x="375" y="1784" on="1"/>
        <pt x="588" y="1502" on="1"/>
      </contour>
      <contour>
        <pt x="502" y="1734" on="1"/>
        <pt x="740" y="1916" on="1"/>
        <pt x="881" y="1906" on="1"/>
        <pt x="872" y="1840" on="1"/>
        <pt x="581" y="1691" on="1"/>
        <pt x="497" y="1702" on="1"/>
      </contour>
    </TTGlyph>
    <TTGlyph name="circumflexgrave" xMin="11" yMin="1265" xMax="711" yMax="1809">
      <contour>
        <pt x="707" y="1275" on="1"/>
        <pt x="610" y="1265" on="1"/>
        <pt x="461" y="1527" on="1"/>
        <pt x="231" y="1265" on="1"/>
        <pt x="138" y="1275" on="1"/>
        <pt x="142" y="1307" on="1"/>
        <pt x="428" y="1680" on="1"/>
        <pt x="559" y="1670" on="1"/>
        <pt x="711" y="1307" on="1"/>
      </contour>
      <contour>
        <pt x="261" y="1540" on="1"/>
        <pt x="182" y="1530" on="1"/>
        <pt x="11" y="1733" on="1"/>
        <pt x="21" y="1799" on="1"/>
        <pt x="147" y="1809" on="1"/>
        <pt x="266" y="1572" on="1"/>
      </contour>
    </TTGlyph>
    <TTGlyph name="circumflexgrave.case" xMin="-241" yMin="1460" xMax="588" yMax="1916">
      <contour>
        <pt x="583" y="1470" on="1"/>
        <pt x="477" y="1460" on="1"/>
        <pt x="281" y="1658" on="1"/>
        <pt x="8" y="1460" on="1"/>
        <pt x="-85" y="1470" on="1"/>
        <pt x="-80" y="1502" on="1"/>
        <pt x="243" y="1794" on="1"/>
        <pt x="375" y="1784" on="1"/>
        <pt x="588" y="1502" on="1"/>
      </contour>
      <contour>
        <pt x="81" y="1702" on="1"/>
        <pt x="-5" y="1691" on="1"/>
        <pt x="-241" y="1840" on="1"/>
        <pt x="-232" y="1906" on="1"/>
        <pt x="-89" y="1916" on="1"/>
        <pt x="86" y="1734" on="1"/>
      </contour>
    </TTGlyph>
    <TTGlyph name="circumflexhookabove" xMin="138" yMin="1265" xMax="992" yMax="1939">
      <contour>
        <pt x="707" y="1275" on="1"/>
        <pt x="610" y="1265" on="1"/>
        <pt x="461" y="1527" on="1"/>
        <pt x="231" y="1265" on="1"/>
        <pt x="138" y="1275" on="1"/>
        <pt x="142" y="1307" on="1"/>
        <pt x="428" y="1680" on="1"/>
        <pt x="559" y="1670" on="1"/>
        <pt x="711" y="1307" on="1"/>
      </contour>
      <contour>
        <pt x="847" y="1647" on="1"/>
        <pt x="826" y="1634" on="0"/>
        <pt x="799" y="1616" on="0"/>
        <pt x="783" y="1602" on="0"/>
        <pt x="777" y="1590" on="0"/>
        <pt x="776" y="1584" on="1"/>
        <pt x="774" y="1576" on="0"/>
        <pt x="775" y="1560" on="0"/>
        <pt x="776" y="1554" on="1"/>
        <pt x="777" y="1546" on="0"/>
        <pt x="779" y="1540" on="1"/>
        <pt x="698" y="1513" on="1"/>
        <pt x="689" y="1528" on="0"/>
        <pt x="683" y="1544" on="1"/>
        <pt x="678" y="1558" on="0"/>
        <pt x="669" y="1588" on="0"/>
        <pt x="671" y="1602" on="1"/>
        <pt x="675" y="1627" on="0"/>
        <pt x="710" y="1673" on="0"/>
        <pt x="755" y="1703" on="1"/>
        <pt x="783" y="1721" on="0"/>
        <pt x="821" y="1749" on="0"/>
        <pt x="845" y="1773" on="0"/>
        <pt x="856" y="1796" on="0"/>
        <pt x="858" y="1811" on="1"/>
        <pt x="861" y="1833" on="0"/>
        <pt x="833" y="1865" on="0"/>
        <pt x="798" y="1865" on="1"/>
        <pt x="779" y="1865" on="0"/>
        <pt x="746" y="1859" on="0"/>
        <pt x="733" y="1856" on="1"/>
        <pt x="718" y="1852" on="0"/>
        <pt x="705" y="1847" on="1"/>
        <pt x="670" y="1756" on="1"/>
        <pt x="597" y="1761" on="1"/>
        <pt x="615" y="1884" on="1"/>
        <pt x="640" y="1899" on="0"/>
        <pt x="673" y="1911" on="1"/>
        <pt x="701" y="1922" on="0"/>
        <pt x="777" y="1939" on="0"/>
        <pt x="824" y="1939" on="1"/>
        <pt x="906" y="1939" on="0"/>
        <pt x="992" y="1871" on="0"/>
        <pt x="983" y="1809" on="1"/>
        <pt x="975" y="1754" on="0"/>
        <pt x="904" y="1682" on="0"/>
      </contour>
    </TTGlyph>
    <TTGlyph name="circumflexhookabove.case" xMin="-85" yMin="1460" xMax="817" yMax="2101">
      <contour>
        <pt x="583" y="1470" on="1"/>
        <pt x="477" y="1460" on="1"/>
        <pt x="281" y="1658" on="1"/>
        <pt x="8" y="1460" on="1"/>
        <pt x="-85" y="1470" on="1"/>
        <pt x="-80" y="1502" on="1"/>
        <pt x="243" y="1794" on="1"/>
        <pt x="375" y="1784" on="1"/>
        <pt x="588" y="1502" on="1"/>
      </contour>
      <contour>
        <pt x="672" y="1809" on="1"/>
        <pt x="651" y="1796" on="0"/>
        <pt x="624" y="1778" on="0"/>
        <pt x="608" y="1764" on="0"/>
        <pt x="602" y="1752" on="0"/>
        <pt x="601" y="1746" on="1"/>
        <pt x="599" y="1738" on="0"/>
        <pt x="600" y="1722" on="0"/>
        <pt x="601" y="1716" on="1"/>
        <pt x="602" y="1708" on="0"/>
        <pt x="604" y="1702" on="1"/>
        <pt x="523" y="1675" on="1"/>
        <pt x="514" y="1690" on="0"/>
        <pt x="508" y="1706" on="1"/>
        <pt x="503" y="1720" on="0"/>
        <pt x="494" y="1750" on="0"/>
        <pt x="496" y="1764" on="1"/>
        <pt x="500" y="1789" on="0"/>
        <pt x="535" y="1835" on="0"/>
        <pt x="580" y="1865" on="1"/>
        <pt x="608" y="1883" on="0"/>
        <pt x="646" y="1911" on="0"/>
        <pt x="670" y="1935" on="0"/>
        <pt x="681" y="1958" on="0"/>
        <pt x="683" y="1973" on="1"/>
        <pt x="686" y="1995" on="0"/>
        <pt x="658" y="2027" on="0"/>
        <pt x="623" y="2027" on="1"/>
        <pt x="604" y="2027" on="0"/>
        <pt x="571" y="2021" on="0"/>
        <pt x="558" y="2018" on="1"/>
        <pt x="543" y="2014" on="0"/>
        <pt x="530" y="2009" on="1"/>
        <pt x="495" y="1918" on="1"/>
        <pt x="422" y="1923" on="1"/>
        <pt x="440" y="2046" on="1"/>
        <pt x="465" y="2061" on="0"/>
        <pt x="498" y="2073" on="1"/>
        <pt x="526" y="2084" on="0"/>
        <pt x="602" y="2101" on="0"/>
        <pt x="649" y="2101" on="1"/>
        <pt x="731" y="2101" on="0"/>
        <pt x="817" y="2033" on="0"/>
        <pt x="808" y="1971" on="1"/>
        <pt x="800" y="1916" on="0"/>
        <pt x="729" y="1844" on="0"/>
      </contour>
    </TTGlyph>
    <TTGlyph name="circumflextilde" xMin="115" yMin="1265" xMax="952" yMax="2047">
      <contour>
        <pt x="119" y="1820" on="1"/>
        <pt x="135" y="1928" on="0"/>
        <pt x="268" y="2039" on="0"/>
        <pt x="371" y="2039" on="1"/>
        <pt x="425" y="2039" on="0"/>
        <pt x="530" y="1998" on="0"/>
        <pt x="628" y="1948" on="0"/>
        <pt x="715" y="1907" on="0"/>
        <pt x="750" y="1907" on="1"/>
        <pt x="791" y="1907" on="0"/>
        <pt x="852" y="1971" on="0"/>
        <pt x="863" y="2037" on="1"/>
        <pt x="952" y="2047" on="1"/>
        <pt x="945" y="2000" on="1"/>
        <pt x="930" y="1898" on="0"/>
        <pt x="806" y="1781" on="0"/>
        <pt x="705" y="1781" on="1"/>
        <pt x="656" y="1781" on="0"/>
        <pt x="546" y="1822" on="0"/>
        <pt x="438" y="1872" on="0"/>
        <pt x="340" y="1913" on="0"/>
        <pt x="304" y="1913" on="1"/>
        <pt x="286" y="1913" on="0"/>
        <pt x="251" y="1904" on="0"/>
        <pt x="223" y="1880" on="0"/>
        <pt x="201" y="1838" on="0"/>
        <pt x="196" y="1805" on="1"/>
        <pt x="115" y="1795" on="1"/>
      </contour>
      <contour>
        <pt x="707" y="1275" on="1"/>
        <pt x="610" y="1265" on="1"/>
        <pt x="461" y="1527" on="1"/>
        <pt x="231" y="1265" on="1"/>
        <pt x="138" y="1275" on="1"/>
        <pt x="142" y="1307" on="1"/>
        <pt x="428" y="1680" on="1"/>
        <pt x="559" y="1670" on="1"/>
        <pt x="711" y="1307" on="1"/>
      </contour>
    </TTGlyph>
    <TTGlyph name="circumflextilde.case" xMin="-85" yMin="1460" xMax="777" yMax="2156">
      <contour>
        <pt x="-55" y="1929" on="1"/>
        <pt x="-47" y="1983" on="0"/>
        <pt x="-6" y="2064" on="0"/>
        <pt x="54" y="2120" on="0"/>
        <pt x="127" y="2148" on="0"/>
        <pt x="167" y="2148" on="1"/>
        <pt x="232" y="2148" on="0"/>
        <pt x="349" y="2107" on="0"/>
        <pt x="451" y="2057" on="0"/>
        <pt x="537" y="2016" on="0"/>
        <pt x="571" y="2016" on="1"/>
        <pt x="607" y="2016" on="0"/>
        <pt x="668" y="2080" on="0"/>
        <pt x="678" y="2146" on="1"/>
        <pt x="777" y="2156" on="1"/>
        <pt x="770" y="2109" on="1"/>
        <pt x="762" y="2058" on="0"/>
        <pt x="724" y="1977" on="0"/>
        <pt x="667" y="1920" on="0"/>
        <pt x="595" y="1890" on="0"/>
        <pt x="553" y="1890" on="1"/>
        <pt x="496" y="1890" on="0"/>
        <pt x="376" y="1931" on="0"/>
        <pt x="265" y="1981" on="0"/>
        <pt x="168" y="2022" on="0"/>
        <pt x="133" y="2022" on="1"/>
        <pt x="116" y="2022" on="0"/>
        <pt x="84" y="2013" on="0"/>
        <pt x="57" y="1989" on="0"/>
        <pt x="37" y="1947" on="0"/>
        <pt x="32" y="1914" on="1"/>
        <pt x="-59" y="1904" on="1"/>
      </contour>
      <contour>
        <pt x="583" y="1470" on="1"/>
        <pt x="477" y="1460" on="1"/>
        <pt x="281" y="1658" on="1"/>
        <pt x="8" y="1460" on="1"/>
        <pt x="-85" y="1470" on="1"/>
        <pt x="-80" y="1502" on="1"/>
        <pt x="243" y="1794" on="1"/>
        <pt x="375" y="1784" on="1"/>
        <pt x="588" y="1502" on="1"/>
      </contour>
    </TTGlyph>
    <TTGlyph name="colon" xMin="110" yMin="-22" xMax="483" yMax="1010">
      <contour>
        <pt x="110" y="71" on="1"/>
        <pt x="110" y="106" on="0"/>
        <pt x="124" y="169" on="0"/>
        <pt x="149" y="216" on="0"/>
        <pt x="182" y="244" on="0"/>
        <pt x="202" y="244" on="1"/>
        <pt x="238" y="244" on="0"/>
        <pt x="301" y="229" on="0"/>
        <pt x="348" y="203" on="0"/>
        <pt x="375" y="168" on="0"/>
        <pt x="375" y="149" on="1"/>
        <pt x="375" y="113" on="0"/>
        <pt x="361" y="51" on="0"/>
        <pt x="335" y="5" on="0"/>
        <pt x="301" y="-22" on="0"/>
        <pt x="281" y="-22" on="1"/>
        <pt x="245" y="-22" on="0"/>
        <pt x="183" y="-8" on="0"/>
        <pt x="137" y="18" on="0"/>
        <pt x="110" y="51" on="0"/>
      </contour>
      <contour>
        <pt x="218" y="837" on="1"/>
        <pt x="218" y="872" on="0"/>
        <pt x="232" y="935" on="0"/>
        <pt x="257" y="982" on="0"/>
        <pt x="290" y="1010" on="0"/>
        <pt x="310" y="1010" on="1"/>
        <pt x="346" y="1010" on="0"/>
        <pt x="409" y="995" on="0"/>
        <pt x="456" y="969" on="0"/>
        <pt x="483" y="934" on="0"/>
        <pt x="483" y="915" on="1"/>
        <pt x="483" y="879" on="0"/>
        <pt x="469" y="817" on="0"/>
        <pt x="443" y="771" on="0"/>
        <pt x="409" y="744" on="0"/>
        <pt x="389" y="744" on="1"/>
        <pt x="353" y="744" on="0"/>
        <pt x="291" y="758" on="0"/>
        <pt x="245" y="784" on="0"/>
        <pt x="218" y="817" on="0"/>
      </contour>
    </TTGlyph>
    <TTGlyph name="colonmonetary" xMin="59" yMin="-133" xMax="1161" yMax="1510">
      <contour>
        <pt x="778" y="1510" on="1"/>
        <pt x="873" y="1510" on="1"/>
        <pt x="870" y="1490" on="1"/>
        <pt x="819" y="1375" on="1"/>
        <pt x="866" y="1374" on="0"/>
        <pt x="943" y="1368" on="0"/>
        <pt x="977" y="1363" on="1"/>
        <pt x="1042" y="1510" on="1"/>
        <pt x="1137" y="1510" on="1"/>
        <pt x="1134" y="1490" on="1"/>
        <pt x="1070" y="1345" on="1"/>
        <pt x="1091" y="1340" on="0"/>
        <pt x="1125" y="1329" on="0"/>
        <pt x="1137" y="1325" on="1"/>
        <pt x="1161" y="1316" on="1"/>
        <pt x="1144" y="1046" on="1"/>
        <pt x="1056" y="1046" on="1"/>
        <pt x="1031" y="1243" on="1"/>
        <pt x="1030" y="1243" on="1"/>
        <pt x="1027" y="1243" on="0"/>
        <pt x="1026" y="1244" on="1"/>
        <pt x="518" y="91" on="1"/>
        <pt x="547" y="83" on="0"/>
        <pt x="611" y="77" on="0"/>
        <pt x="646" y="77" on="1"/>
        <pt x="721" y="77" on="0"/>
        <pt x="858" y="109" on="0"/>
        <pt x="912" y="129" on="1"/>
        <pt x="974" y="152" on="0"/>
        <pt x="1029" y="181" on="1"/>
        <pt x="1014" y="105" on="1"/>
        <pt x="954" y="69" on="0"/>
        <pt x="884" y="41" on="1"/>
        <pt x="823" y="17" on="0"/>
        <pt x="662" y="-22" on="0"/>
        <pt x="568" y="-22" on="1"/>
        <pt x="542" y="-22" on="0"/>
        <pt x="493" y="-20" on="0"/>
        <pt x="470" y="-18" on="1"/>
        <pt x="419" y="-133" on="1"/>
        <pt x="324" y="-133" on="1"/>
        <pt x="327" y="-113" on="1"/>
        <pt x="375" y="-3" on="1"/>
        <pt x="336" y="5" on="0"/>
        <pt x="266" y="31" on="0"/>
        <pt x="235" y="50" on="1"/>
        <pt x="155" y="-133" on="1"/>
        <pt x="60" y="-133" on="1"/>
        <pt x="63" y="-113" on="1"/>
        <pt x="161" y="110" on="1"/>
        <pt x="105" y="172" on="0"/>
        <pt x="59" y="370" on="0"/>
        <pt x="80" y="515" on="1"/>
        <pt x="93" y="604" on="1"/>
        <pt x="142" y="956" on="0"/>
        <pt x="454" y="1341" on="0"/>
        <pt x="716" y="1370" on="1"/>
      </contour>
      <contour>
        <pt x="316" y="233" on="1"/>
        <pt x="357" y="162" on="0"/>
        <pt x="431" y="123" on="1"/>
        <pt x="933" y="1264" on="1"/>
        <pt x="903" y="1269" on="0"/>
        <pt x="824" y="1275" on="0"/>
        <pt x="775" y="1276" on="1"/>
      </contour>
      <contour>
        <pt x="448" y="1183" on="1"/>
        <pt x="416" y="1121" on="0"/>
        <pt x="387" y="1044" on="1"/>
        <pt x="362" y="978" on="0"/>
        <pt x="310" y="795" on="0"/>
        <pt x="294" y="683" on="1"/>
        <pt x="275" y="550" on="1"/>
        <pt x="267" y="496" on="0"/>
        <pt x="267" y="404" on="0"/>
        <pt x="273" y="363" on="1"/>
        <pt x="672" y="1269" on="1"/>
        <pt x="619" y="1261" on="0"/>
        <pt x="536" y="1232" on="0"/>
        <pt x="507" y="1218" on="1"/>
        <pt x="473" y="1201" on="0"/>
      </contour>
    </TTGlyph>
    <TTGlyph name="comma" xMin="90" yMin="-366" xMax="399" yMax="244">
      <contour>
        <pt x="108" y="79" on="1"/>
        <pt x="108" y="111" on="0"/>
        <pt x="124" y="170" on="0"/>
        <pt x="152" y="216" on="0"/>
        <pt x="188" y="244" on="0"/>
        <pt x="209" y="244" on="1"/>
        <pt x="248" y="244" on="0"/>
        <pt x="327" y="220" on="0"/>
        <pt x="354" y="192" on="1"/>
        <pt x="363" y="183" on="0"/>
        <pt x="379" y="157" on="0"/>
        <pt x="391" y="121" on="0"/>
        <pt x="399" y="72" on="0"/>
        <pt x="399" y="39" on="1"/>
        <pt x="399" y="-21" on="0"/>
        <pt x="376" y="-122" on="0"/>
        <pt x="321" y="-217" on="0"/>
        <pt x="227" y="-312" on="0"/>
        <pt x="155" y="-366" on="1"/>
        <pt x="90" y="-289" on="1"/>
        <pt x="187" y="-216" on="0"/>
        <pt x="268" y="-105" on="0"/>
        <pt x="268" y="-64" on="1"/>
        <pt x="268" y="-44" on="0"/>
        <pt x="236" y="-22" on="0"/>
        <pt x="213" y="-16" on="1"/>
        <pt x="168" y="-3" on="0"/>
        <pt x="108" y="47" on="0"/>
      </contour>
    </TTGlyph>
    <TTGlyph name="commaaccent" xMin="250" yMin="-534" xMax="469" yMax="-151">
      <contour>
        <pt x="303" y="-151" on="1"/>
        <pt x="469" y="-151" on="1"/>
        <pt x="464" y="-193" on="1"/>
        <pt x="353" y="-534" on="1"/>
        <pt x="250" y="-534" on="1"/>
      </contour>
    </TTGlyph>
    <TTGlyph name="copyright" xMin="70" yMin="335" xMax="1297" yMax="1562">
      <contour>
        <pt x="405" y="919" on="1"/>
        <pt x="405" y="1016" on="0"/>
        <pt x="447" y="1161" on="0"/>
        <pt x="525" y="1257" on="0"/>
        <pt x="635" y="1305" on="0"/>
        <pt x="703" y="1305" on="1"/>
        <pt x="747" y="1305" on="0"/>
        <pt x="817" y="1293" on="0"/>
        <pt x="842" y="1286" on="1"/>
        <pt x="871" y="1277" on="0"/>
        <pt x="894" y="1267" on="1"/>
        <pt x="906" y="1074" on="1"/>
        <pt x="838" y="1060" on="1"/>
        <pt x="794" y="1197" on="1"/>
        <pt x="783" y="1200" on="0"/>
        <pt x="769" y="1203" on="1"/>
        <pt x="757" y="1205" on="0"/>
        <pt x="723" y="1209" on="0"/>
        <pt x="702" y="1209" on="1"/>
        <pt x="673" y="1209" on="0"/>
        <pt x="627" y="1200" on="0"/>
        <pt x="611" y="1195" on="1"/>
        <pt x="592" y="1189" on="0"/>
        <pt x="578" y="1181" on="1"/>
        <pt x="571" y="1154" on="0"/>
        <pt x="566" y="1120" on="1"/>
        <pt x="561" y="1091" on="0"/>
        <pt x="555" y="1008" on="0"/>
        <pt x="555" y="957" on="1"/>
        <pt x="555" y="889" on="1"/>
        <pt x="555" y="838" on="0"/>
        <pt x="584" y="764" on="0"/>
        <pt x="631" y="715" on="0"/>
        <pt x="688" y="692" on="0"/>
        <pt x="717" y="692" on="1"/>
        <pt x="753" y="692" on="0"/>
        <pt x="819" y="706" on="0"/>
        <pt x="845" y="715" on="1"/>
        <pt x="875" y="725" on="0"/>
        <pt x="902" y="738" on="1"/>
        <pt x="902" y="654" on="1"/>
        <pt x="874" y="637" on="0"/>
        <pt x="841" y="624" on="1"/>
        <pt x="812" y="613" on="0"/>
        <pt x="733" y="595" on="0"/>
        <pt x="685" y="595" on="1"/>
        <pt x="624" y="595" on="0"/>
        <pt x="521" y="627" on="0"/>
        <pt x="447" y="692" on="0"/>
        <pt x="405" y="792" on="0"/>
        <pt x="405" y="861" on="1"/>
      </contour>
      <contour>
        <pt x="209" y="949" on="1"/>
        <pt x="209" y="850" on="0"/>
        <pt x="283" y="677" on="0"/>
        <pt x="412" y="548" on="0"/>
        <pt x="585" y="474" on="0"/>
        <pt x="684" y="474" on="1"/>
        <pt x="783" y="474" on="0"/>
        <pt x="956" y="548" on="0"/>
        <pt x="1085" y="677" on="0"/>
        <pt x="1159" y="850" on="0"/>
        <pt x="1159" y="949" on="1"/>
        <pt x="1159" y="1048" on="0"/>
        <pt x="1085" y="1221" on="0"/>
        <pt x="956" y="1350" on="0"/>
        <pt x="783" y="1424" on="0"/>
        <pt x="684" y="1424" on="1"/>
        <pt x="585" y="1424" on="0"/>
        <pt x="412" y="1350" on="0"/>
        <pt x="283" y="1221" on="0"/>
        <pt x="209" y="1048" on="0"/>
      </contour>
      <contour>
        <pt x="70" y="949" on="1"/>
        <pt x="70" y="1076" on="0"/>
        <pt x="167" y="1300" on="0"/>
        <pt x="333" y="1466" on="0"/>
        <pt x="557" y="1562" on="0"/>
        <pt x="684" y="1562" on="1"/>
        <pt x="811" y="1562" on="0"/>
        <pt x="1035" y="1466" on="0"/>
        <pt x="1201" y="1300" on="0"/>
        <pt x="1297" y="1076" on="0"/>
        <pt x="1297" y="949" on="1"/>
        <pt x="1297" y="822" on="0"/>
        <pt x="1201" y="598" on="0"/>
        <pt x="1035" y="432" on="0"/>
        <pt x="811" y="335" on="0"/>
        <pt x="684" y="335" on="1"/>
        <pt x="599" y="335" on="0"/>
        <pt x="442" y="379" on="0"/>
        <pt x="306" y="459" on="0"/>
        <pt x="194" y="571" on="0"/>
        <pt x="114" y="707" on="0"/>
        <pt x="70" y="864" on="0"/>
      </contour>
    </TTGlyph>
    <TTGlyph name="currency" xMin="190" yMin="82" xMax="1101" yMax="1077">
      <contour>
        <pt x="195" y="191" on="1"/>
        <pt x="336" y="360" on="1"/>
        <pt x="298" y="408" on="0"/>
        <pt x="255" y="523" on="0"/>
        <pt x="255" y="588" on="1"/>
        <pt x="255" y="649" on="0"/>
        <pt x="294" y="759" on="0"/>
        <pt x="329" y="805" on="1"/>
        <pt x="190" y="970" on="1"/>
        <pt x="318" y="1077" on="1"/>
        <pt x="456" y="912" on="1"/>
        <pt x="498" y="935" on="0"/>
        <pt x="594" y="959" on="0"/>
        <pt x="646" y="959" on="1"/>
        <pt x="697" y="959" on="0"/>
        <pt x="792" y="935" on="0"/>
        <pt x="834" y="913" on="1"/>
        <pt x="972" y="1077" on="1"/>
        <pt x="1101" y="968" on="1"/>
        <pt x="963" y="804" on="1"/>
        <pt x="998" y="758" on="0"/>
        <pt x="1037" y="648" on="0"/>
        <pt x="1037" y="588" on="1"/>
        <pt x="1037" y="523" on="0"/>
        <pt x="993" y="407" on="0"/>
        <pt x="954" y="359" on="1"/>
        <pt x="1098" y="189" on="1"/>
        <pt x="970" y="82" on="1"/>
        <pt x="822" y="257" on="1"/>
        <pt x="740" y="217" on="0"/>
        <pt x="646" y="217" on="1"/>
        <pt x="598" y="217" on="0"/>
        <pt x="510" y="237" on="0"/>
        <pt x="470" y="256" on="1"/>
        <pt x="324" y="82" on="1"/>
      </contour>
      <contour>
        <pt x="431" y="588" on="1"/>
        <pt x="431" y="532" on="0"/>
        <pt x="465" y="448" on="0"/>
        <pt x="523" y="390" on="0"/>
        <pt x="602" y="361" on="0"/>
        <pt x="646" y="361" on="1"/>
        <pt x="690" y="361" on="0"/>
        <pt x="768" y="390" on="0"/>
        <pt x="826" y="448" on="0"/>
        <pt x="860" y="532" on="0"/>
        <pt x="860" y="588" on="1"/>
        <pt x="860" y="643" on="0"/>
        <pt x="826" y="728" on="0"/>
        <pt x="768" y="786" on="0"/>
        <pt x="690" y="815" on="0"/>
        <pt x="646" y="815" on="1"/>
        <pt x="602" y="815" on="0"/>
        <pt x="523" y="786" on="0"/>
        <pt x="465" y="728" on="0"/>
        <pt x="431" y="643" on="0"/>
      </contour>
    </TTGlyph>
    <TTGlyph name="d" xMin="64" yMin="-22" xMax="1081" yMax="1562">
      <contour>
        <pt x="770" y="1540" on="1"/>
        <pt x="1000" y="1562" on="1"/>
        <pt x="1081" y="1484" on="1"/>
        <pt x="888" y="105" on="1"/>
        <pt x="1030" y="85" on="1"/>
        <pt x="1013" y="0" on="1"/>
        <pt x="783" y="-22" on="1"/>
        <pt x="702" y="56" on="1"/>
        <pt x="728" y="246" on="1"/>
        <pt x="648" y="124" on="0"/>
        <pt x="449" y="-22" on="0"/>
        <pt x="346" y="-22" on="1"/>
        <pt x="177" y="-22" on="0"/>
        <pt x="64" y="171" on="0"/>
        <pt x="92" y="373" on="1"/>
        <pt x="118" y="561" on="1"/>
        <pt x="155" y="818" on="0"/>
        <pt x="433" y="1107" on="0"/>
        <pt x="638" y="1107" on="1"/>
        <pt x="687" y="1107" on="0"/>
        <pt x="792" y="1093" on="0"/>
        <pt x="845" y="1081" on="1"/>
        <pt x="894" y="1435" on="1"/>
        <pt x="753" y="1455" on="1"/>
      </contour>
      <contour>
        <pt x="284" y="461" on="1"/>
        <pt x="254" y="248" on="0"/>
        <pt x="313" y="86" on="0"/>
        <pt x="404" y="86" on="1"/>
        <pt x="488" y="86" on="0"/>
        <pt x="671" y="249" on="0"/>
        <pt x="746" y="374" on="1"/>
        <pt x="832" y="990" on="1"/>
        <pt x="794" y="1004" on="0"/>
        <pt x="685" y="1023" on="0"/>
        <pt x="632" y="1023" on="1"/>
        <pt x="578" y="1023" on="0"/>
        <pt x="470" y="995" on="0"/>
        <pt x="429" y="973" on="1"/>
        <pt x="389" y="908" on="0"/>
        <pt x="318" y="700" on="0"/>
        <pt x="303" y="592" on="1"/>
      </contour>
    </TTGlyph>
    <TTGlyph name="dagger" xMin="100" yMin="-22" xMax="997" yMax="1562">
      <contour>
        <pt x="144" y="1085" on="1"/>
        <pt x="488" y="1065" on="1"/>
        <pt x="535" y="1540" on="1"/>
        <pt x="716" y="1562" on="1"/>
        <pt x="626" y="1065" on="1"/>
        <pt x="997" y="1085" on="1"/>
        <pt x="953" y="916" on="1"/>
        <pt x="608" y="936" on="1"/>
        <pt x="496" y="0" on="1"/>
        <pt x="315" y="-22" on="1"/>
        <pt x="470" y="936" on="1"/>
        <pt x="100" y="916" on="1"/>
      </contour>
    </TTGlyph>
    <TTGlyph name="daggerdbl" xMin="90" yMin="-22" xMax="1053" yMax="1562">
      <contour>
        <pt x="943" y="455" on="1"/>
        <pt x="599" y="475" on="1"/>
        <pt x="552" y="0" on="1"/>
        <pt x="371" y="-22" on="1"/>
        <pt x="461" y="475" on="1"/>
        <pt x="90" y="455" on="1"/>
        <pt x="134" y="624" on="1"/>
        <pt x="479" y="604" on="1"/>
        <pt x="483" y="774" on="1"/>
        <pt x="526" y="936" on="1"/>
        <pt x="156" y="916" on="1"/>
        <pt x="200" y="1085" on="1"/>
        <pt x="544" y="1065" on="1"/>
        <pt x="591" y="1540" on="1"/>
        <pt x="772" y="1562" on="1"/>
        <pt x="682" y="1065" on="1"/>
        <pt x="1053" y="1085" on="1"/>
        <pt x="1009" y="916" on="1"/>
        <pt x="664" y="936" on="1"/>
        <pt x="661" y="774" on="1"/>
        <pt x="617" y="604" on="1"/>
        <pt x="987" y="624" on="1"/>
      </contour>
    </TTGlyph>
    <TTGlyph name="dcaron" xMin="64" yMin="-22" xMax="1398" yMax="1562">
      <component glyphName="d" x="0" y="0" flags="0x204"/>
      <component glyphName="caron.alt" x="1086" y="0" flags="0x4"/>
    </TTGlyph>
    <TTGlyph name="dcroat" xMin="64" yMin="-22" xMax="1202" yMax="1562">
      <contour>
        <pt x="509" y="1328" on="1"/>
        <pt x="879" y="1328" on="1"/>
        <pt x="894" y="1435" on="1"/>
        <pt x="753" y="1455" on="1"/>
        <pt x="770" y="1540" on="1"/>
        <pt x="1000" y="1562" on="1"/>
        <pt x="1081" y="1484" on="1"/>
        <pt x="1060" y="1328" on="1"/>
        <pt x="1202" y="1328" on="1"/>
        <pt x="1188" y="1231" on="1"/>
        <pt x="1046" y="1231" on="1"/>
        <pt x="888" y="105" on="1"/>
        <pt x="1030" y="85" on="1"/>
        <pt x="1013" y="0" on="1"/>
        <pt x="783" y="-22" on="1"/>
        <pt x="702" y="56" on="1"/>
        <pt x="728" y="246" on="1"/>
        <pt x="648" y="124" on="0"/>
        <pt x="449" y="-22" on="0"/>
        <pt x="346" y="-22" on="1"/>
        <pt x="177" y="-22" on="0"/>
        <pt x="64" y="171" on="0"/>
        <pt x="92" y="373" on="1"/>
        <pt x="118" y="561" on="1"/>
        <pt x="155" y="818" on="0"/>
        <pt x="433" y="1107" on="0"/>
        <pt x="638" y="1107" on="1"/>
        <pt x="687" y="1107" on="0"/>
        <pt x="792" y="1093" on="0"/>
        <pt x="845" y="1081" on="1"/>
        <pt x="866" y="1231" on="1"/>
        <pt x="495" y="1231" on="1"/>
      </contour>
      <contour>
        <pt x="284" y="461" on="1"/>
        <pt x="254" y="248" on="0"/>
        <pt x="313" y="86" on="0"/>
        <pt x="404" y="86" on="1"/>
        <pt x="488" y="86" on="0"/>
        <pt x="671" y="249" on="0"/>
        <pt x="746" y="374" on="1"/>
        <pt x="832" y="990" on="1"/>
        <pt x="794" y="1004" on="0"/>
        <pt x="685" y="1023" on="0"/>
        <pt x="632" y="1023" on="1"/>
        <pt x="578" y="1023" on="0"/>
        <pt x="470" y="995" on="0"/>
        <pt x="429" y="973" on="1"/>
        <pt x="389" y="908" on="0"/>
        <pt x="318" y="700" on="0"/>
        <pt x="303" y="592" on="1"/>
      </contour>
    </TTGlyph>
    <TTGlyph name="degree" xMin="110" yMin="1048" xMax="624" yMax="1562">
      <contour>
        <pt x="110" y="1305" on="1"/>
        <pt x="110" y="1358" on="0"/>
        <pt x="150" y="1452" on="0"/>
        <pt x="220" y="1522" on="0"/>
        <pt x="314" y="1562" on="0"/>
        <pt x="367" y="1562" on="1"/>
        <pt x="420" y="1562" on="0"/>
        <pt x="514" y="1522" on="0"/>
        <pt x="584" y="1452" on="0"/>
        <pt x="624" y="1358" on="0"/>
        <pt x="624" y="1305" on="1"/>
        <pt x="624" y="1252" on="0"/>
        <pt x="584" y="1158" on="0"/>
        <pt x="514" y="1088" on="0"/>
        <pt x="420" y="1048" on="0"/>
        <pt x="367" y="1048" on="1"/>
        <pt x="314" y="1048" on="0"/>
        <pt x="220" y="1088" on="0"/>
        <pt x="150" y="1158" on="0"/>
        <pt x="110" y="1252" on="0"/>
      </contour>
      <contour>
        <pt x="239" y="1305" on="1"/>
        <pt x="239" y="1269" on="0"/>
        <pt x="259" y="1214" on="0"/>
        <pt x="294" y="1176" on="0"/>
        <pt x="340" y="1157" on="0"/>
        <pt x="367" y="1157" on="1"/>
        <pt x="394" y="1157" on="0"/>
        <pt x="440" y="1176" on="0"/>
        <pt x="475" y="1214" on="0"/>
        <pt x="495" y="1269" on="0"/>
        <pt x="495" y="1305" on="1"/>
        <pt x="495" y="1341" on="0"/>
        <pt x="475" y="1396" on="0"/>
        <pt x="440" y="1434" on="0"/>
        <pt x="394" y="1453" on="0"/>
        <pt x="367" y="1453" on="1"/>
        <pt x="340" y="1453" on="0"/>
        <pt x="294" y="1434" on="0"/>
        <pt x="259" y="1396" on="0"/>
        <pt x="239" y="1341" on="0"/>
      </contour>
    </TTGlyph>
    <TTGlyph name="dieresis" xMin="150" yMin="1305" xMax="766" yMax="1495">
      <contour>
        <pt x="150" y="1371" on="1"/>
        <pt x="150" y="1396" on="0"/>
        <pt x="160" y="1441" on="0"/>
        <pt x="178" y="1475" on="0"/>
        <pt x="202" y="1495" on="0"/>
        <pt x="216" y="1495" on="1"/>
        <pt x="241" y="1495" on="0"/>
        <pt x="286" y="1484" on="0"/>
        <pt x="320" y="1466" on="0"/>
        <pt x="340" y="1442" on="0"/>
        <pt x="340" y="1428" on="1"/>
        <pt x="340" y="1376" on="0"/>
        <pt x="301" y="1305" on="0"/>
        <pt x="273" y="1305" on="1"/>
        <pt x="221" y="1305" on="0"/>
        <pt x="150" y="1343" on="0"/>
      </contour>
      <contour>
        <pt x="576" y="1371" on="1"/>
        <pt x="576" y="1396" on="0"/>
        <pt x="586" y="1441" on="0"/>
        <pt x="604" y="1475" on="0"/>
        <pt x="628" y="1495" on="0"/>
        <pt x="642" y="1495" on="1"/>
        <pt x="667" y="1495" on="0"/>
        <pt x="712" y="1484" on="0"/>
        <pt x="746" y="1466" on="0"/>
        <pt x="766" y="1442" on="0"/>
        <pt x="766" y="1428" on="1"/>
        <pt x="766" y="1376" on="0"/>
        <pt x="727" y="1305" on="0"/>
        <pt x="699" y="1305" on="1"/>
        <pt x="647" y="1305" on="0"/>
        <pt x="576" y="1343" on="0"/>
      </contour>
    </TTGlyph>
    <TTGlyph name="dieresis.case" xMin="-42" yMin="1501" xMax="593" yMax="1701">
      <contour>
        <pt x="-42" y="1571" on="1"/>
        <pt x="-42" y="1597" on="0"/>
        <pt x="-31" y="1644" on="0"/>
        <pt x="-13" y="1680" on="0"/>
        <pt x="12" y="1701" on="0"/>
        <pt x="27" y="1701" on="1"/>
        <pt x="53" y="1701" on="0"/>
        <pt x="100" y="1690" on="0"/>
        <pt x="136" y="1670" on="0"/>
        <pt x="157" y="1645" on="0"/>
        <pt x="157" y="1630" on="1"/>
        <pt x="157" y="1603" on="0"/>
        <pt x="146" y="1556" on="0"/>
        <pt x="127" y="1521" on="0"/>
        <pt x="102" y="1501" on="0"/>
        <pt x="87" y="1501" on="1"/>
        <pt x="60" y="1501" on="0"/>
        <pt x="12" y="1512" on="0"/>
        <pt x="-22" y="1531" on="0"/>
        <pt x="-42" y="1556" on="0"/>
      </contour>
      <contour>
        <pt x="394" y="1571" on="1"/>
        <pt x="394" y="1597" on="0"/>
        <pt x="405" y="1644" on="0"/>
        <pt x="423" y="1680" on="0"/>
        <pt x="448" y="1701" on="0"/>
        <pt x="463" y="1701" on="1"/>
        <pt x="490" y="1701" on="0"/>
        <pt x="537" y="1690" on="0"/>
        <pt x="572" y="1670" on="0"/>
        <pt x="593" y="1645" on="0"/>
        <pt x="593" y="1630" on="1"/>
        <pt x="593" y="1603" on="0"/>
        <pt x="582" y="1556" on="0"/>
        <pt x="563" y="1521" on="0"/>
        <pt x="538" y="1501" on="0"/>
        <pt x="523" y="1501" on="1"/>
        <pt x="496" y="1501" on="0"/>
        <pt x="449" y="1512" on="0"/>
        <pt x="414" y="1531" on="0"/>
        <pt x="394" y="1556" on="0"/>
      </contour>
    </TTGlyph>
    <TTGlyph name="dieresisacute.case" xMin="-42" yMin="1501" xMax="710" yMax="2069">
      <contour>
        <pt x="-42" y="1571" on="1"/>
        <pt x="-42" y="1597" on="0"/>
        <pt x="-31" y="1644" on="0"/>
        <pt x="-13" y="1680" on="0"/>
        <pt x="12" y="1701" on="0"/>
        <pt x="27" y="1701" on="1"/>
        <pt x="53" y="1701" on="0"/>
        <pt x="100" y="1690" on="0"/>
        <pt x="136" y="1670" on="0"/>
        <pt x="157" y="1645" on="0"/>
        <pt x="157" y="1630" on="1"/>
        <pt x="157" y="1603" on="0"/>
        <pt x="146" y="1556" on="0"/>
        <pt x="127" y="1521" on="0"/>
        <pt x="102" y="1501" on="0"/>
        <pt x="87" y="1501" on="1"/>
        <pt x="60" y="1501" on="0"/>
        <pt x="12" y="1512" on="0"/>
        <pt x="-22" y="1531" on="0"/>
        <pt x="-42" y="1556" on="0"/>
      </contour>
      <contour>
        <pt x="394" y="1571" on="1"/>
        <pt x="394" y="1597" on="0"/>
        <pt x="405" y="1644" on="0"/>
        <pt x="423" y="1680" on="0"/>
        <pt x="448" y="1701" on="0"/>
        <pt x="463" y="1701" on="1"/>
        <pt x="490" y="1701" on="0"/>
        <pt x="537" y="1690" on="0"/>
        <pt x="572" y="1670" on="0"/>
        <pt x="593" y="1645" on="0"/>
        <pt x="593" y="1630" on="1"/>
        <pt x="593" y="1603" on="0"/>
        <pt x="582" y="1556" on="0"/>
        <pt x="563" y="1521" on="0"/>
        <pt x="538" y="1501" on="0"/>
        <pt x="523" y="1501" on="1"/>
        <pt x="496" y="1501" on="0"/>
        <pt x="449" y="1512" on="0"/>
        <pt x="414" y="1531" on="0"/>
        <pt x="394" y="1556" on="0"/>
      </contour>
      <contour>
        <pt x="182" y="1788" on="1"/>
        <pt x="519" y="2069" on="1"/>
        <pt x="710" y="2059" on="1"/>
        <pt x="701" y="1993" on="1"/>
        <pt x="271" y="1745" on="1"/>
        <pt x="177" y="1756" on="1"/>
      </contour>
    </TTGlyph>
    <TTGlyph name="dieresisacutecomb" xMin="57" yMin="1305" xMax="800" yMax="2007">
      <contour>
        <pt x="57" y="1371" on="1"/>
        <pt x="57" y="1396" on="0"/>
        <pt x="67" y="1441" on="0"/>
        <pt x="85" y="1475" on="0"/>
        <pt x="109" y="1495" on="0"/>
        <pt x="123" y="1495" on="1"/>
        <pt x="148" y="1495" on="0"/>
        <pt x="193" y="1484" on="0"/>
        <pt x="227" y="1466" on="0"/>
        <pt x="247" y="1442" on="0"/>
        <pt x="247" y="1428" on="1"/>
        <pt x="247" y="1376" on="0"/>
        <pt x="208" y="1305" on="0"/>
        <pt x="180" y="1305" on="1"/>
        <pt x="128" y="1305" on="0"/>
        <pt x="57" y="1343" on="0"/>
      </contour>
      <contour>
        <pt x="483" y="1371" on="1"/>
        <pt x="483" y="1396" on="0"/>
        <pt x="493" y="1441" on="0"/>
        <pt x="511" y="1475" on="0"/>
        <pt x="535" y="1495" on="0"/>
        <pt x="549" y="1495" on="1"/>
        <pt x="574" y="1495" on="0"/>
        <pt x="619" y="1484" on="0"/>
        <pt x="653" y="1466" on="0"/>
        <pt x="673" y="1442" on="0"/>
        <pt x="673" y="1428" on="1"/>
        <pt x="673" y="1376" on="0"/>
        <pt x="634" y="1305" on="0"/>
        <pt x="606" y="1305" on="1"/>
        <pt x="554" y="1305" on="0"/>
        <pt x="483" y="1343" on="0"/>
      </contour>
      <contour>
        <pt x="365" y="1644" on="1"/>
        <pt x="619" y="2007" on="1"/>
        <pt x="800" y="1997" on="1"/>
        <pt x="790" y="1931" on="1"/>
        <pt x="434" y="1602" on="1"/>
        <pt x="360" y="1612" on="1"/>
      </contour>
    </TTGlyph>
    <TTGlyph name="dieresiscaron" xMin="57" yMin="1305" xMax="756" yMax="2007">
      <contour>
        <pt x="187" y="1997" on="1"/>
        <pt x="284" y="2007" on="1"/>
        <pt x="425" y="1745" on="1"/>
        <pt x="663" y="2007" on="1"/>
        <pt x="756" y="1997" on="1"/>
        <pt x="752" y="1965" on="1"/>
        <pt x="466" y="1592" on="1"/>
        <pt x="335" y="1602" on="1"/>
        <pt x="183" y="1965" on="1"/>
      </contour>
      <contour>
        <pt x="483" y="1371" on="1"/>
        <pt x="483" y="1396" on="0"/>
        <pt x="493" y="1441" on="0"/>
        <pt x="511" y="1475" on="0"/>
        <pt x="535" y="1495" on="0"/>
        <pt x="549" y="1495" on="1"/>
        <pt x="574" y="1495" on="0"/>
        <pt x="619" y="1484" on="0"/>
        <pt x="653" y="1466" on="0"/>
        <pt x="673" y="1442" on="0"/>
        <pt x="673" y="1428" on="1"/>
        <pt x="673" y="1376" on="0"/>
        <pt x="634" y="1305" on="0"/>
        <pt x="606" y="1305" on="1"/>
        <pt x="554" y="1305" on="0"/>
        <pt x="483" y="1343" on="0"/>
      </contour>
      <contour>
        <pt x="57" y="1371" on="1"/>
        <pt x="57" y="1396" on="0"/>
        <pt x="67" y="1441" on="0"/>
        <pt x="85" y="1475" on="0"/>
        <pt x="109" y="1495" on="0"/>
        <pt x="123" y="1495" on="1"/>
        <pt x="148" y="1495" on="0"/>
        <pt x="193" y="1484" on="0"/>
        <pt x="227" y="1466" on="0"/>
        <pt x="247" y="1442" on="0"/>
        <pt x="247" y="1428" on="1"/>
        <pt x="247" y="1376" on="0"/>
        <pt x="208" y="1305" on="0"/>
        <pt x="180" y="1305" on="1"/>
        <pt x="128" y="1305" on="0"/>
        <pt x="57" y="1343" on="0"/>
      </contour>
    </TTGlyph>
    <TTGlyph name="dieresiscaron.case" xMin="-42" yMin="1501" xMax="691" yMax="2079">
      <contour>
        <pt x="23" y="2069" on="1"/>
        <pt x="128" y="2079" on="1"/>
        <pt x="326" y="1877" on="1"/>
        <pt x="597" y="2079" on="1"/>
        <pt x="691" y="2069" on="1"/>
        <pt x="686" y="2037" on="1"/>
        <pt x="362" y="1745" on="1"/>
        <pt x="230" y="1755" on="1"/>
        <pt x="18" y="2037" on="1"/>
      </contour>
      <contour>
        <pt x="394" y="1571" on="1"/>
        <pt x="394" y="1597" on="0"/>
        <pt x="405" y="1644" on="0"/>
        <pt x="423" y="1680" on="0"/>
        <pt x="448" y="1701" on="0"/>
        <pt x="463" y="1701" on="1"/>
        <pt x="490" y="1701" on="0"/>
        <pt x="537" y="1690" on="0"/>
        <pt x="572" y="1670" on="0"/>
        <pt x="593" y="1645" on="0"/>
        <pt x="593" y="1630" on="1"/>
        <pt x="593" y="1603" on="0"/>
        <pt x="582" y="1556" on="0"/>
        <pt x="563" y="1521" on="0"/>
        <pt x="538" y="1501" on="0"/>
        <pt x="523" y="1501" on="1"/>
        <pt x="496" y="1501" on="0"/>
        <pt x="449" y="1512" on="0"/>
        <pt x="414" y="1531" on="0"/>
        <pt x="394" y="1556" on="0"/>
      </contour>
      <contour>
        <pt x="-42" y="1571" on="1"/>
        <pt x="-42" y="1597" on="0"/>
        <pt x="-31" y="1644" on="0"/>
        <pt x="-13" y="1680" on="0"/>
        <pt x="12" y="1701" on="0"/>
        <pt x="27" y="1701" on="1"/>
        <pt x="53" y="1701" on="0"/>
        <pt x="100" y="1690" on="0"/>
        <pt x="136" y="1670" on="0"/>
        <pt x="157" y="1645" on="0"/>
        <pt x="157" y="1630" on="1"/>
        <pt x="157" y="1603" on="0"/>
        <pt x="146" y="1556" on="0"/>
        <pt x="127" y="1521" on="0"/>
        <pt x="102" y="1501" on="0"/>
        <pt x="87" y="1501" on="1"/>
        <pt x="60" y="1501" on="0"/>
        <pt x="12" y="1512" on="0"/>
        <pt x="-22" y="1531" on="0"/>
        <pt x="-42" y="1556" on="0"/>
      </contour>
    </TTGlyph>
    <TTGlyph name="dieresisgrave.case" xMin="-42" yMin="1501" xMax="593" yMax="2069">
      <contour>
        <pt x="-42" y="1571" on="1"/>
        <pt x="-42" y="1597" on="0"/>
        <pt x="-31" y="1644" on="0"/>
        <pt x="-13" y="1680" on="0"/>
        <pt x="12" y="1701" on="0"/>
        <pt x="27" y="1701" on="1"/>
        <pt x="53" y="1701" on="0"/>
        <pt x="100" y="1690" on="0"/>
        <pt x="136" y="1670" on="0"/>
        <pt x="157" y="1645" on="0"/>
        <pt x="157" y="1630" on="1"/>
        <pt x="157" y="1603" on="0"/>
        <pt x="146" y="1556" on="0"/>
        <pt x="127" y="1521" on="0"/>
        <pt x="102" y="1501" on="0"/>
        <pt x="87" y="1501" on="1"/>
        <pt x="60" y="1501" on="0"/>
        <pt x="12" y="1512" on="0"/>
        <pt x="-22" y="1531" on="0"/>
        <pt x="-42" y="1556" on="0"/>
      </contour>
      <contour>
        <pt x="394" y="1571" on="1"/>
        <pt x="394" y="1597" on="0"/>
        <pt x="405" y="1644" on="0"/>
        <pt x="423" y="1680" on="0"/>
        <pt x="448" y="1701" on="0"/>
        <pt x="463" y="1701" on="1"/>
        <pt x="490" y="1701" on="0"/>
        <pt x="537" y="1690" on="0"/>
        <pt x="572" y="1670" on="0"/>
        <pt x="593" y="1645" on="0"/>
        <pt x="593" y="1630" on="1"/>
        <pt x="593" y="1603" on="0"/>
        <pt x="582" y="1556" on="0"/>
        <pt x="563" y="1521" on="0"/>
        <pt x="538" y="1501" on="0"/>
        <pt x="523" y="1501" on="1"/>
        <pt x="496" y="1501" on="0"/>
        <pt x="449" y="1512" on="0"/>
        <pt x="414" y="1531" on="0"/>
        <pt x="394" y="1556" on="0"/>
      </contour>
      <contour>
        <pt x="430" y="1756" on="1"/>
        <pt x="334" y="1745" on="1"/>
        <pt x="-6" y="1993" on="1"/>
        <pt x="3" y="2059" on="1"/>
        <pt x="196" y="2069" on="1"/>
        <pt x="435" y="1788" on="1"/>
      </contour>
    </TTGlyph>
    <TTGlyph name="dieresisgravecomb" xMin="57" yMin="1305" xMax="673" yMax="2007">
      <contour>
        <pt x="57" y="1371" on="1"/>
        <pt x="57" y="1396" on="0"/>
        <pt x="67" y="1441" on="0"/>
        <pt x="85" y="1475" on="0"/>
        <pt x="109" y="1495" on="0"/>
        <pt x="123" y="1495" on="1"/>
        <pt x="148" y="1495" on="0"/>
        <pt x="193" y="1484" on="0"/>
        <pt x="227" y="1466" on="0"/>
        <pt x="247" y="1442" on="0"/>
        <pt x="247" y="1428" on="1"/>
        <pt x="247" y="1376" on="0"/>
        <pt x="208" y="1305" on="0"/>
        <pt x="180" y="1305" on="1"/>
        <pt x="128" y="1305" on="0"/>
        <pt x="57" y="1343" on="0"/>
      </contour>
      <contour>
        <pt x="483" y="1371" on="1"/>
        <pt x="483" y="1396" on="0"/>
        <pt x="493" y="1441" on="0"/>
        <pt x="511" y="1475" on="0"/>
        <pt x="535" y="1495" on="0"/>
        <pt x="549" y="1495" on="1"/>
        <pt x="574" y="1495" on="0"/>
        <pt x="619" y="1484" on="0"/>
        <pt x="653" y="1466" on="0"/>
        <pt x="673" y="1442" on="0"/>
        <pt x="673" y="1428" on="1"/>
        <pt x="673" y="1376" on="0"/>
        <pt x="634" y="1305" on="0"/>
        <pt x="606" y="1305" on="1"/>
        <pt x="554" y="1305" on="0"/>
        <pt x="483" y="1343" on="0"/>
      </contour>
      <contour>
        <pt x="468" y="1612" on="1"/>
        <pt x="379" y="1602" on="1"/>
        <pt x="135" y="1931" on="1"/>
        <pt x="145" y="1997" on="1"/>
        <pt x="321" y="2007" on="1"/>
        <pt x="473" y="1644" on="1"/>
      </contour>
    </TTGlyph>
</ttFont>
